CrimsonText_New_Draft_39-Regular.ufo
<glyph name="dollar" format="1">
  <advance width="517"/>
  <unicode hex="0024"/>
  <note>
    dollar
  </note>
  <outline>
    <contour>
      <point x="253" y="-10" type="curve" smooth="yes"/>
      <point x="386" y="-10"/>
      <point x="482" y="67"/>
      <point x="482" y="173" type="curve" smooth="yes"/>
      <point x="482" y="255"/>
      <point x="437" y="304"/>
      <point x="303" y="369" type="curve" smooth="yes"/>
      <point x="197" y="420"/>
      <point x="162" y="456"/>
      <point x="162" y="516" type="curve" smooth="yes"/>
      <point x="162" y="579"/>
      <point x="209" y="622"/>
      <point x="285" y="622" type="curve" smooth="yes"/>
      <point x="320" y="622"/>
      <point x="349" y="614"/>
      <point x="373" y="598" type="curve"/>
      <point x="387" y="567"/>
      <point x="394" y="543"/>
      <point x="404" y="509" type="curve"/>
      <point x="448" y="513" type="line"/>
      <point x="440" y="646" type="line"/>
      <point x="402" y="662"/>
      <point x="351" y="670"/>
      <point x="296" y="670" type="curve" smooth="yes"/>
      <point x="163" y="670"/>
      <point x="70" y="597"/>
      <point x="70" y="492" type="curve" smooth="yes"/>
      <point x="70" y="409"/>
      <point x="115" y="359"/>
      <point x="248" y="295" type="curve" smooth="yes"/>
      <point x="358" y="242"/>
      <point x="389" y="210"/>
      <point x="389" y="148" type="curve" smooth="yes"/>
      <point x="389" y="82"/>
      <point x="340" y="41"/>
      <point x="268" y="41" type="curve" smooth="yes"/>
      <point x="220" y="41"/>
      <point x="175" y="56"/>
      <point x="139" y="80" type="curve"/>
      <point x="129" y="109"/>
      <point x="120" y="138"/>
      <point x="109" y="177" type="curve"/>
      <point x="64" y="171" type="line"/>
      <point x="64" y="125"/>
      <point x="66" y="79"/>
      <point x="70" y="32" type="curve"/>
      <point x="112" y="8"/>
      <point x="188" y="-10"/>
    </contour>
    <contour>
      <point x="254" y="-130" type="line"/>
      <point x="302" y="-130" type="line"/>
      <point x="302" y="790" type="line"/>
      <point x="254" y="790" type="line"/>
    </contour>
  </outline>
</glyph>
<glyph name="quotesingle" format="1">
  <advance width="234"/>
  <unicode hex="0027"/>
  <note>
    quotesingle
  </note>
  <outline>
    <contour>
      <point x="117" y="698" type="curve" smooth="yes"/>
      <point x="84" y="698"/>
      <point x="59" y="675"/>
      <point x="59" y="623" type="curve" smooth="yes"/>
      <point x="59" y="582"/>
      <point x="87" y="485"/>
      <point x="100" y="430" type="curve"/>
      <point x="134" y="430" type="line"/>
      <point x="147" y="485"/>
      <point x="175" y="582"/>
      <point x="175" y="623" type="curve" smooth="yes"/>
      <point x="175" y="675"/>
      <point x="150" y="698"/>
    </contour>
  </outline>
</glyph>
<glyph name="parenleft" format="1">
  <advance width="360"/>
  <unicode hex="0028"/>
  <note>
    parenleft
  </note>
  <outline>
    <contour>
      <point x="331" y="729" type="line"/>
      <point x="177" y="605"/>
      <point x="100" y="439"/>
      <point x="100" y="250" type="curve" smooth="yes"/>
      <point x="100" y="61"/>
      <point x="177" y="-102"/>
      <point x="331" y="-229" type="curve"/>
      <point x="360" y="-203" type="line"/>
      <point x="249" y="-92"/>
      <point x="191" y="67"/>
      <point x="191" y="250" type="curve" smooth="yes"/>
      <point x="191" y="433"/>
      <point x="249" y="592"/>
      <point x="360" y="703" type="curve"/>
    </contour>
  </outline>
</glyph>
<glyph name="parenright" format="1">
  <advance width="360"/>
  <unicode hex="0029"/>
  <note>
    parenright
  </note>
  <outline>
    <contour>
      <point x="29" y="729" type="curve"/>
      <point x="0" y="703" type="line"/>
      <point x="111" y="592"/>
      <point x="169" y="433"/>
      <point x="169" y="250" type="curve" smooth="yes"/>
      <point x="169" y="67"/>
      <point x="111" y="-92"/>
      <point x="0" y="-203" type="curve"/>
      <point x="29" y="-229" type="line"/>
      <point x="183" y="-102"/>
      <point x="260" y="61"/>
      <point x="260" y="250" type="curve" smooth="yes"/>
      <point x="260" y="439"/>
      <point x="183" y="605"/>
    </contour>
  </outline>
</glyph>
<glyph name="zero" format="1">
  <advance width="640"/>
  <unicode hex="0030"/>
  <note>
    zero
  </note>
  <outline>
    <contour>
      <point x="325" y="-10" type="curve" smooth="yes"/>
      <point x="469" y="-10"/>
      <point x="582" y="140"/>
      <point x="582" y="333" type="curve" smooth="yes"/>
      <point x="582" y="533"/>
      <point x="478" y="670"/>
      <point x="328" y="670" type="curve" smooth="yes"/>
      <point x="172" y="670"/>
      <point x="58" y="526"/>
      <point x="58" y="328" type="curve" smooth="yes"/>
      <point x="58" y="127"/>
      <point x="166" y="-10"/>
    </contour>
    <contour>
      <point x="330" y="41" type="curve" smooth="yes"/>
      <point x="230" y="41"/>
      <point x="161" y="162"/>
      <point x="161" y="346" type="curve" smooth="yes"/>
      <point x="161" y="519"/>
      <point x="220" y="620"/>
      <point x="318" y="620" type="curve" smooth="yes"/>
      <point x="415" y="620"/>
      <point x="479" y="500"/>
      <point x="479" y="308" type="curve" smooth="yes"/>
      <point x="479" y="146"/>
      <point x="420" y="41"/>
    </contour>
  </outline>
</glyph>
<glyph name="two" format="1">
  <advance width="536"/>
  <unicode hex="0032"/>
  <note>
    two
  </note>
  <outline>
    <contour>
      <point x="54" y="-2" type="line"/>
      <point x="81" y="-1"/>
      <point x="109" y="0"/>
      <point x="136" y="0" type="curve" smooth="yes"/>
      <point x="362" y="0" type="line" smooth="yes"/>
      <point x="409" y="0"/>
      <point x="440" y="-1"/>
      <point x="473" y="-4" type="curve"/>
      <point x="499" y="175" type="line"/>
      <point x="456" y="180" type="line"/>
      <point x="443" y="142"/>
      <point x="429" y="110"/>
      <point x="418" y="83" type="curve"/>
      <point x="410" y="81"/>
      <point x="394" y="80"/>
      <point x="379" y="80" type="curve" smooth="yes"/>
      <point x="141" y="80" type="line"/>
      <point x="136" y="59" type="line"/>
      <point x="337" y="212"/>
      <point x="438" y="354"/>
      <point x="438" y="477" type="curve" smooth="yes"/>
      <point x="438" y="593"/>
      <point x="356" y="670"/>
      <point x="235" y="670" type="curve" smooth="yes"/>
      <point x="142" y="670"/>
      <point x="64" y="616"/>
      <point x="27" y="527" type="curve"/>
      <point x="57" y="507" type="line"/>
      <point x="95" y="566"/>
      <point x="147" y="599"/>
      <point x="209" y="599" type="curve" smooth="yes"/>
      <point x="292" y="599"/>
      <point x="341" y="543"/>
      <point x="341" y="456" type="curve" smooth="yes"/>
      <point x="341" y="337"/>
      <point x="265" y="225"/>
      <point x="50" y="33" type="curve"/>
    </contour>
  </outline>
</glyph>
<glyph name="three" format="1">
  <advance width="484"/>
  <unicode hex="0033"/>
  <note>
    three
  </note>
  <outline>
    <contour>
      <point x="243" y="352" type="line"/>
      <point x="337" y="385"/>
      <point x="398" y="446"/>
      <point x="398" y="525" type="curve" smooth="yes"/>
      <point x="398" y="611"/>
      <point x="329" y="670"/>
      <point x="221" y="670" type="curve" smooth="yes"/>
      <point x="135" y="670"/>
      <point x="61" y="625"/>
      <point x="28" y="550" type="curve"/>
      <point x="57" y="530" type="line"/>
      <point x="92" y="577"/>
      <point x="138" y="601"/>
      <point x="190" y="601" type="curve" smooth="yes"/>
      <point x="261" y="601"/>
      <point x="306" y="562"/>
      <point x="306" y="498" type="curve" smooth="yes"/>
      <point x="306" y="420"/>
      <point x="248" y="373"/>
      <point x="134" y="360" type="curve"/>
      <point x="140" y="312" type="line"/>
      <point x="161" y="316"/>
      <point x="184" y="318"/>
      <point x="205" y="318" type="curve" smooth="yes"/>
      <point x="294" y="318"/>
      <point x="351" y="265"/>
      <point x="351" y="182" type="curve" smooth="yes"/>
      <point x="351" y="83"/>
      <point x="265" y="22"/>
      <point x="151" y="39" type="curve"/>
      <point x="205" y="24" type="line"/>
      <point x="135" y="82" type="line" smooth="yes"/>
      <point x="107" y="105"/>
      <point x="93" y="111"/>
      <point x="71" y="111" type="curve" smooth="yes"/>
      <point x="47" y="111"/>
      <point x="28" y="94"/>
      <point x="28" y="70" type="curve" smooth="yes"/>
      <point x="28" y="23"/>
      <point x="93" y="-10"/>
      <point x="184" y="-10" type="curve" smooth="yes"/>
      <point x="325" y="-10"/>
      <point x="440" y="84"/>
      <point x="440" y="200" type="curve" smooth="yes"/>
      <point x="440" y="299"/>
      <point x="366" y="361"/>
      <point x="245" y="366" type="curve"/>
    </contour>
  </outline>
</glyph>
<glyph name="five" format="1">
  <advance width="484"/>
  <unicode hex="0035"/>
  <note>
    five
  </note>
  <outline>
    <contour>
      <point x="184" y="-10" type="curve" smooth="yes"/>
      <point x="325" y="-10"/>
      <point x="440" y="84"/>
      <point x="440" y="191" type="curve" smooth="yes"/>
      <point x="440" y="294"/>
      <point x="370" y="360"/>
      <point x="227" y="391" type="curve" smooth="yes"/>
      <point x="191" y="399"/>
      <point x="153" y="405"/>
      <point x="116" y="411" type="curve"/>
      <point x="140" y="363" type="line"/>
      <point x="186" y="578" type="line"/>
      <point x="401" y="578" type="line"/>
      <point x="401" y="660" type="line"/>
      <point x="142" y="660" type="line"/>
      <point x="83" y="336" type="line"/>
      <point x="122" y="330"/>
      <point x="160" y="322"/>
      <point x="199" y="314" type="curve" smooth="yes"/>
      <point x="307" y="291"/>
      <point x="351" y="249"/>
      <point x="351" y="170" type="curve" smooth="yes"/>
      <point x="351" y="83"/>
      <point x="265" y="22"/>
      <point x="151" y="39" type="curve"/>
      <point x="205" y="24" type="line"/>
      <point x="135" y="82" type="line" smooth="yes"/>
      <point x="107" y="105"/>
      <point x="93" y="111"/>
      <point x="71" y="111" type="curve" smooth="yes"/>
      <point x="47" y="111"/>
      <point x="28" y="94"/>
      <point x="28" y="70" type="curve" smooth="yes"/>
      <point x="28" y="23"/>
      <point x="93" y="-10"/>
    </contour>
  </outline>
</glyph>
<glyph name="six" format="1">
  <advance width="548"/>
  <unicode hex="0036"/>
  <note>
    six
  </note>
  <outline>
    <contour>
      <point x="136" y="274" type="curve"/>
      <point x="141" y="229" type="line"/>
      <point x="173" y="285"/>
      <point x="220" y="316"/>
      <point x="276" y="316" type="curve" smooth="yes"/>
      <point x="351" y="316"/>
      <point x="404" y="260"/>
      <point x="404" y="178" type="curve" smooth="yes"/>
      <point x="404" y="96"/>
      <point x="356" y="39"/>
      <point x="287" y="39" type="curve" smooth="yes"/>
      <point x="205" y="39"/>
      <point x="154" y="117"/>
      <point x="154" y="241" type="curve" smooth="yes"/>
      <point x="154" y="435"/>
      <point x="259" y="570"/>
      <point x="461" y="633" type="curve"/>
      <point x="442" y="680" type="line"/>
      <point x="209" y="626"/>
      <point x="55" y="450"/>
      <point x="55" y="236" type="curve" smooth="yes"/>
      <point x="55" y="88"/>
      <point x="145" y="-10"/>
      <point x="280" y="-10" type="curve" smooth="yes"/>
      <point x="401" y="-10"/>
      <point x="500" y="85"/>
      <point x="500" y="201" type="curve" smooth="yes"/>
      <point x="500" y="306"/>
      <point x="418" y="384"/>
      <point x="311" y="384" type="curve" smooth="yes"/>
      <point x="242" y="384"/>
      <point x="175" y="342"/>
    </contour>
  </outline>
</glyph>
<glyph name="seven" format="1">
  <advance width="504"/>
  <unicode hex="0037"/>
  <note>
    seven
  </note>
  <outline>
    <contour>
      <point x="227" y="0" type="line"/>
      <point x="481" y="625" type="line"/>
      <point x="477" y="661" type="line"/>
      <point x="449" y="661"/>
      <point x="419" y="660"/>
      <point x="392" y="660" type="curve" smooth="yes"/>
      <point x="149" y="660" type="line" smooth="yes"/>
      <point x="102" y="660"/>
      <point x="71" y="661"/>
      <point x="38" y="664" type="curve"/>
      <point x="12" y="485" type="line"/>
      <point x="55" y="480" type="line"/>
      <point x="69" y="518"/>
      <point x="80" y="547"/>
      <point x="91" y="574" type="curve"/>
      <point x="99" y="576"/>
      <point x="114" y="577"/>
      <point x="130" y="577" type="curve" smooth="yes"/>
      <point x="421" y="577" type="line"/>
      <point x="421" y="614" type="line"/>
      <point x="142" y="32" type="line"/>
      <point x="142" y="0" type="line"/>
    </contour>
  </outline>
</glyph>
<glyph name="colon" format="1">
  <advance width="234"/>
  <unicode hex="003A"/>
  <note>
    colon
  </note>
  <outline>
    <contour>
      <point x="117" y="-10" type="curve" smooth="yes"/>
      <point x="153" y="-10"/>
      <point x="180" y="16"/>
      <point x="180" y="51" type="curve" smooth="yes"/>
      <point x="180" y="86"/>
      <point x="153" y="112"/>
      <point x="117" y="112" type="curve" smooth="yes"/>
      <point x="81" y="112"/>
      <point x="54" y="86"/>
      <point x="54" y="51" type="curve" smooth="yes"/>
      <point x="54" y="16"/>
      <point x="81" y="-10"/>
    </contour>
    <contour>
      <point x="117" y="318" type="curve" smooth="yes"/>
      <point x="153" y="318"/>
      <point x="180" y="344"/>
      <point x="180" y="379" type="curve" smooth="yes"/>
      <point x="180" y="414"/>
      <point x="153" y="440"/>
      <point x="117" y="440" type="curve" smooth="yes"/>
      <point x="81" y="440"/>
      <point x="54" y="414"/>
      <point x="54" y="379" type="curve" smooth="yes"/>
      <point x="54" y="344"/>
      <point x="81" y="318"/>
    </contour>
  </outline>
</glyph>
<glyph name="semicolon" format="1">
  <advance width="234"/>
  <unicode hex="003B"/>
  <note>
    semicolon
  </note>
  <outline>
    <contour>
      <point x="43" y="-176" type="line"/>
      <point x="125" y="-144"/>
      <point x="184" y="-59"/>
      <point x="184" y="21" type="curve" smooth="yes"/>
      <point x="184" y="83"/>
      <point x="151" y="112"/>
      <point x="116" y="112" type="curve" smooth="yes"/>
      <point x="81" y="112"/>
      <point x="57" y="87"/>
      <point x="57" y="58" type="curve" smooth="yes"/>
      <point x="57" y="4"/>
      <point x="111" y="7"/>
      <point x="111" y="-44" type="curve" smooth="yes"/>
      <point x="111" y="-89"/>
      <point x="81" y="-123"/>
      <point x="28" y="-147" type="curve"/>
    </contour>
    <contour>
      <point x="117" y="318" type="curve" smooth="yes"/>
      <point x="153" y="318"/>
      <point x="180" y="344"/>
      <point x="180" y="379" type="curve" smooth="yes"/>
      <point x="180" y="414"/>
      <point x="153" y="440"/>
      <point x="117" y="440" type="curve" smooth="yes"/>
      <point x="81" y="440"/>
      <point x="54" y="414"/>
      <point x="54" y="379" type="curve" smooth="yes"/>
      <point x="54" y="344"/>
      <point x="81" y="318"/>
    </contour>
  </outline>
</glyph>
<glyph name="question" format="1">
  <advance width="358"/>
  <unicode hex="003F"/>
  <note>
    question
  </note>
  <outline>
    <contour>
      <point x="109" y="182" type="curve"/>
      <point x="149" y="182" type="line"/>
      <point x="145" y="198"/>
      <point x="143" y="215"/>
      <point x="143" y="233" type="curve" smooth="yes"/>
      <point x="143" y="335"/>
      <point x="310" y="356"/>
      <point x="310" y="490" type="curve" smooth="yes"/>
      <point x="310" y="613"/>
      <point x="220" y="698"/>
      <point x="90" y="698" type="curve" smooth="yes"/>
      <point x="38" y="698"/>
      <point x="14" y="676"/>
      <point x="14" y="649" type="curve" smooth="yes"/>
      <point x="14" y="626"/>
      <point x="33" y="604"/>
      <point x="70" y="604" type="curve" smooth="yes"/>
      <point x="99" y="604"/>
      <point x="128" y="621"/>
      <point x="158" y="621" type="curve" smooth="yes"/>
      <point x="211" y="621"/>
      <point x="247" y="586"/>
      <point x="247" y="536" type="curve" smooth="yes"/>
      <point x="247" y="431"/>
      <point x="80" y="379"/>
      <point x="80" y="275" type="curve" smooth="yes"/>
      <point x="80" y="244"/>
      <point x="87" y="218"/>
    </contour>
    <contour>
      <point x="130" y="-10" type="curve" smooth="yes"/>
      <point x="166" y="-10"/>
      <point x="193" y="16"/>
      <point x="193" y="51" type="curve" smooth="yes"/>
      <point x="193" y="86"/>
      <point x="166" y="112"/>
      <point x="130" y="112" type="curve" smooth="yes"/>
      <point x="94" y="112"/>
      <point x="67" y="86"/>
      <point x="67" y="51" type="curve" smooth="yes"/>
      <point x="67" y="16"/>
      <point x="94" y="-10"/>
    </contour>
  </outline>
</glyph>
<glyph name="A" format="1">
  <advance width="653"/>
  <unicode hex="0041"/>
  <note>
    A
  </note>
  <outline>
    <contour>
      <point x="5" y="-3" type="line"/>
      <point x="36" y="0"/>
      <point x="68" y="1"/>
      <point x="94" y="1" type="curve" smooth="yes"/>
      <point x="120" y="1"/>
      <point x="153" y="0"/>
      <point x="188" y="-3" type="curve"/>
      <point x="190" y="39" type="line"/>
      <point x="164" y="40"/>
      <point x="133" y="48"/>
      <point x="121" y="51" type="curve"/>
      <point x="184" y="225" type="line"/>
      <point x="196" y="259" type="line"/>
      <point x="320" y="600" type="line"/>
      <point x="292" y="578" type="line"/>
      <point x="416" y="260" type="line"/>
      <point x="429" y="227" type="line"/>
      <point x="497" y="53" type="line"/>
      <point x="490" y="50"/>
      <point x="455" y="40"/>
      <point x="429" y="39" type="curve"/>
      <point x="431" y="-3" type="line"/>
      <point x="466" y="0"/>
      <point x="504" y="1"/>
      <point x="539" y="1" type="curve" smooth="yes"/>
      <point x="574" y="1"/>
      <point x="616" y="0"/>
      <point x="646" y="-3" type="curve"/>
      <point x="648" y="39" type="line"/>
      <point x="625" y="41"/>
      <point x="607" y="47"/>
      <point x="593" y="53" type="curve"/>
      <point x="349" y="680" type="line"/>
      <point x="289" y="645" type="line"/>
      <point x="58" y="51" type="line"/>
      <point x="44" y="46"/>
      <point x="24" y="40"/>
      <point x="3" y="39" type="curve"/>
    </contour>
    <contour>
      <point x="158" y="213" type="line"/>
      <point x="190" y="215"/>
      <point x="240" y="216"/>
      <point x="313" y="216" type="curve" smooth="yes"/>
      <point x="386" y="216"/>
      <point x="434" y="215"/>
      <point x="466" y="212" type="curve"/>
      <point x="466" y="268" type="line"/>
      <point x="438" y="266"/>
      <point x="386" y="265"/>
      <point x="313" y="265" type="curve" smooth="yes"/>
      <point x="240" y="265"/>
      <point x="186" y="266"/>
      <point x="158" y="268" type="curve"/>
    </contour>
    <contour>
      <point x="309" y="0" type="move" name="bottom"/>
    </contour>
    <contour>
      <point x="606" y="0" type="move" name="ogonek"/>
    </contour>
    <contour>
      <point x="319" y="660" type="move" name="top"/>
    </contour>
  </outline>
</glyph>
<glyph name="B" format="1">
  <advance width="603"/>
  <unicode hex="0042"/>
  <note>
    B
  </note>
  <outline>
    <contour>
      <point x="114" y="54" type="curve"/>
      <point x="107" y="50"/>
      <point x="72" y="40"/>
      <point x="46" y="39" type="curve"/>
      <point x="48" y="-3" type="line"/>
      <point x="68" y="-1"/>
      <point x="125" y="2"/>
      <point x="179" y="2" type="curve" smooth="yes"/>
      <point x="214" y="2"/>
      <point x="247" y="-1"/>
      <point x="284" y="-1" type="curve" smooth="yes"/>
      <point x="463" y="-1"/>
      <point x="550" y="82"/>
      <point x="550" y="189" type="curve" smooth="yes"/>
      <point x="550" y="289"/>
      <point x="473" y="352"/>
      <point x="339" y="355" type="curve"/>
      <point x="354" y="348" type="line"/>
      <point x="461" y="357"/>
      <point x="517" y="428"/>
      <point x="517" y="503" type="curve" smooth="yes"/>
      <point x="517" y="604"/>
      <point x="441" y="662"/>
      <point x="297" y="662" type="curve" smooth="yes"/>
      <point x="237" y="662"/>
      <point x="186" y="659"/>
      <point x="150" y="659" type="curve" smooth="yes"/>
      <point x="115" y="659"/>
      <point x="83" y="659"/>
      <point x="48" y="660" type="curve"/>
      <point x="46" y="618" type="line"/>
      <point x="72" y="619"/>
      <point x="107" y="612"/>
      <point x="114" y="608" type="curve"/>
      <point x="118" y="601"/>
      <point x="122" y="572"/>
      <point x="122" y="442" type="curve" smooth="yes"/>
      <point x="122" y="217" type="line" smooth="yes"/>
      <point x="122" y="87"/>
      <point x="117" y="60"/>
    </contour>
    <contour>
      <point x="208" y="199" type="curve" smooth="yes"/>
      <point x="208" y="465" type="line" smooth="yes"/>
      <point x="208" y="558"/>
      <point x="208" y="602"/>
      <point x="210" y="610" type="curve"/>
      <point x="224" y="614"/>
      <point x="254" y="617"/>
      <point x="283" y="617" type="curve" smooth="yes"/>
      <point x="371" y="617"/>
      <point x="425" y="577"/>
      <point x="425" y="492" type="curve" smooth="yes"/>
      <point x="425" y="415"/>
      <point x="375" y="363"/>
      <point x="272" y="363" type="curve" smooth="yes"/>
      <point x="247" y="363"/>
      <point x="217" y="363"/>
      <point x="191" y="366" type="curve"/>
      <point x="191" y="313" type="line"/>
      <point x="217" y="315"/>
      <point x="246" y="316"/>
      <point x="294" y="316" type="curve" smooth="yes"/>
      <point x="396" y="316"/>
      <point x="458" y="271"/>
      <point x="458" y="179" type="curve" smooth="yes"/>
      <point x="458" y="93"/>
      <point x="406" y="47"/>
      <point x="300" y="47" type="curve" smooth="yes"/>
      <point x="263" y="47"/>
      <point x="223" y="52"/>
      <point x="210" y="55" type="curve"/>
      <point x="209" y="65"/>
      <point x="208" y="123"/>
    </contour>
    <contour>
      <point x="302" y="0" type="move" name="bottom"/>
    </contour>
    <contour>
      <point x="302" y="660" type="move" name="top"/>
    </contour>
  </outline>
</glyph>
<glyph name="E" format="1">
  <advance width="610"/>
  <unicode hex="0045"/>
  <note>
    E
  </note>
  <outline>
    <contour>
      <point x="533" y="-5" type="curve"/>
      <point x="576" y="153" type="line"/>
      <point x="528" y="163" type="line"/>
      <point x="503" y="109"/>
      <point x="483" y="71"/>
      <point x="471" y="54" type="curve"/>
      <point x="460" y="52"/>
      <point x="441" y="50"/>
      <point x="390" y="50" type="curve" smooth="yes"/>
      <point x="277" y="50" type="line" smooth="yes"/>
      <point x="246" y="50"/>
      <point x="227" y="52"/>
      <point x="210" y="54" type="curve"/>
      <point x="209" y="63"/>
      <point x="207" y="115"/>
      <point x="207" y="158" type="curve" smooth="yes"/>
      <point x="207" y="482" type="line" smooth="yes"/>
      <point x="207" y="526"/>
      <point x="209" y="599"/>
      <point x="210" y="608" type="curve"/>
      <point x="227" y="610"/>
      <point x="246" y="612"/>
      <point x="277" y="612" type="curve" smooth="yes"/>
      <point x="411" y="612" type="line" smooth="yes"/>
      <point x="424" y="612"/>
      <point x="440" y="611"/>
      <point x="451" y="609" type="curve"/>
      <point x="465" y="584"/>
      <point x="478" y="550"/>
      <point x="489" y="514" type="curve"/>
      <point x="537" y="521" type="line"/>
      <point x="516" y="664" type="line"/>
      <point x="480" y="661"/>
      <point x="448" y="660"/>
      <point x="414" y="660" type="curve" smooth="yes"/>
      <point x="165" y="660" type="line" smooth="yes"/>
      <point x="132" y="660"/>
      <point x="82" y="659"/>
      <point x="47" y="661" type="curve"/>
      <point x="45" y="619" type="line"/>
      <point x="71" y="617"/>
      <point x="106" y="609"/>
      <point x="113" y="605" type="curve"/>
      <point x="117" y="598"/>
      <point x="121" y="572"/>
      <point x="121" y="442" type="curve" smooth="yes"/>
      <point x="121" y="217" type="line" smooth="yes"/>
      <point x="121" y="87"/>
      <point x="117" y="61"/>
      <point x="113" y="54" type="curve"/>
      <point x="106" y="50"/>
      <point x="71" y="40"/>
      <point x="45" y="39" type="curve"/>
      <point x="47" y="-3" type="line"/>
      <point x="82" y="0"/>
      <point x="132" y="0"/>
      <point x="165" y="0" type="curve" smooth="yes"/>
      <point x="436" y="0" type="line" smooth="yes"/>
      <point x="471" y="0"/>
      <point x="499" y="-1"/>
    </contour>
    <contour>
      <point x="411" y="232" type="curve"/>
      <point x="457" y="232" type="line"/>
      <point x="455" y="268"/>
      <point x="454" y="308"/>
      <point x="454" y="340" type="curve" smooth="yes"/>
      <point x="454" y="372"/>
      <point x="455" y="411"/>
      <point x="457" y="447" type="curve"/>
      <point x="411" y="447" type="line"/>
      <point x="408" y="424"/>
      <point x="403" y="390"/>
      <point x="397" y="369" type="curve"/>
      <point x="388" y="366"/>
      <point x="370" y="365"/>
      <point x="348" y="365" type="curve" smooth="yes"/>
      <point x="257" y="365" type="line" smooth="yes"/>
      <point x="238" y="365"/>
      <point x="217" y="366"/>
      <point x="190" y="367" type="curve"/>
      <point x="190" y="312" type="line"/>
      <point x="217" y="313"/>
      <point x="238" y="314"/>
      <point x="257" y="314" type="curve" smooth="yes"/>
      <point x="348" y="314" type="line" smooth="yes"/>
      <point x="370" y="314"/>
      <point x="388" y="313"/>
      <point x="397" y="310" type="curve"/>
      <point x="403" y="289"/>
      <point x="408" y="255"/>
    </contour>
    <contour>
      <point x="305" y="0" type="move" name="bottom"/>
    </contour>
    <contour>
      <point x="535" y="0" type="move" name="ogonek"/>
    </contour>
    <contour>
      <point x="305" y="660" type="move" name="top"/>
    </contour>
    <contour>
      <point x="20" y="660" type="move" name="topleft"/>
    </contour>
  </outline>
</glyph>
<glyph name="H" format="1">
  <advance width="728"/>
  <unicode hex="0048"/>
  <note>
    H
  </note>
  <outline>
    <contour>
      <point x="447" y="-3" type="line"/>
      <point x="482" y="0"/>
      <point x="532" y="2"/>
      <point x="565" y="2" type="curve" smooth="yes"/>
      <point x="598" y="2"/>
      <point x="646" y="0"/>
      <point x="681" y="-3" type="curve"/>
      <point x="683" y="39" type="line"/>
      <point x="657" y="40"/>
      <point x="622" y="50"/>
      <point x="615" y="54" type="curve"/>
      <point x="611" y="61"/>
      <point x="607" y="87"/>
      <point x="607" y="217" type="curve" smooth="yes"/>
      <point x="607" y="442" type="line" smooth="yes"/>
      <point x="607" y="572"/>
      <point x="611" y="598"/>
      <point x="615" y="605" type="curve"/>
      <point x="622" y="609"/>
      <point x="657" y="619"/>
      <point x="683" y="619" type="curve"/>
      <point x="681" y="661" type="line"/>
      <point x="646" y="659"/>
      <point x="598" y="657"/>
      <point x="565" y="657" type="curve" smooth="yes"/>
      <point x="532" y="657"/>
      <point x="482" y="659"/>
      <point x="447" y="661" type="curve"/>
      <point x="445" y="619" type="line"/>
      <point x="471" y="619"/>
      <point x="506" y="609"/>
      <point x="513" y="605" type="curve"/>
      <point x="517" y="598"/>
      <point x="521" y="572"/>
      <point x="521" y="442" type="curve" smooth="yes"/>
      <point x="521" y="217" type="line" smooth="yes"/>
      <point x="521" y="87"/>
      <point x="517" y="61"/>
      <point x="513" y="54" type="curve"/>
      <point x="506" y="50"/>
      <point x="471" y="40"/>
      <point x="445" y="39" type="curve"/>
    </contour>
    <contour>
      <point x="47" y="-3" type="line"/>
      <point x="82" y="0"/>
      <point x="131" y="2"/>
      <point x="164" y="2" type="curve" smooth="yes"/>
      <point x="197" y="2"/>
      <point x="246" y="0"/>
      <point x="281" y="-3" type="curve"/>
      <point x="283" y="39" type="line"/>
      <point x="257" y="40"/>
      <point x="222" y="50"/>
      <point x="215" y="54" type="curve"/>
      <point x="211" y="61"/>
      <point x="207" y="87"/>
      <point x="207" y="217" type="curve" smooth="yes"/>
      <point x="207" y="442" type="line" smooth="yes"/>
      <point x="207" y="572"/>
      <point x="211" y="598"/>
      <point x="215" y="605" type="curve"/>
      <point x="222" y="609"/>
      <point x="257" y="619"/>
      <point x="283" y="619" type="curve"/>
      <point x="281" y="661" type="line"/>
      <point x="246" y="659"/>
      <point x="197" y="657"/>
      <point x="164" y="657" type="curve" smooth="yes"/>
      <point x="131" y="657"/>
      <point x="82" y="659"/>
      <point x="47" y="661" type="curve"/>
      <point x="45" y="619" type="line"/>
      <point x="71" y="619"/>
      <point x="106" y="609"/>
      <point x="113" y="605" type="curve"/>
      <point x="117" y="598"/>
      <point x="121" y="572"/>
      <point x="121" y="442" type="curve" smooth="yes"/>
      <point x="121" y="217" type="line" smooth="yes"/>
      <point x="121" y="87"/>
      <point x="117" y="61"/>
      <point x="113" y="54" type="curve"/>
      <point x="106" y="50"/>
      <point x="71" y="40"/>
      <point x="45" y="39" type="curve"/>
    </contour>
    <contour>
      <point x="198" y="309" type="line"/>
      <point x="232" y="312"/>
      <point x="285" y="313"/>
      <point x="365" y="313" type="curve" smooth="yes"/>
      <point x="445" y="313"/>
      <point x="496" y="312"/>
      <point x="530" y="309" type="curve"/>
      <point x="530" y="369" type="line"/>
      <point x="500" y="367"/>
      <point x="445" y="366"/>
      <point x="365" y="366" type="curve" smooth="yes"/>
      <point x="285" y="366"/>
      <point x="228" y="367"/>
      <point x="198" y="369" type="curve"/>
    </contour>
    <contour>
      <point x="364" y="0" type="move" name="bottom"/>
    </contour>
    <contour>
      <point x="364" y="488" type="move" name="center"/>
    </contour>
    <contour>
      <point x="364" y="660" type="move" name="top"/>
    </contour>
    <contour>
      <point x="20" y="660" type="move" name="topleft"/>
    </contour>
  </outline>
</glyph>
<glyph name="J" format="1">
  <advance width="328"/>
  <unicode hex="004A"/>
  <note>
    J
  </note>
  <outline>
    <contour>
      <point x="218" y="611" type="curve"/>
      <point x="225" y="615"/>
      <point x="258" y="625"/>
      <point x="282" y="626" type="curve"/>
      <point x="280" y="662" type="line"/>
      <point x="247" y="659"/>
      <point x="198" y="657"/>
      <point x="167" y="657" type="curve" smooth="yes"/>
      <point x="134" y="657"/>
      <point x="83" y="659"/>
      <point x="46" y="662" type="curve"/>
      <point x="44" y="626" type="line"/>
      <point x="72" y="625"/>
      <point x="109" y="615"/>
      <point x="116" y="611" type="curve"/>
      <point x="120" y="604"/>
      <point x="124" y="572"/>
      <point x="124" y="442" type="curve" smooth="yes"/>
      <point x="123" y="-32" type="line"/>
      <point x="123" y="-169"/>
      <point x="82" y="-195"/>
      <point x="28" y="-186" type="curve"/>
      <point x="64" y="-196" type="line"/>
      <point x="9" y="-143" type="line" smooth="yes"/>
      <point x="-9" y="-126"/>
      <point x="-27" y="-116"/>
      <point x="-46" y="-116" type="curve" smooth="yes"/>
      <point x="-71" y="-116"/>
      <point x="-87" y="-130"/>
      <point x="-87" y="-153" type="curve" smooth="yes"/>
      <point x="-87" y="-192"/>
      <point x="-28" y="-228"/>
      <point x="32" y="-228" type="curve" smooth="yes"/>
      <point x="132" y="-228"/>
      <point x="211" y="-148"/>
      <point x="211" y="23" type="curve"/>
      <point x="210" y="442" type="line"/>
      <point x="210" y="572"/>
      <point x="214" y="604"/>
    </contour>
    <contour>
      <point x="167" y="660" type="move" name="top"/>
    </contour>
  </outline>
</glyph>
<glyph name="M" format="1">
  <advance width="940"/>
  <unicode hex="004D"/>
  <note>
    M
  </note>
  <outline>
    <contour>
      <point x="69" y="661" type="curve"/>
      <point x="67" y="619" type="line"/>
      <point x="95" y="619"/>
      <point x="133" y="609"/>
      <point x="141" y="605" type="curve"/>
      <point x="142" y="587"/>
      <point x="142" y="554"/>
      <point x="138" y="450" type="curve" smooth="yes"/>
      <point x="131" y="284" type="line" smooth="yes"/>
      <point x="126" y="169"/>
      <point x="122" y="71"/>
      <point x="118" y="54" type="curve"/>
      <point x="111" y="50"/>
      <point x="76" y="40"/>
      <point x="47" y="39" type="curve"/>
      <point x="49" y="-3" type="line"/>
      <point x="87" y="0"/>
      <point x="119" y="2"/>
      <point x="151" y="2" type="curve" smooth="yes"/>
      <point x="179" y="2"/>
      <point x="217" y="0"/>
      <point x="254" y="-3" type="curve"/>
      <point x="256" y="39" type="line"/>
      <point x="228" y="40"/>
      <point x="193" y="50"/>
      <point x="186" y="54" type="curve"/>
      <point x="183" y="71"/>
      <point x="183" y="169"/>
      <point x="189" y="302" type="curve" smooth="yes"/>
      <point x="203" y="627" type="line"/>
      <point x="182" y="627" type="line"/>
      <point x="438" y="-4" type="line"/>
      <point x="471" y="-4" type="line"/>
      <point x="714" y="627" type="line"/>
      <point x="699" y="627" type="line"/>
      <point x="724" y="212" type="line" smooth="yes"/>
      <point x="730" y="119"/>
      <point x="731" y="72"/>
      <point x="730" y="54" type="curve"/>
      <point x="723" y="50"/>
      <point x="688" y="40"/>
      <point x="662" y="39" type="curve"/>
      <point x="664" y="-3" type="line"/>
      <point x="699" y="0"/>
      <point x="747" y="2"/>
      <point x="777" y="2" type="curve" smooth="yes"/>
      <point x="808" y="2"/>
      <point x="858" y="0"/>
      <point x="893" y="-3" type="curve"/>
      <point x="895" y="39" type="line"/>
      <point x="869" y="40"/>
      <point x="834" y="50"/>
      <point x="826" y="54" type="curve"/>
      <point x="823" y="81"/>
      <point x="818" y="139"/>
      <point x="813" y="235" type="curve" smooth="yes"/>
      <point x="801" y="450" type="line" smooth="yes"/>
      <point x="795" y="554"/>
      <point x="791" y="598"/>
      <point x="792" y="605" type="curve"/>
      <point x="800" y="609"/>
      <point x="837" y="619"/>
      <point x="865" y="619" type="curve"/>
      <point x="863" y="661" type="line"/>
      <point x="831" y="659"/>
      <point x="793" y="659"/>
      <point x="763" y="659" type="curve" smooth="yes"/>
      <point x="732" y="659"/>
      <point x="699" y="660"/>
      <point x="669" y="661" type="curve"/>
      <point x="458" y="111" type="line"/>
      <point x="483" y="111" type="line"/>
      <point x="267" y="661" type="line"/>
      <point x="237" y="660"/>
      <point x="202" y="659"/>
      <point x="172" y="659" type="curve" smooth="yes"/>
      <point x="140" y="659"/>
      <point x="101" y="659"/>
    </contour>
    <contour>
      <point x="458" y="0" type="move" name="bottom"/>
    </contour>
    <contour>
      <point x="458" y="660" type="move" name="top"/>
    </contour>
  </outline>
</glyph>
<glyph name="N" format="1">
  <advance width="734"/>
  <unicode hex="004E"/>
  <note>
    N
  </note>
  <outline>
    <contour>
      <point x="554" y="150" type="line"/>
      <point x="569" y="150" type="line"/>
      <point x="198" y="661" type="line"/>
      <point x="179" y="660"/>
      <point x="151" y="658"/>
      <point x="126" y="658" type="curve" smooth="yes"/>
      <point x="101" y="658"/>
      <point x="81" y="658"/>
      <point x="46" y="659" type="curve"/>
      <point x="44" y="617" type="line"/>
      <point x="70" y="618"/>
      <point x="105" y="609"/>
      <point x="112" y="605" type="curve"/>
      <point x="117" y="588"/>
      <point x="120" y="572"/>
      <point x="120" y="442" type="curve" smooth="yes"/>
      <point x="120" y="237" type="line" smooth="yes"/>
      <point x="120" y="107"/>
      <point x="116" y="61"/>
      <point x="112" y="54" type="curve"/>
      <point x="105" y="50"/>
      <point x="68" y="40"/>
      <point x="39" y="39" type="curve"/>
      <point x="41" y="-3" type="line"/>
      <point x="79" y="0"/>
      <point x="114" y="2"/>
      <point x="145" y="2" type="curve" smooth="yes"/>
      <point x="176" y="2"/>
      <point x="221" y="0"/>
      <point x="259" y="-3" type="curve"/>
      <point x="261" y="39" type="line"/>
      <point x="232" y="40"/>
      <point x="195" y="50"/>
      <point x="188" y="54" type="curve"/>
      <point x="184" y="61"/>
      <point x="180" y="107"/>
      <point x="180" y="237" type="curve" smooth="yes"/>
      <point x="180" y="558" type="line"/>
      <point x="161" y="558" type="line"/>
      <point x="567" y="-4" type="line"/>
      <point x="613" y="-4" type="line"/>
      <point x="613" y="48"/>
      <point x="612" y="98"/>
      <point x="612" y="139" type="curve" smooth="yes"/>
      <point x="612" y="423" type="line" smooth="yes"/>
      <point x="612" y="553"/>
      <point x="616" y="599"/>
      <point x="620" y="606" type="curve"/>
      <point x="627" y="610"/>
      <point x="664" y="619"/>
      <point x="693" y="619" type="curve"/>
      <point x="691" y="661" type="line"/>
      <point x="653" y="659"/>
      <point x="618" y="658"/>
      <point x="586" y="658" type="curve" smooth="yes"/>
      <point x="556" y="658"/>
      <point x="513" y="659"/>
      <point x="475" y="661" type="curve"/>
      <point x="473" y="619" type="line"/>
      <point x="502" y="619"/>
      <point x="539" y="610"/>
      <point x="546" y="606" type="curve"/>
      <point x="550" y="599"/>
      <point x="554" y="553"/>
      <point x="554" y="423" type="curve" smooth="yes"/>
    </contour>
    <contour>
      <point x="367" y="0" type="move" name="bottom"/>
    </contour>
    <contour>
      <point x="367" y="660" type="move" name="top"/>
    </contour>
  </outline>
</glyph>
<glyph name="O" format="1">
  <advance width="766"/>
  <unicode hex="004F"/>
  <note>
    O
  </note>
  <outline>
    <contour>
      <point x="389" y="-10" type="curve" smooth="yes"/>
      <point x="567" y="-10"/>
      <point x="708" y="142"/>
      <point x="708" y="333" type="curve" smooth="yes"/>
      <point x="708" y="532"/>
      <point x="579" y="670"/>
      <point x="393" y="670" type="curve" smooth="yes"/>
      <point x="202" y="670"/>
      <point x="58" y="525"/>
      <point x="58" y="328" type="curve" smooth="yes"/>
      <point x="58" y="128"/>
      <point x="194" y="-10"/>
    </contour>
    <contour>
      <point x="401" y="44" type="curve" smooth="yes"/>
      <point x="263" y="44"/>
      <point x="164" y="170"/>
      <point x="164" y="346" type="curve" smooth="yes"/>
      <point x="164" y="514"/>
      <point x="246" y="618"/>
      <point x="380" y="618" type="curve" smooth="yes"/>
      <point x="514" y="618"/>
      <point x="606" y="491"/>
      <point x="606" y="308" type="curve" smooth="yes"/>
      <point x="606" y="148"/>
      <point x="525" y="44"/>
    </contour>
    <contour>
      <point x="383" y="0" type="move" name="bottom"/>
    </contour>
    <contour>
      <point x="383" y="330" type="move" name="center"/>
    </contour>
    <contour>
      <point x="466" y="0" type="move" name="ogonek"/>
    </contour>
    <contour>
      <point x="383" y="660" type="move" name="top"/>
    </contour>
    <contour>
      <point x="20" y="660" type="move" name="topleft"/>
    </contour>
    <contour>
      <point x="746" y="660" type="move" name="topright"/>
    </contour>
  </outline>
</glyph>
<glyph name="Q" format="1">
  <advance width="766"/>
  <unicode hex="0051"/>
  <note>
    Q
  </note>
  <outline>
    <contour>
      <point x="389" y="-9" type="curve"/>
      <point x="396" y="-7" type="line"/>
      <point x="573" y="-7"/>
      <point x="708" y="143"/>
      <point x="708" y="333" type="curve" smooth="yes"/>
      <point x="708" y="532"/>
      <point x="579" y="670"/>
      <point x="393" y="670" type="curve" smooth="yes"/>
      <point x="202" y="670"/>
      <point x="58" y="525"/>
      <point x="58" y="328" type="curve" smooth="yes"/>
      <point x="58" y="128"/>
      <point x="194" y="-9"/>
    </contour>
    <contour>
      <point x="672" y="-148" type="curve" smooth="yes"/>
      <point x="724" y="-148"/>
      <point x="774" y="-136"/>
      <point x="813" y="-114" type="curve"/>
      <point x="803" y="-74" type="line"/>
      <point x="780" y="-80"/>
      <point x="757" y="-84"/>
      <point x="734" y="-84" type="curve" smooth="yes"/>
      <point x="686" y="-84"/>
      <point x="641" y="-71"/>
      <point x="587" y="-41" type="curve" smooth="yes"/>
      <point x="542" y="-16"/>
      <point x="507" y="-1"/>
      <point x="456" y="5" type="curve"/>
      <point x="315" y="5" type="line"/>
      <point x="349" y="-5"/>
      <point x="381" y="-27"/>
      <point x="416" y="-51" type="curve" smooth="yes"/>
      <point x="450" y="-73"/>
      <point x="478" y="-90"/>
      <point x="507" y="-106" type="curve" smooth="yes"/>
      <point x="558" y="-134"/>
      <point x="612" y="-148"/>
    </contour>
    <contour>
      <point x="401" y="44" type="curve" smooth="yes"/>
      <point x="263" y="44"/>
      <point x="164" y="170"/>
      <point x="164" y="346" type="curve" smooth="yes"/>
      <point x="164" y="514"/>
      <point x="246" y="618"/>
      <point x="380" y="618" type="curve" smooth="yes"/>
      <point x="514" y="618"/>
      <point x="606" y="491"/>
      <point x="606" y="308" type="curve" smooth="yes"/>
      <point x="606" y="148"/>
      <point x="525" y="44"/>
    </contour>
    <contour>
      <point x="383" y="0" type="move" name="bottom"/>
    </contour>
    <contour>
      <point x="383" y="660" type="move" name="top"/>
    </contour>
  </outline>
</glyph>
<glyph name="T" format="1">
  <advance width="609"/>
  <unicode hex="0054"/>
  <note>
    T
  </note>
  <outline>
    <contour>
      <point x="571" y="664" type="curve"/>
      <point x="535" y="661"/>
      <point x="502" y="660"/>
      <point x="468" y="660" type="curve" smooth="yes"/>
      <point x="139" y="660" type="line" smooth="yes"/>
      <point x="105" y="660"/>
      <point x="72" y="661"/>
      <point x="36" y="664" type="curve"/>
      <point x="29" y="605"/>
      <point x="21" y="546"/>
      <point x="12" y="487" type="curve"/>
      <point x="61" y="481" type="line"/>
      <point x="79" y="541"/>
      <point x="97" y="590"/>
      <point x="108" y="607" type="curve"/>
      <point x="119" y="609"/>
      <point x="135" y="610"/>
      <point x="148" y="610" type="curve" smooth="yes"/>
      <point x="191" y="610" type="line" smooth="yes"/>
      <point x="220" y="610"/>
      <point x="238" y="609"/>
      <point x="258" y="608" type="curve"/>
      <point x="259" y="591"/>
      <point x="260" y="488"/>
      <point x="260" y="412" type="curve" smooth="yes"/>
      <point x="260" y="247" type="line" smooth="yes"/>
      <point x="260" y="147"/>
      <point x="256" y="71"/>
      <point x="255" y="54" type="curve"/>
      <point x="233" y="50"/>
      <point x="182" y="43"/>
      <point x="165" y="41" type="curve"/>
      <point x="167" y="-3" type="line"/>
      <point x="202" y="0"/>
      <point x="271" y="2"/>
      <point x="304" y="2" type="curve" smooth="yes"/>
      <point x="338" y="2"/>
      <point x="407" y="0"/>
      <point x="442" y="-3" type="curve"/>
      <point x="444" y="41" type="line"/>
      <point x="427" y="43"/>
      <point x="376" y="50"/>
      <point x="354" y="54" type="curve"/>
      <point x="353" y="71"/>
      <point x="349" y="147"/>
      <point x="349" y="247" type="curve" smooth="yes"/>
      <point x="349" y="412" type="line" smooth="yes"/>
      <point x="349" y="488"/>
      <point x="350" y="591"/>
      <point x="351" y="608" type="curve"/>
      <point x="371" y="609"/>
      <point x="391" y="610"/>
      <point x="419" y="610" type="curve" smooth="yes"/>
      <point x="459" y="610" type="line" smooth="yes"/>
      <point x="472" y="610"/>
      <point x="488" y="609"/>
      <point x="499" y="607" type="curve"/>
      <point x="510" y="590"/>
      <point x="528" y="541"/>
      <point x="546" y="481" type="curve"/>
      <point x="595" y="487" type="line"/>
      <point x="586" y="546"/>
      <point x="578" y="605"/>
    </contour>
    <contour>
      <point x="305" y="0" type="move" name="bottom"/>
    </contour>
    <contour>
      <point x="305" y="340" type="move" name="stroke"/>
    </contour>
    <contour>
      <point x="305" y="660" type="move" name="top"/>
    </contour>
  </outline>
</glyph>
<glyph name="W" format="1">
  <advance width="1049"/>
  <unicode hex="0057"/>
  <note>
    W
  </note>
  <outline>
    <contour>
      <point x="550" y="490" type="line"/>
      <point x="520" y="579" type="line"/>
      <point x="335" y="100" type="line"/>
      <point x="358" y="100" type="line"/>
      <point x="174" y="607" type="line"/>
      <point x="180" y="609"/>
      <point x="207" y="619"/>
      <point x="228" y="619" type="curve"/>
      <point x="226" y="661" type="line"/>
      <point x="198" y="659"/>
      <point x="162" y="658"/>
      <point x="128" y="658" type="curve" smooth="yes"/>
      <point x="92" y="658"/>
      <point x="46" y="659"/>
      <point x="18" y="661" type="curve"/>
      <point x="16" y="619" type="line"/>
      <point x="37" y="617"/>
      <point x="65" y="609"/>
      <point x="71" y="607" type="curve"/>
      <point x="302" y="-4" type="line"/>
      <point x="348" y="-4" type="line"/>
    </contour>
    <contour>
      <point x="706" y="-4" type="line"/>
      <point x="752" y="-4" type="line"/>
      <point x="992" y="607" type="line"/>
      <point x="998" y="609"/>
      <point x="1026" y="617"/>
      <point x="1047" y="619" type="curve"/>
      <point x="1045" y="661" type="line"/>
      <point x="1022" y="660"/>
      <point x="997" y="659"/>
      <point x="963" y="659" type="curve" smooth="yes"/>
      <point x="932" y="659"/>
      <point x="880" y="660"/>
      <point x="848" y="661" type="curve"/>
      <point x="846" y="619" type="line"/>
      <point x="874" y="619"/>
      <point x="911" y="609"/>
      <point x="919" y="607" type="curve"/>
      <point x="738" y="100" type="line"/>
      <point x="761" y="100" type="line"/>
      <point x="580" y="607" type="line"/>
      <point x="588" y="609"/>
      <point x="625" y="619"/>
      <point x="653" y="619" type="curve"/>
      <point x="651" y="661" type="line"/>
      <point x="613" y="659"/>
      <point x="570" y="658"/>
      <point x="536" y="658" type="curve" smooth="yes"/>
      <point x="500" y="658"/>
      <point x="455" y="659"/>
      <point x="427" y="661" type="curve"/>
      <point x="425" y="619" type="line"/>
      <point x="446" y="617"/>
      <point x="473" y="609"/>
      <point x="479" y="607" type="curve"/>
    </contour>
    <contour>
      <point x="530" y="0" type="move" name="bottom"/>
    </contour>
    <contour>
      <point x="530" y="660" type="move" name="top"/>
    </contour>
  </outline>
</glyph>
<glyph name="X" format="1">
  <advance width="645"/>
  <unicode hex="0058"/>
  <note>
    X
  </note>
  <outline>
    <contour>
      <point x="644" y="-3" type="curve"/>
      <point x="646" y="39" type="line"/>
      <point x="625" y="42"/>
      <point x="597" y="50"/>
      <point x="591" y="54" type="curve"/>
      <point x="371" y="363" type="line"/>
      <point x="341" y="404" type="line"/>
      <point x="200" y="605" type="line"/>
      <point x="207" y="609"/>
      <point x="242" y="618"/>
      <point x="268" y="619" type="curve"/>
      <point x="266" y="661" type="line"/>
      <point x="231" y="659"/>
      <point x="182" y="658"/>
      <point x="141" y="658" type="curve" smooth="yes"/>
      <point x="99" y="658"/>
      <point x="61" y="659"/>
      <point x="33" y="661" type="curve"/>
      <point x="31" y="619" type="line"/>
      <point x="52" y="617"/>
      <point x="80" y="609"/>
      <point x="86" y="605" type="curve"/>
      <point x="279" y="332" type="line"/>
      <point x="312" y="291" type="line"/>
      <point x="475" y="54" type="line"/>
      <point x="468" y="50"/>
      <point x="433" y="40"/>
      <point x="407" y="39" type="curve"/>
      <point x="409" y="-3" type="line"/>
      <point x="444" y="0"/>
      <point x="506" y="2"/>
      <point x="536" y="2" type="curve" smooth="yes"/>
      <point x="566" y="2"/>
      <point x="616" y="0"/>
    </contour>
    <contour>
      <point x="476" y="605" type="curve"/>
      <point x="341" y="404" type="line"/>
      <point x="279" y="332" type="line"/>
      <point x="77" y="54" type="line"/>
      <point x="71" y="50"/>
      <point x="43" y="42"/>
      <point x="22" y="39" type="curve"/>
      <point x="24" y="-3" type="line"/>
      <point x="52" y="0"/>
      <point x="95" y="2"/>
      <point x="115" y="2" type="curve" smooth="yes"/>
      <point x="135" y="2"/>
      <point x="181" y="0"/>
      <point x="216" y="-3" type="curve"/>
      <point x="218" y="39" type="line"/>
      <point x="192" y="40"/>
      <point x="157" y="50"/>
      <point x="150" y="54" type="curve"/>
      <point x="312" y="291" type="line"/>
      <point x="371" y="363" type="line"/>
      <point x="548" y="605" type="line"/>
      <point x="554" y="609"/>
      <point x="582" y="617"/>
      <point x="603" y="619" type="curve"/>
      <point x="601" y="661" type="line"/>
      <point x="573" y="659"/>
      <point x="539" y="659"/>
      <point x="519" y="659" type="curve" smooth="yes"/>
      <point x="490" y="659"/>
      <point x="434" y="660"/>
      <point x="414" y="661" type="curve"/>
      <point x="412" y="619" type="line"/>
      <point x="438" y="619"/>
      <point x="473" y="609"/>
    </contour>
    <contour>
      <point x="323" y="0" type="move" name="bottom"/>
    </contour>
    <contour>
      <point x="323" y="660" type="move" name="top"/>
    </contour>
  </outline>
</glyph>
<glyph name="Z" format="1">
  <advance width="596"/>
  <unicode hex="005A"/>
  <note>
    Z
  </note>
  <outline>
    <contour>
      <point x="539" y="-4" type="curve"/>
      <point x="565" y="175" type="line"/>
      <point x="522" y="180" type="line"/>
      <point x="503" y="124"/>
      <point x="489" y="83"/>
      <point x="475" y="56" type="curve"/>
      <point x="464" y="54"/>
      <point x="448" y="53"/>
      <point x="435" y="53" type="curve" smooth="yes"/>
      <point x="171" y="53" type="line"/>
      <point x="171" y="17" type="line"/>
      <point x="536" y="627" type="line"/>
      <point x="536" y="662" type="line"/>
      <point x="508" y="661"/>
      <point x="479" y="660"/>
      <point x="451" y="660" type="curve" smooth="yes"/>
      <point x="145" y="660" type="line" smooth="yes"/>
      <point x="118" y="660"/>
      <point x="88" y="660"/>
      <point x="55" y="661" type="curve"/>
      <point x="56" y="492" type="line"/>
      <point x="100" y="492" type="line"/>
      <point x="104" y="539"/>
      <point x="109" y="578"/>
      <point x="114" y="605" type="curve"/>
      <point x="133" y="608"/>
      <point x="155" y="609"/>
      <point x="185" y="609" type="curve" smooth="yes"/>
      <point x="440" y="609" type="line"/>
      <point x="440" y="643" type="line"/>
      <point x="74" y="33" type="line"/>
      <point x="74" y="-2" type="line"/>
      <point x="102" y="-1"/>
      <point x="130" y="0"/>
      <point x="158" y="0" type="curve" smooth="yes"/>
      <point x="438" y="0" type="line" smooth="yes"/>
      <point x="472" y="0"/>
      <point x="503" y="-1"/>
    </contour>
    <contour>
      <point x="298" y="0" type="move" name="bottom"/>
    </contour>
    <contour>
      <point x="298" y="660" type="move" name="top"/>
    </contour>
  </outline>
</glyph>
<glyph name="bracketright" format="1">
  <advance width="325"/>
  <unicode hex="005D"/>
  <note>
    bracketright
  </note>
  <outline>
    <contour>
      <point x="45" y="-220" type="line"/>
      <point x="220" y="-220" type="line"/>
      <point x="220" y="722" type="line"/>
      <point x="45" y="722" type="line"/>
      <point x="45" y="675" type="line"/>
      <point x="140" y="675" type="line"/>
      <point x="140" y="-173" type="line"/>
      <point x="45" y="-173" type="line"/>
    </contour>
  </outline>
</glyph>
<glyph name="asciicircum" format="1">
  <advance width="600"/>
  <unicode hex="005E"/>
  <outline>
    <contour>
      <point x="333" y="629" type="line"/>
      <point x="267" y="629" type="line"/>
      <point x="48" y="141" type="line"/>
      <point x="118" y="141" type="line"/>
      <point x="321" y="596" type="line"/>
      <point x="279" y="596" type="line"/>
      <point x="482" y="141" type="line"/>
      <point x="552" y="141" type="line"/>
    </contour>
  </outline>
</glyph>
<glyph name="a" format="1">
  <advance width="472"/>
  <unicode hex="0061"/>
  <note>
    a
  </note>
  <outline>
    <contour>
      <point x="186" y="-8" type="curve" smooth="yes"/>
      <point x="218" y="-8"/>
      <point x="259" y="4"/>
      <point x="312" y="66" type="curve"/>
      <point x="297" y="66" type="line"/>
      <point x="308" y="27" type="line" smooth="yes"/>
      <point x="314" y="6"/>
      <point x="326" y="-8"/>
      <point x="348" y="-8" type="curve" smooth="yes"/>
      <point x="367" y="-8"/>
      <point x="398" y="7"/>
      <point x="443" y="22" type="curve"/>
      <point x="443" y="52" type="line"/>
      <point x="425" y="54"/>
      <point x="388" y="60"/>
      <point x="379" y="64" type="curve"/>
      <point x="377" y="70"/>
      <point x="372" y="93"/>
      <point x="372" y="128" type="curve"/>
      <point x="375" y="297" type="line"/>
      <point x="374" y="385"/>
      <point x="305" y="438"/>
      <point x="211" y="438" type="curve"/>
      <point x="137" y="428"/>
      <point x="52" y="373"/>
      <point x="52" y="331" type="curve" smooth="yes"/>
      <point x="52" y="296"/>
      <point x="93" y="283"/>
      <point x="137" y="294" type="curve"/>
      <point x="139" y="335" type="line" smooth="yes"/>
      <point x="141" y="374"/>
      <point x="148" y="387"/>
      <point x="184" y="387" type="curve" smooth="yes"/>
      <point x="242" y="387"/>
      <point x="295" y="349"/>
      <point x="295" y="299" type="curve" smooth="yes"/>
      <point x="295" y="246" type="line"/>
      <point x="143" y="195" type="line" smooth="yes"/>
      <point x="74" y="172"/>
      <point x="49" y="144"/>
      <point x="49" y="101" type="curve" smooth="yes"/>
      <point x="49" y="51"/>
      <point x="103" y="-8"/>
    </contour>
    <contour>
      <point x="213" y="51" type="curve" smooth="yes"/>
      <point x="176" y="51"/>
      <point x="138" y="81"/>
      <point x="138" y="117" type="curve" smooth="yes"/>
      <point x="138" y="144"/>
      <point x="151" y="160"/>
      <point x="183" y="169" type="curve" smooth="yes"/>
      <point x="295" y="199" type="line"/>
      <point x="295" y="94" type="line"/>
      <point x="268" y="62"/>
      <point x="241" y="51"/>
    </contour>
    <contour>
      <point x="236" y="0" type="move" name="bottom"/>
    </contour>
    <contour>
      <point x="415" y="0" type="move" name="ogonek"/>
    </contour>
    <contour>
      <point x="221" y="430" type="move" name="top"/>
    </contour>
  </outline>
</glyph>
<glyph name="d" format="1">
  <advance width="550"/>
  <unicode hex="0064"/>
  <note>
    d
  </note>
  <outline>
    <contour>
      <point x="388" y="-11" type="line"/>
      <point x="430" y="3"/>
      <point x="472" y="14"/>
      <point x="522" y="21" type="curve"/>
      <point x="522" y="53" type="line"/>
      <point x="504" y="56"/>
      <point x="464" y="65"/>
      <point x="456" y="69" type="curve"/>
      <point x="453" y="77"/>
      <point x="448" y="135"/>
      <point x="448" y="209" type="curve"/>
      <point x="449" y="440" type="line" smooth="yes"/>
      <point x="449" y="523"/>
      <point x="450" y="597"/>
      <point x="453" y="680" type="curve"/>
      <point x="434" y="694" type="line"/>
      <point x="396" y="678"/>
      <point x="350" y="662"/>
      <point x="302" y="651" type="curve"/>
      <point x="304" y="620" type="line"/>
      <point x="321" y="619"/>
      <point x="350" y="617"/>
      <point x="368" y="615" type="curve"/>
      <point x="370" y="591"/>
      <point x="372" y="457"/>
      <point x="372" y="410" type="curve"/>
      <point x="346" y="430"/>
      <point x="303" y="438"/>
      <point x="266" y="438" type="curve" smooth="yes"/>
      <point x="158" y="438"/>
      <point x="44" y="348"/>
      <point x="44" y="200" type="curve" smooth="yes"/>
      <point x="44" y="78"/>
      <point x="128" y="-8"/>
      <point x="242" y="-8" type="curve" smooth="yes"/>
      <point x="289" y="-8"/>
      <point x="331" y="12"/>
      <point x="371" y="68" type="curve"/>
      <point x="374" y="67" type="line"/>
      <point x="373" y="2" type="line"/>
    </contour>
    <contour>
      <point x="267" y="59" type="curve" smooth="yes"/>
      <point x="192" y="59"/>
      <point x="132" y="120"/>
      <point x="132" y="226" type="curve" smooth="yes"/>
      <point x="132" y="330"/>
      <point x="187" y="394"/>
      <point x="266" y="394" type="curve" smooth="yes"/>
      <point x="303" y="394"/>
      <point x="347" y="376"/>
      <point x="372" y="329" type="curve"/>
      <point x="372" y="116" type="line"/>
      <point x="337" y="73"/>
      <point x="306" y="59"/>
    </contour>
    <contour>
      <point x="288" y="0" type="move" name="bottom"/>
    </contour>
    <contour>
      <point x="275" y="215" type="move" name="center"/>
    </contour>
    <contour>
      <point x="352" y="519" type="move" name="stroke"/>
    </contour>
    <contour>
      <point x="275" y="688" type="move" name="top"/>
    </contour>
    <contour>
      <point x="489" y="688" type="move" name="topright"/>
    </contour>
  </outline>
</glyph>
<glyph name="g" format="1">
  <advance width="505"/>
  <unicode hex="0067"/>
  <note>
    g
  </note>
  <outline>
    <contour>
      <point x="241" y="-228" type="curve" smooth="yes"/>
      <point x="369" y="-228"/>
      <point x="468" y="-157"/>
      <point x="468" y="-65" type="curve" smooth="yes"/>
      <point x="468" y="4"/>
      <point x="419" y="41"/>
      <point x="321" y="51" type="curve" smooth="yes"/>
      <point x="198" y="63" type="line" smooth="yes"/>
      <point x="167" y="66"/>
      <point x="150" y="80"/>
      <point x="150" y="99" type="curve" smooth="yes"/>
      <point x="150" y="112"/>
      <point x="161" y="125"/>
      <point x="187" y="143" type="curve"/>
      <point x="174" y="163" type="line"/>
      <point x="112" y="136"/>
      <point x="76" y="100"/>
      <point x="76" y="64" type="curve" smooth="yes"/>
      <point x="76" y="27"/>
      <point x="115" y="-3"/>
      <point x="164" y="-3" type="curve"/>
      <point x="179" y="-7" type="line"/>
      <point x="280" y="-15" type="line" smooth="yes"/>
      <point x="361" y="-22"/>
      <point x="391" y="-42"/>
      <point x="391" y="-87" type="curve" smooth="yes"/>
      <point x="391" y="-146"/>
      <point x="332" y="-187"/>
      <point x="246" y="-187" type="curve" smooth="yes"/>
      <point x="170" y="-187"/>
      <point x="125" y="-156"/>
      <point x="125" y="-103" type="curve" smooth="yes"/>
      <point x="125" y="-65"/>
      <point x="149" y="-30"/>
      <point x="193" y="-4" type="curve"/>
      <point x="156" y="5" type="line"/>
      <point x="76" y="-36"/>
      <point x="42" y="-73"/>
      <point x="42" y="-118" type="curve" smooth="yes"/>
      <point x="42" y="-185"/>
      <point x="119" y="-228"/>
    </contour>
    <contour>
      <point x="249" y="124" type="curve" smooth="yes"/>
      <point x="349" y="124"/>
      <point x="426" y="193"/>
      <point x="426" y="282" type="curve" smooth="yes"/>
      <point x="426" y="372"/>
      <point x="351" y="438"/>
      <point x="249" y="438" type="curve" smooth="yes"/>
      <point x="145" y="438"/>
      <point x="67" y="367"/>
      <point x="67" y="273" type="curve" smooth="yes"/>
      <point x="67" y="187"/>
      <point x="143" y="124"/>
    </contour>
    <contour>
      <point x="255" y="165" type="curve" smooth="yes"/>
      <point x="195" y="165"/>
      <point x="155" y="213"/>
      <point x="155" y="284" type="curve" smooth="yes"/>
      <point x="155" y="352"/>
      <point x="193" y="399"/>
      <point x="248" y="399" type="curve" smooth="yes"/>
      <point x="305" y="399"/>
      <point x="343" y="350"/>
      <point x="343" y="275" type="curve" smooth="yes"/>
      <point x="343" y="208"/>
      <point x="309" y="165"/>
    </contour>
    <contour>
      <point x="487" y="365" type="line"/>
      <point x="487" y="429" type="line"/>
      <point x="328" y="413" type="line"/>
      <point x="378" y="374" type="line"/>
    </contour>
    <contour>
      <point x="253" y="-220" type="move" name="bottom"/>
    </contour>
    <contour>
      <point x="250" y="430" type="move" name="top"/>
    </contour>
  </outline>
</glyph>
<glyph name="p" format="1">
  <advance width="544"/>
  <unicode hex="0070"/>
  <note>
    p
  </note>
  <outline>
    <contour>
      <point x="31" y="-225" type="line"/>
      <point x="66" y="-222"/>
      <point x="101" y="-220"/>
      <point x="135" y="-220" type="curve" smooth="yes"/>
      <point x="169" y="-220"/>
      <point x="219" y="-222"/>
      <point x="251" y="-225" type="curve"/>
      <point x="254" y="-185" type="line"/>
      <point x="229" y="-183"/>
      <point x="188" y="-175"/>
      <point x="179" y="-171" type="curve"/>
      <point x="177" y="-165"/>
      <point x="173" y="-141"/>
      <point x="173" y="-65" type="curve" smooth="yes"/>
      <point x="173" y="10" type="line"/>
      <point x="201" y="0"/>
      <point x="238" y="-7"/>
      <point x="269" y="-7" type="curve" smooth="yes"/>
      <point x="399" y="-7"/>
      <point x="497" y="93"/>
      <point x="497" y="226" type="curve" smooth="yes"/>
      <point x="497" y="349"/>
      <point x="418" y="438"/>
      <point x="308" y="438" type="curve" smooth="yes"/>
      <point x="256" y="438"/>
      <point x="211" y="413"/>
      <point x="174" y="365" type="curve"/>
      <point x="171" y="366" type="line"/>
      <point x="176" y="421" type="line"/>
      <point x="161" y="436" type="line"/>
      <point x="117" y="422"/>
      <point x="73" y="411"/>
      <point x="25" y="403" type="curve"/>
      <point x="25" y="370" type="line"/>
      <point x="49" y="366"/>
      <point x="74" y="360"/>
      <point x="88" y="353" type="curve"/>
      <point x="91" y="340"/>
      <point x="97" y="301"/>
      <point x="97" y="241" type="curve"/>
      <point x="95" y="-6" type="line" smooth="yes"/>
      <point x="94" y="-141"/>
      <point x="93" y="-164"/>
      <point x="90" y="-171" type="curve"/>
      <point x="82" y="-175"/>
      <point x="45" y="-184"/>
      <point x="28" y="-185" type="curve"/>
    </contour>
    <contour>
      <point x="273" y="42" type="curve" smooth="yes"/>
      <point x="236" y="42"/>
      <point x="199" y="53"/>
      <point x="173" y="73" type="curve"/>
      <point x="173" y="315" type="line"/>
      <point x="202" y="353"/>
      <point x="238" y="373"/>
      <point x="281" y="373" type="curve" smooth="yes"/>
      <point x="356" y="373"/>
      <point x="410" y="303"/>
      <point x="409" y="207" type="curve" smooth="yes"/>
      <point x="408" y="106"/>
      <point x="356" y="42"/>
    </contour>
    <contour>
      <point x="272" y="430" type="move" name="top"/>
    </contour>
  </outline>
</glyph>
<glyph name="q" format="1">
  <advance width="550"/>
  <unicode hex="0071"/>
  <note>
    q
  </note>
  <outline>
    <contour>
      <point x="297" y="-225" type="line"/>
      <point x="341" y="-222"/>
      <point x="374" y="-220"/>
      <point x="408" y="-220" type="curve" smooth="yes"/>
      <point x="442" y="-220"/>
      <point x="477" y="-222"/>
      <point x="512" y="-225" type="curve"/>
      <point x="515" y="-185" type="line"/>
      <point x="498" y="-182"/>
      <point x="464" y="-175"/>
      <point x="455" y="-171" type="curve"/>
      <point x="453" y="-165"/>
      <point x="450" y="-121"/>
      <point x="449" y="-25" type="curve" smooth="yes"/>
      <point x="446" y="209" type="line" smooth="yes"/>
      <point x="445" y="305"/>
      <point x="446" y="372"/>
      <point x="449" y="440" type="curve"/>
      <point x="418" y="440" type="line"/>
      <point x="387" y="411" type="line"/>
      <point x="353" y="428"/>
      <point x="313" y="438"/>
      <point x="271" y="438" type="curve" smooth="yes"/>
      <point x="161" y="438"/>
      <point x="44" y="354"/>
      <point x="44" y="200" type="curve" smooth="yes"/>
      <point x="44" y="78"/>
      <point x="123" y="-8"/>
      <point x="240" y="-8" type="curve" smooth="yes"/>
      <point x="287" y="-8"/>
      <point x="331" y="15"/>
      <point x="368" y="66" type="curve"/>
      <point x="371" y="65" type="line"/>
      <point x="371" y="-59" type="line" smooth="yes"/>
      <point x="371" y="-141"/>
      <point x="369" y="-167"/>
      <point x="366" y="-171" type="curve"/>
      <point x="358" y="-175"/>
      <point x="320" y="-184"/>
      <point x="294" y="-186" type="curve"/>
    </contour>
    <contour>
      <point x="265" y="59" type="curve" smooth="yes"/>
      <point x="187" y="59"/>
      <point x="132" y="120"/>
      <point x="132" y="226" type="curve" smooth="yes"/>
      <point x="132" y="338"/>
      <point x="196" y="394"/>
      <point x="266" y="394" type="curve" smooth="yes"/>
      <point x="302" y="394"/>
      <point x="345" y="379"/>
      <point x="370" y="341" type="curve"/>
      <point x="369" y="116" type="line"/>
      <point x="334" y="73"/>
      <point x="305" y="59"/>
    </contour>
    <contour>
      <point x="275" y="430" type="move" name="top"/>
    </contour>
  </outline>
</glyph>
<glyph name="y" format="1">
  <advance width="481"/>
  <unicode hex="0079"/>
  <note>
    y
  </note>
  <outline>
    <contour>
      <point x="224" y="-4" type="line"/>
      <point x="273" y="75" type="line"/>
      <point x="135" y="381" type="line"/>
      <point x="157" y="386"/>
      <point x="183" y="390"/>
      <point x="204" y="392" type="curve"/>
      <point x="202" y="430" type="line"/>
      <point x="170" y="429"/>
      <point x="133" y="429"/>
      <point x="103" y="429" type="curve" smooth="yes"/>
      <point x="73" y="429"/>
      <point x="31" y="430"/>
      <point x="1" y="431" type="curve"/>
      <point x="-1" y="393" type="line"/>
      <point x="11" y="391"/>
      <point x="31" y="386"/>
      <point x="46" y="381" type="curve"/>
    </contour>
    <contour>
      <point x="480" y="431" type="line"/>
      <point x="460" y="430"/>
      <point x="429" y="429"/>
      <point x="402" y="429" type="curve" smooth="yes"/>
      <point x="376" y="429"/>
      <point x="329" y="429"/>
      <point x="309" y="430" type="curve"/>
      <point x="307" y="392" type="line"/>
      <point x="328" y="390"/>
      <point x="354" y="386"/>
      <point x="376" y="381" type="curve"/>
      <point x="244" y="74" type="line"/>
      <point x="233" y="57" type="line"/>
      <point x="123" y="-158" type="line"/>
      <point x="169" y="-108" type="line"/>
      <point x="76" y="-136" type="line" smooth="yes"/>
      <point x="42" y="-146"/>
      <point x="27" y="-165"/>
      <point x="27" y="-185" type="curve" smooth="yes"/>
      <point x="27" y="-211"/>
      <point x="50" y="-228"/>
      <point x="83" y="-228" type="curve" smooth="yes"/>
      <point x="125" y="-228"/>
      <point x="156" y="-206"/>
      <point x="186" y="-144" type="curve" smooth="yes"/>
      <point x="266" y="22" type="line"/>
      <point x="436" y="381" type="line"/>
      <point x="451" y="386"/>
      <point x="470" y="391"/>
      <point x="482" y="393" type="curve"/>
    </contour>
    <contour>
      <point x="315" y="0" type="move" name="bottom"/>
    </contour>
    <contour>
      <point x="256" y="430" type="move" name="top"/>
    </contour>
  </outline>
</glyph>
<glyph name="bar" format="1">
  <advance width="274"/>
  <unicode hex="007C"/>
  <note>
    bar
  </note>
  <outline>
    <contour>
      <point x="105" y="-220" type="line"/>
      <point x="169" y="-220" type="line"/>
      <point x="169" y="722" type="line"/>
      <point x="105" y="722" type="line"/>
    </contour>
  </outline>
</glyph>
<glyph name="braceright" format="1">
  <advance width="369"/>
  <unicode hex="007D"/>
  <note>
    braceright
  </note>
  <outline>
    <contour>
      <point x="162" y="-82" type="curve" smooth="yes"/>
      <point x="162" y="-140"/>
      <point x="129" y="-173"/>
      <point x="55" y="-188" type="curve"/>
      <point x="63" y="-228" type="line"/>
      <point x="184" y="-210"/>
      <point x="244" y="-157"/>
      <point x="244" y="-70" type="curve" smooth="yes"/>
      <point x="244" y="4"/>
      <point x="194" y="86"/>
      <point x="194" y="149" type="curve" smooth="yes"/>
      <point x="194" y="200"/>
      <point x="228" y="226"/>
      <point x="299" y="229" type="curve"/>
      <point x="299" y="273" type="line"/>
      <point x="228" y="276"/>
      <point x="194" y="302"/>
      <point x="194" y="353" type="curve" smooth="yes"/>
      <point x="194" y="416"/>
      <point x="244" y="498"/>
      <point x="244" y="572" type="curve" smooth="yes"/>
      <point x="244" y="659"/>
      <point x="184" y="712"/>
      <point x="63" y="730" type="curve"/>
      <point x="55" y="690" type="line"/>
      <point x="129" y="675"/>
      <point x="162" y="642"/>
      <point x="162" y="584" type="curve" smooth="yes"/>
      <point x="162" y="511"/>
      <point x="122" y="451"/>
      <point x="122" y="371" type="curve" smooth="yes"/>
      <point x="122" y="306"/>
      <point x="158" y="258"/>
      <point x="241" y="247" type="curve"/>
      <point x="241" y="261" type="line"/>
      <point x="160" y="250"/>
      <point x="122" y="198"/>
      <point x="122" y="131" type="curve" smooth="yes"/>
      <point x="122" y="51"/>
      <point x="162" y="-9"/>
    </contour>
  </outline>
</glyph>
<glyph name="currency" format="1">
  <advance width="600"/>
  <unicode hex="00A4"/>
  <note>
    currency
  </note>
  <outline>
    <contour>
      <point x="302" y="82" type="curve" smooth="yes"/>
      <point x="434" y="82"/>
      <point x="542" y="193"/>
      <point x="542" y="330" type="curve" smooth="yes"/>
      <point x="542" y="467"/>
      <point x="434" y="578"/>
      <point x="302" y="578" type="curve" smooth="yes"/>
      <point x="169" y="578"/>
      <point x="61" y="467"/>
      <point x="61" y="330" type="curve" smooth="yes"/>
      <point x="61" y="193"/>
      <point x="169" y="82"/>
    </contour>
    <contour>
      <point x="66" y="52" type="line"/>
      <point x="174" y="162" type="line"/>
      <point x="141" y="204" type="line"/>
      <point x="29" y="90" type="line"/>
    </contour>
    <contour>
      <point x="533" y="52" type="line"/>
      <point x="571" y="90" type="line"/>
      <point x="468" y="195" type="line"/>
      <point x="429" y="158" type="line"/>
    </contour>
    <contour>
      <point x="301" y="126" type="curve" smooth="yes"/>
      <point x="218" y="126"/>
      <point x="151" y="216"/>
      <point x="151" y="328" type="curve" smooth="yes"/>
      <point x="151" y="440"/>
      <point x="218" y="530"/>
      <point x="301" y="530" type="curve" smooth="yes"/>
      <point x="384" y="530"/>
      <point x="451" y="440"/>
      <point x="451" y="328" type="curve" smooth="yes"/>
      <point x="451" y="216"/>
      <point x="384" y="126"/>
    </contour>
    <contour>
      <point x="134" y="462" type="line"/>
      <point x="169" y="502" type="line"/>
      <point x="66" y="608" type="line"/>
      <point x="29" y="570" type="line"/>
    </contour>
    <contour>
      <point x="470" y="467" type="line"/>
      <point x="571" y="570" type="line"/>
      <point x="533" y="608" type="line"/>
      <point x="433" y="506" type="line"/>
    </contour>
  </outline>
</glyph>
<glyph name="brokenbar" format="1">
  <advance width="274"/>
  <unicode hex="00A6"/>
  <note>
    brokenbar
  </note>
  <outline>
    <contour>
      <point x="105" y="350" type="line"/>
      <point x="169" y="350" type="line"/>
      <point x="169" y="722" type="line"/>
      <point x="105" y="722" type="line"/>
    </contour>
    <contour>
      <point x="105" y="-220" type="line"/>
      <point x="169" y="-220" type="line"/>
      <point x="169" y="152" type="line"/>
      <point x="105" y="152" type="line"/>
    </contour>
  </outline>
</glyph>
<glyph name="section" format="1">
  <advance width="442"/>
  <unicode hex="00A7"/>
  <note>
    section
  </note>
  <outline>
    <contour>
      <point x="238" y="215" type="line"/>
      <point x="304" y="218"/>
      <point x="384" y="265"/>
      <point x="384" y="345" type="curve" smooth="yes"/>
      <point x="384" y="482"/>
      <point x="161" y="472"/>
      <point x="161" y="568" type="curve" smooth="yes"/>
      <point x="161" y="603"/>
      <point x="192" y="627"/>
      <point x="238" y="627" type="curve" smooth="yes"/>
      <point x="255" y="627"/>
      <point x="268" y="624"/>
      <point x="282" y="618" type="curve"/>
      <point x="289" y="599"/>
      <point x="296" y="581"/>
      <point x="305" y="555" type="curve"/>
      <point x="352" y="555" type="line"/>
      <point x="349" y="588"/>
      <point x="345" y="620"/>
      <point x="342" y="653" type="curve"/>
      <point x="315" y="663"/>
      <point x="273" y="668"/>
      <point x="240" y="668" type="curve" smooth="yes"/>
      <point x="148" y="668"/>
      <point x="79" y="617"/>
      <point x="79" y="546" type="curve" smooth="yes"/>
      <point x="79" y="404"/>
      <point x="304" y="437"/>
      <point x="304" y="315" type="curve" smooth="yes"/>
      <point x="304" y="268"/>
      <point x="269" y="244"/>
      <point x="225" y="234" type="curve"/>
    </contour>
    <contour>
      <point x="198" y="-8" type="curve" smooth="yes"/>
      <point x="294" y="-8"/>
      <point x="363" y="43"/>
      <point x="363" y="114" type="curve" smooth="yes"/>
      <point x="363" y="253"/>
      <point x="138" y="224"/>
      <point x="138" y="345" type="curve" smooth="yes"/>
      <point x="138" y="392"/>
      <point x="173" y="416"/>
      <point x="217" y="426" type="curve"/>
      <point x="204" y="445" type="line"/>
      <point x="138" y="442"/>
      <point x="58" y="395"/>
      <point x="58" y="315" type="curve" smooth="yes"/>
      <point x="58" y="178"/>
      <point x="281" y="188"/>
      <point x="281" y="92" type="curve" smooth="yes"/>
      <point x="281" y="57"/>
      <point x="250" y="34"/>
      <point x="209" y="34" type="curve" smooth="yes"/>
      <point x="186" y="34"/>
      <point x="166" y="38"/>
      <point x="152" y="46" type="curve"/>
      <point x="145" y="64"/>
      <point x="138" y="82"/>
      <point x="129" y="109" type="curve"/>
      <point x="82" y="109" type="line"/>
      <point x="85" y="76"/>
      <point x="89" y="42"/>
      <point x="92" y="9" type="curve"/>
      <point x="119" y="-2"/>
      <point x="161" y="-8"/>
    </contour>
  </outline>
</glyph>
<glyph name="ordfeminine" format="1">
  <advance width="316"/>
  <unicode hex="00AA"/>
  <note>
    ordfeminine
  </note>
  <outline>
    <contour>
      <point x="102" y="249" type="curve" smooth="yes"/>
      <point x="134" y="249"/>
      <point x="162" y="270"/>
      <point x="180" y="284" type="curve"/>
      <point x="188" y="291" type="line"/>
      <point x="203" y="249"/>
      <point x="235" y="237"/>
      <point x="286" y="273" type="curve"/>
      <point x="287" y="280"/>
      <point x="289" y="285"/>
      <point x="290" y="290" type="curve"/>
      <point x="290" y="291"/>
      <point x="289" y="292"/>
      <point x="287" y="293" type="curve"/>
      <point x="284" y="291" type="line"/>
      <point x="279" y="288"/>
      <point x="270" y="283"/>
      <point x="262" y="283" type="curve" smooth="yes"/>
      <point x="246" y="283"/>
      <point x="236" y="299"/>
      <point x="236" y="318" type="curve" smooth="yes"/>
      <point x="236" y="484" type="line" smooth="yes"/>
      <point x="236" y="533"/>
      <point x="216" y="556"/>
      <point x="160" y="556" type="curve" smooth="yes"/>
      <point x="101" y="556"/>
      <point x="31" y="507"/>
      <point x="31" y="467" type="curve" smooth="yes"/>
      <point x="31" y="460"/>
      <point x="38" y="456"/>
      <point x="52" y="456" type="curve" smooth="yes"/>
      <point x="75" y="456"/>
      <point x="86" y="463"/>
      <point x="86" y="478" type="curve" smooth="yes"/>
      <point x="86" y="509"/>
      <point x="106" y="529"/>
      <point x="134" y="529" type="curve" smooth="yes"/>
      <point x="161" y="529"/>
      <point x="181" y="513"/>
      <point x="181" y="489" type="curve" smooth="yes"/>
      <point x="181" y="431" type="line" smooth="yes"/>
      <point x="181" y="425"/>
      <point x="179" y="422"/>
      <point x="175" y="421" type="curve"/>
      <point x="163" y="418"/>
      <point x="105" y="398"/>
      <point x="83" y="387" type="curve" smooth="yes"/>
      <point x="53" y="372"/>
      <point x="28" y="350"/>
      <point x="28" y="317" type="curve" smooth="yes"/>
      <point x="28" y="272"/>
      <point x="59" y="249"/>
    </contour>
    <contour>
      <point x="128" y="289" type="curve" smooth="yes"/>
      <point x="105" y="289"/>
      <point x="88" y="303"/>
      <point x="88" y="328" type="curve" smooth="yes"/>
      <point x="88" y="373"/>
      <point x="147" y="377"/>
      <point x="181" y="392" type="curve"/>
      <point x="181" y="324" type="line" smooth="yes"/>
      <point x="181" y="309"/>
      <point x="152" y="289"/>
    </contour>
  </outline>
</glyph>
<glyph name="degree" format="1">
  <advance width="361"/>
  <unicode hex="00B0"/>
  <note>
    degree
  </note>
  <outline>
    <contour>
      <point x="181" y="381" type="curve" smooth="yes"/>
      <point x="263" y="381"/>
      <point x="326" y="442"/>
      <point x="326" y="525" type="curve" smooth="yes"/>
      <point x="326" y="607"/>
      <point x="263" y="668"/>
      <point x="181" y="668" type="curve" smooth="yes"/>
      <point x="98" y="668"/>
      <point x="35" y="607"/>
      <point x="35" y="525" type="curve" smooth="yes"/>
      <point x="35" y="442"/>
      <point x="98" y="381"/>
    </contour>
    <contour>
      <point x="181" y="433" type="curve" smooth="yes"/>
      <point x="130" y="433"/>
      <point x="93" y="471"/>
      <point x="93" y="525" type="curve" smooth="yes"/>
      <point x="93" y="578"/>
      <point x="130" y="616"/>
      <point x="181" y="616" type="curve" smooth="yes"/>
      <point x="231" y="616"/>
      <point x="268" y="578"/>
      <point x="268" y="525" type="curve" smooth="yes"/>
      <point x="268" y="471"/>
      <point x="231" y="433"/>
    </contour>
  </outline>
</glyph>
<glyph name="plusminus" format="1">
  <advance width="600"/>
  <unicode hex="00B1"/>
  <outline>
    <contour>
      <point x="544" y="357" type="line"/>
      <point x="56" y="357" type="line"/>
      <point x="56" y="296" type="line"/>
      <point x="544" y="296" type="line"/>
    </contour>
    <contour>
      <point x="268" y="529" type="line"/>
      <point x="268" y="125" type="line"/>
      <point x="332" y="125" type="line"/>
      <point x="332" y="529" type="line"/>
    </contour>
    <contour>
      <point x="544" y="65" type="line"/>
      <point x="56" y="65" type="line"/>
      <point x="56" y="0" type="line"/>
      <point x="544" y="0" type="line"/>
    </contour>
  </outline>
</glyph>
<glyph name="paragraph" format="1">
  <advance width="576"/>
  <unicode hex="00B6"/>
  <note>
    paragraph
  </note>
  <outline>
    <contour>
      <point x="524" y="-3" type="curve"/>
      <point x="526" y="39" type="line"/>
      <point x="503" y="40"/>
      <point x="470" y="50"/>
      <point x="463" y="54" type="curve"/>
      <point x="459" y="61"/>
      <point x="455" y="87"/>
      <point x="455" y="217" type="curve" smooth="yes"/>
      <point x="455" y="442" type="line" smooth="yes"/>
      <point x="455" y="572"/>
      <point x="459" y="598"/>
      <point x="463" y="605" type="curve"/>
      <point x="470" y="609"/>
      <point x="505" y="618"/>
      <point x="531" y="619" type="curve"/>
      <point x="529" y="661" type="line"/>
      <point x="494" y="660"/>
      <point x="451" y="659"/>
      <point x="381" y="659" type="curve" smooth="yes"/>
      <point x="343" y="659"/>
      <point x="310" y="661"/>
      <point x="288" y="661" type="curve" smooth="yes"/>
      <point x="129" y="661"/>
      <point x="30" y="582"/>
      <point x="30" y="462" type="curve" smooth="yes"/>
      <point x="30" y="339"/>
      <point x="130" y="272"/>
      <point x="277" y="272" type="curve" smooth="yes"/>
      <point x="322" y="272"/>
      <point x="383" y="279"/>
      <point x="416" y="289" type="curve"/>
      <point x="416" y="344" type="line"/>
      <point x="378" y="331"/>
      <point x="333" y="320"/>
      <point x="280" y="320" type="curve" smooth="yes"/>
      <point x="181" y="320"/>
      <point x="123" y="375"/>
      <point x="123" y="468" type="curve" smooth="yes"/>
      <point x="123" y="566"/>
      <point x="186" y="616"/>
      <point x="270" y="616" type="curve" smooth="yes"/>
      <point x="283" y="616"/>
      <point x="295" y="616"/>
      <point x="307" y="615" type="curve"/>
      <point x="308" y="602"/>
      <point x="310" y="526"/>
      <point x="310" y="482" type="curve" smooth="yes"/>
      <point x="310" y="217" type="line" smooth="yes"/>
      <point x="310" y="87"/>
      <point x="306" y="61"/>
      <point x="302" y="55" type="curve"/>
      <point x="293" y="53"/>
      <point x="242" y="44"/>
      <point x="214" y="41" type="curve"/>
      <point x="216" y="-3" type="line"/>
      <point x="251" y="0"/>
      <point x="306" y="2"/>
      <point x="371" y="2" type="curve" smooth="yes"/>
      <point x="436" y="2"/>
      <point x="492" y="0"/>
    </contour>
    <contour>
      <point x="362" y="616" type="line"/>
      <point x="408" y="616" type="line"/>
      <point x="404" y="47" type="line"/>
      <point x="362" y="47" type="line"/>
    </contour>
  </outline>
</glyph>
<glyph name="ordmasculine" format="1">
  <advance width="370"/>
  <unicode hex="00BA"/>
  <note>
    ordmasculine
  </note>
  <outline>
    <contour>
      <point x="187" y="247" type="curve" smooth="yes"/>
      <point x="230" y="247"/>
      <point x="267" y="262"/>
      <point x="297" y="292" type="curve" smooth="yes"/>
      <point x="356" y="351"/>
      <point x="355" y="447"/>
      <point x="296" y="508" type="curve" smooth="yes"/>
      <point x="266" y="539"/>
      <point x="230" y="554"/>
      <point x="187" y="554" type="curve" smooth="yes"/>
      <point x="99" y="554"/>
      <point x="29" y="484"/>
      <point x="29" y="399" type="curve" smooth="yes"/>
      <point x="29" y="316"/>
      <point x="100" y="247"/>
    </contour>
    <contour>
      <point x="195" y="271" type="curve" smooth="yes"/>
      <point x="134" y="271"/>
      <point x="98" y="338"/>
      <point x="98" y="411" type="curve" smooth="yes"/>
      <point x="98" y="474"/>
      <point x="128" y="529"/>
      <point x="180" y="529" type="curve" smooth="yes"/>
      <point x="240" y="529"/>
      <point x="272" y="464"/>
      <point x="272" y="391" type="curve" smooth="yes"/>
      <point x="272" y="328"/>
      <point x="246" y="271"/>
    </contour>
  </outline>
</glyph>
<glyph name="multiply" format="1">
  <advance width="600"/>
  <unicode hex="00D7"/>
  <outline>
    <contour>
      <point x="488" y="519" type="line"/>
      <point x="66" y="96" type="line"/>
      <point x="112" y="51" type="line"/>
      <point x="534" y="473" type="line"/>
    </contour>
    <contour>
      <point x="112" y="519" type="line"/>
      <point x="66" y="473" type="line"/>
      <point x="488" y="51" type="line"/>
      <point x="534" y="96" type="line"/>
    </contour>
  </outline>
</glyph>
<glyph name="ae" format="1">
  <advance width="698"/>
  <unicode hex="00E6"/>
  <note>
    ae
  </note>
  <outline>
    <contour>
      <point x="193" y="-8" type="curve" smooth="yes"/>
      <point x="250" y="-8"/>
      <point x="285" y="13"/>
      <point x="352" y="88" type="curve"/>
      <point x="323" y="117" type="line"/>
      <point x="285" y="70"/>
      <point x="256" y="51"/>
      <point x="220" y="51" type="curve" smooth="yes"/>
      <point x="178" y="51"/>
      <point x="139" y="82"/>
      <point x="139" y="117" type="curve" smooth="yes"/>
      <point x="139" y="146"/>
      <point x="156" y="161"/>
      <point x="186" y="167" type="curve" smooth="yes"/>
      <point x="651" y="255" type="line"/>
      <point x="651" y="366"/>
      <point x="589" y="438"/>
      <point x="494" y="438" type="curve" smooth="yes"/>
      <point x="430" y="438"/>
      <point x="377" y="403"/>
      <point x="348" y="349" type="curve"/>
      <point x="365" y="349" type="line"/>
      <point x="345" y="409"/>
      <point x="282" y="438"/>
      <point x="214" y="438" type="curve"/>
      <point x="140" y="428"/>
      <point x="55" y="373"/>
      <point x="55" y="331" type="curve" smooth="yes"/>
      <point x="55" y="296"/>
      <point x="96" y="283"/>
      <point x="140" y="294" type="curve"/>
      <point x="142" y="335" type="line" smooth="yes"/>
      <point x="144" y="374"/>
      <point x="151" y="387"/>
      <point x="187" y="387" type="curve" smooth="yes"/>
      <point x="243" y="387"/>
      <point x="298" y="351"/>
      <point x="298" y="273" type="curve" smooth="yes"/>
      <point x="298" y="196" type="line" smooth="yes"/>
      <point x="298" y="76"/>
      <point x="376" y="-8"/>
      <point x="489" y="-8" type="curve" smooth="yes"/>
      <point x="558" y="-8"/>
      <point x="615" y="26"/>
      <point x="652" y="95" type="curve"/>
      <point x="627" y="119" type="line"/>
      <point x="591" y="73"/>
      <point x="557" y="59"/>
      <point x="515" y="59" type="curve" smooth="yes"/>
      <point x="436" y="59"/>
      <point x="378" y="118"/>
      <point x="378" y="233" type="curve" smooth="yes"/>
      <point x="378" y="259" type="line" smooth="yes"/>
      <point x="378" y="340"/>
      <point x="426" y="397"/>
      <point x="484" y="397" type="curve" smooth="yes"/>
      <point x="538" y="397"/>
      <point x="572" y="351"/>
      <point x="572" y="279" type="curve" smooth="yes"/>
      <point x="572" y="255" type="line"/>
      <point x="584" y="283" type="line"/>
      <point x="176" y="205" type="line" smooth="yes"/>
      <point x="89" y="188"/>
      <point x="50" y="155"/>
      <point x="50" y="101" type="curve" smooth="yes"/>
      <point x="50" y="41"/>
      <point x="120" y="-8"/>
    </contour>
    <contour>
      <point x="338" y="0" type="move" name="bottom"/>
    </contour>
    <contour>
      <point x="338" y="430" type="move" name="top"/>
    </contour>
  </outline>
</glyph>
<glyph name="divide" format="1">
  <advance width="600"/>
  <unicode hex="00F7"/>
  <outline>
    <contour>
      <point x="544" y="317" type="line"/>
      <point x="56" y="317" type="line"/>
      <point x="56" y="252" type="line"/>
      <point x="544" y="252" type="line"/>
    </contour>
    <contour>
      <point x="295" y="32" type="curve" smooth="yes"/>
      <point x="326" y="32"/>
      <point x="350" y="55"/>
      <point x="350" y="85" type="curve" smooth="yes"/>
      <point x="350" y="115"/>
      <point x="326" y="138"/>
      <point x="295" y="138" type="curve" smooth="yes"/>
      <point x="264" y="138"/>
      <point x="240" y="115"/>
      <point x="240" y="85" type="curve" smooth="yes"/>
      <point x="240" y="55"/>
      <point x="264" y="32"/>
    </contour>
    <contour>
      <point x="295" y="431" type="curve" smooth="yes"/>
      <point x="326" y="431"/>
      <point x="350" y="454"/>
      <point x="350" y="484" type="curve" smooth="yes"/>
      <point x="350" y="514"/>
      <point x="326" y="537"/>
      <point x="295" y="537" type="curve" smooth="yes"/>
      <point x="264" y="537"/>
      <point x="240" y="514"/>
      <point x="240" y="484" type="curve" smooth="yes"/>
      <point x="240" y="454"/>
      <point x="264" y="431"/>
    </contour>
  </outline>
</glyph>
<glyph name="oslash" format="1">
  <advance width="518"/>
  <unicode hex="00F8"/>
  <note>
    oslash
  </note>
  <outline>
    <component base="o"/>
    <component base="slashlongcomb" xOffset="-41"/>
    <contour>
      <point x="259" y="430" type="move" name="top"/>
    </contour>
  </outline>
</glyph>
<glyph name="Eogonek" format="1">
  <advance width="610"/>
  <unicode hex="0118"/>
  <note>
    Eogonek
  </note>
  <outline>
    <contour>
      <point x="411" y="232" type="curve"/>
      <point x="457" y="232" type="line"/>
      <point x="455" y="268"/>
      <point x="454" y="308"/>
      <point x="454" y="340" type="curve" smooth="yes"/>
      <point x="454" y="372"/>
      <point x="455" y="411"/>
      <point x="457" y="447" type="curve"/>
      <point x="411" y="447" type="line"/>
      <point x="408" y="424"/>
      <point x="403" y="390"/>
      <point x="397" y="369" type="curve"/>
      <point x="388" y="366"/>
      <point x="370" y="365"/>
      <point x="348" y="365" type="curve" smooth="yes"/>
      <point x="257" y="365" type="line" smooth="yes"/>
      <point x="238" y="365"/>
      <point x="217" y="366"/>
      <point x="190" y="367" type="curve"/>
      <point x="190" y="312" type="line"/>
      <point x="217" y="313"/>
      <point x="238" y="314"/>
      <point x="257" y="314" type="curve" smooth="yes"/>
      <point x="348" y="314" type="line" smooth="yes"/>
      <point x="370" y="314"/>
      <point x="388" y="313"/>
      <point x="397" y="310" type="curve"/>
      <point x="403" y="289"/>
      <point x="408" y="255"/>
    </contour>
    <contour>
      <point x="567" y="-146" type="line"/>
      <point x="546" y="-167"/>
      <point x="524" y="-181"/>
      <point x="498" y="-181" type="curve" smooth="yes"/>
      <point x="463" y="-181"/>
      <point x="440" y="-158"/>
      <point x="440" y="-122" type="curve" smooth="yes"/>
      <point x="440" y="-79"/>
      <point x="472" y="-38"/>
      <point x="535" y="0" type="curve"/>
      <point x="576" y="153" type="line"/>
      <point x="528" y="163" type="line"/>
      <point x="503" y="109"/>
      <point x="483" y="71"/>
      <point x="471" y="54" type="curve"/>
      <point x="460" y="52"/>
      <point x="441" y="50"/>
      <point x="390" y="50" type="curve" smooth="yes"/>
      <point x="277" y="50" type="line" smooth="yes"/>
      <point x="246" y="50"/>
      <point x="227" y="52"/>
      <point x="210" y="54" type="curve"/>
      <point x="209" y="63"/>
      <point x="207" y="115"/>
      <point x="207" y="158" type="curve" smooth="yes"/>
      <point x="207" y="482" type="line" smooth="yes"/>
      <point x="207" y="526"/>
      <point x="209" y="599"/>
      <point x="210" y="608" type="curve"/>
      <point x="227" y="610"/>
      <point x="246" y="612"/>
      <point x="277" y="612" type="curve" smooth="yes"/>
      <point x="411" y="612" type="line" smooth="yes"/>
      <point x="424" y="612"/>
      <point x="440" y="611"/>
      <point x="451" y="609" type="curve"/>
      <point x="465" y="584"/>
      <point x="478" y="550"/>
      <point x="489" y="514" type="curve"/>
      <point x="537" y="521" type="line"/>
      <point x="516" y="664" type="line"/>
      <point x="480" y="661"/>
      <point x="448" y="660"/>
      <point x="414" y="660" type="curve" smooth="yes"/>
      <point x="165" y="660" type="line" smooth="yes"/>
      <point x="132" y="660"/>
      <point x="82" y="659"/>
      <point x="47" y="661" type="curve"/>
      <point x="45" y="619" type="line"/>
      <point x="71" y="617"/>
      <point x="106" y="609"/>
      <point x="113" y="605" type="curve"/>
      <point x="117" y="598"/>
      <point x="121" y="572"/>
      <point x="121" y="442" type="curve" smooth="yes"/>
      <point x="121" y="217" type="line" smooth="yes"/>
      <point x="121" y="87"/>
      <point x="117" y="61"/>
      <point x="113" y="54" type="curve"/>
      <point x="106" y="50"/>
      <point x="71" y="40"/>
      <point x="45" y="39" type="curve"/>
      <point x="47" y="-3" type="line"/>
      <point x="82" y="0"/>
      <point x="132" y="0"/>
      <point x="165" y="0" type="curve" smooth="yes"/>
      <point x="483" y="0" type="line"/>
      <point x="413" y="-35"/>
      <point x="370" y="-81"/>
      <point x="370" y="-132" type="curve" smooth="yes"/>
      <point x="370" y="-183"/>
      <point x="414" y="-223"/>
      <point x="484" y="-223" type="curve" smooth="yes"/>
      <point x="527" y="-223"/>
      <point x="563" y="-203"/>
      <point x="589" y="-173" type="curve"/>
    </contour>
    <contour>
      <point x="305" y="0" type="move" name="bottom"/>
    </contour>
    <contour>
      <point x="305" y="660" type="move" name="top"/>
    </contour>
    <contour>
      <point x="20" y="660" type="move" name="topleft"/>
    </contour>
  </outline>
</glyph>
<glyph name="idotless" format="1">
  <advance width="275"/>
  <unicode hex="0131"/>
  <note>
    dotlessi
  </note>
  <outline>
    <contour>
      <point x="29" y="-3" type="line"/>
      <point x="67" y="0"/>
      <point x="106" y="2"/>
      <point x="139" y="2" type="curve" smooth="yes"/>
      <point x="171" y="2"/>
      <point x="212" y="0"/>
      <point x="250" y="-3" type="curve"/>
      <point x="253" y="36" type="line"/>
      <point x="231" y="37"/>
      <point x="190" y="47"/>
      <point x="181" y="51" type="curve"/>
      <point x="179" y="57"/>
      <point x="175" y="81"/>
      <point x="175" y="165" type="curve" smooth="yes"/>
      <point x="175" y="291" type="line" smooth="yes"/>
      <point x="175" y="352"/>
      <point x="177" y="387"/>
      <point x="181" y="421" type="curve"/>
      <point x="166" y="436" type="line"/>
      <point x="118" y="422"/>
      <point x="75" y="411"/>
      <point x="27" y="403" type="curve"/>
      <point x="27" y="370" type="line"/>
      <point x="51" y="366"/>
      <point x="75" y="360"/>
      <point x="90" y="353" type="curve"/>
      <point x="93" y="340"/>
      <point x="99" y="301"/>
      <point x="99" y="236" type="curve"/>
      <point x="98" y="158" type="line" smooth="yes"/>
      <point x="97" y="81"/>
      <point x="96" y="58"/>
      <point x="93" y="51" type="curve"/>
      <point x="85" y="47"/>
      <point x="48" y="38"/>
      <point x="26" y="37" type="curve"/>
    </contour>
    <contour>
      <point x="137" y="0" type="move" name="bottom"/>
    </contour>
    <contour>
      <point x="195" y="0" type="move" name="ogonek"/>
    </contour>
    <contour>
      <point x="137" y="430" type="move" name="top"/>
    </contour>
  </outline>
</glyph>
<glyph name="eng" format="1">
  <advance width="548"/>
  <unicode hex="014B"/>
  <note>
    eng
  </note>
  <outline>
    <contour>
      <point x="458" y="-13" type="curve"/>
      <point x="457" y="264" type="line"/>
      <point x="457" y="382"/>
      <point x="387" y="438"/>
      <point x="316" y="438" type="curve" smooth="yes"/>
      <point x="264" y="438"/>
      <point x="221" y="416"/>
      <point x="175" y="367" type="curve"/>
      <point x="172" y="368" type="line"/>
      <point x="177" y="421" type="line"/>
      <point x="162" y="436" type="line"/>
      <point x="118" y="422"/>
      <point x="74" y="411"/>
      <point x="26" y="403" type="curve"/>
      <point x="26" y="370" type="line"/>
      <point x="50" y="366"/>
      <point x="74" y="360"/>
      <point x="89" y="353" type="curve"/>
      <point x="92" y="340"/>
      <point x="98" y="301"/>
      <point x="98" y="236" type="curve" smooth="yes"/>
      <point x="97" y="158" type="line" smooth="yes"/>
      <point x="96" y="81"/>
      <point x="95" y="58"/>
      <point x="92" y="51" type="curve"/>
      <point x="84" y="47"/>
      <point x="47" y="38"/>
      <point x="28" y="37" type="curve"/>
      <point x="31" y="-3" type="line"/>
      <point x="66" y="0"/>
      <point x="104" y="2"/>
      <point x="137" y="2" type="curve" smooth="yes"/>
      <point x="170" y="2"/>
      <point x="211" y="0"/>
      <point x="246" y="-3" type="curve"/>
      <point x="249" y="36" type="line"/>
      <point x="230" y="37"/>
      <point x="189" y="47"/>
      <point x="180" y="51" type="curve"/>
      <point x="178" y="57"/>
      <point x="174" y="81"/>
      <point x="174" y="165" type="curve" smooth="yes"/>
      <point x="174" y="316" type="line"/>
      <point x="204" y="358"/>
      <point x="244" y="377"/>
      <point x="282" y="377" type="curve" smooth="yes"/>
      <point x="331" y="377"/>
      <point x="381" y="342"/>
      <point x="381" y="258" type="curve"/>
      <point x="380" y="-17" type="line"/>
      <point x="380" y="-108"/>
      <point x="349" y="-157"/>
      <point x="284" y="-197" type="curve"/>
      <point x="302" y="-231" type="line"/>
      <point x="410" y="-178"/>
      <point x="458" y="-99"/>
    </contour>
  </outline>
</glyph>
<glyph name="oe" format="1">
  <advance width="802"/>
  <unicode hex="0153"/>
  <note>
    oe
  </note>
  <outline>
    <contour>
      <point x="261" y="-8" type="curve" smooth="yes"/>
      <point x="376" y="-8"/>
      <point x="449" y="93"/>
      <point x="449" y="217" type="curve" smooth="yes"/>
      <point x="449" y="348"/>
      <point x="377" y="438"/>
      <point x="256" y="438" type="curve" smooth="yes"/>
      <point x="146" y="438"/>
      <point x="46" y="349"/>
      <point x="46" y="214" type="curve" smooth="yes"/>
      <point x="46" y="83"/>
      <point x="132" y="-8"/>
    </contour>
    <contour>
      <point x="271" y="39" type="curve" smooth="yes"/>
      <point x="201" y="39"/>
      <point x="136" y="103"/>
      <point x="136" y="226" type="curve" smooth="yes"/>
      <point x="136" y="333"/>
      <point x="184" y="393"/>
      <point x="256" y="393" type="curve" smooth="yes"/>
      <point x="331" y="393"/>
      <point x="384" y="317"/>
      <point x="384" y="202" type="curve" smooth="yes"/>
      <point x="384" y="102"/>
      <point x="337" y="39"/>
    </contour>
    <contour>
      <point x="588" y="-8" type="curve" smooth="yes"/>
      <point x="659" y="-8"/>
      <point x="718" y="26"/>
      <point x="756" y="95" type="curve"/>
      <point x="730" y="118" type="line"/>
      <point x="693" y="73"/>
      <point x="658" y="59"/>
      <point x="614" y="59" type="curve" smooth="yes"/>
      <point x="532" y="59"/>
      <point x="472" y="123"/>
      <point x="472" y="228" type="curve" smooth="yes"/>
      <point x="472" y="251" type="line" smooth="yes"/>
      <point x="472" y="340"/>
      <point x="523" y="397"/>
      <point x="583" y="397" type="curve" smooth="yes"/>
      <point x="631" y="397"/>
      <point x="677" y="364"/>
      <point x="677" y="276" type="curve" smooth="yes"/>
      <point x="677" y="255" type="line"/>
      <point x="691" y="269" type="line"/>
      <point x="461" y="269" type="line"/>
      <point x="461" y="224" type="line"/>
      <point x="754" y="224" type="line"/>
      <point x="754" y="241" type="line" smooth="yes"/>
      <point x="754" y="371"/>
      <point x="687" y="437"/>
      <point x="592" y="438" type="curve" smooth="yes"/>
      <point x="472" y="439"/>
      <point x="398" y="334"/>
      <point x="398" y="216" type="curve" smooth="yes"/>
      <point x="398" y="74"/>
      <point x="479" y="-8"/>
    </contour>
    <contour>
      <point x="428" y="0" type="move" name="bottom"/>
    </contour>
    <contour>
      <point x="428" y="430" type="move" name="top"/>
    </contour>
  </outline>
</glyph>
<glyph name="Uogonek" format="1">
  <advance width="728"/>
  <unicode hex="0172"/>
  <note>
    Uogonek
  </note>
  <outline>
    <contour>
      <point x="685" y="661" type="line"/>
      <point x="650" y="659"/>
      <point x="608" y="658"/>
      <point x="575" y="658" type="curve" smooth="yes"/>
      <point x="539" y="658"/>
      <point x="508" y="659"/>
      <point x="473" y="661" type="curve"/>
      <point x="471" y="619" type="line"/>
      <point x="497" y="619"/>
      <point x="532" y="609"/>
      <point x="539" y="605" type="curve"/>
      <point x="543" y="598"/>
      <point x="547" y="572"/>
      <point x="547" y="422" type="curve" smooth="yes"/>
      <point x="547" y="261" type="line" smooth="yes"/>
      <point x="547" y="113"/>
      <point x="481" y="57"/>
      <point x="385" y="57" type="curve" smooth="yes"/>
      <point x="269" y="57"/>
      <point x="208" y="118"/>
      <point x="207" y="252" type="curve" smooth="yes"/>
      <point x="206" y="442" type="line" smooth="yes"/>
      <point x="205" y="572"/>
      <point x="210" y="598"/>
      <point x="214" y="605" type="curve"/>
      <point x="221" y="609"/>
      <point x="256" y="619"/>
      <point x="282" y="619" type="curve"/>
      <point x="280" y="661" type="line"/>
      <point x="245" y="659"/>
      <point x="196" y="658"/>
      <point x="162" y="658" type="curve" smooth="yes"/>
      <point x="129" y="658"/>
      <point x="80" y="659"/>
      <point x="45" y="661" type="curve"/>
      <point x="43" y="619" type="line"/>
      <point x="69" y="619"/>
      <point x="104" y="609"/>
      <point x="111" y="605" type="curve"/>
      <point x="115" y="598"/>
      <point x="119" y="572"/>
      <point x="119" y="442" type="curve" smooth="yes"/>
      <point x="119" y="240" type="line" smooth="yes"/>
      <point x="119" y="82"/>
      <point x="215" y="-10"/>
      <point x="373" y="-10" type="curve" smooth="yes"/>
      <point x="406" y="-10" type="line"/>
      <point x="439" y="19" type="line"/>
      <point x="344" y="-17"/>
      <point x="286" y="-71"/>
      <point x="286" y="-132" type="curve" smooth="yes"/>
      <point x="286" y="-183"/>
      <point x="330" y="-223"/>
      <point x="400" y="-223" type="curve" smooth="yes"/>
      <point x="443" y="-223"/>
      <point x="479" y="-203"/>
      <point x="505" y="-173" type="curve"/>
      <point x="483" y="-146" type="line"/>
      <point x="462" y="-167"/>
      <point x="440" y="-181"/>
      <point x="414" y="-181" type="curve" smooth="yes"/>
      <point x="379" y="-181"/>
      <point x="356" y="-158"/>
      <point x="356" y="-122" type="curve" smooth="yes"/>
      <point x="356" y="-79"/>
      <point x="392" y="-25"/>
      <point x="475" y="9" type="curve" smooth="yes"/>
      <point x="554" y="41"/>
      <point x="611" y="119"/>
      <point x="611" y="260" type="curve" smooth="yes"/>
      <point x="611" y="422" type="line" smooth="yes"/>
      <point x="611" y="572"/>
      <point x="615" y="598"/>
      <point x="619" y="605" type="curve"/>
      <point x="626" y="609"/>
      <point x="674" y="619"/>
      <point x="687" y="619" type="curve"/>
    </contour>
    <contour>
      <point x="377" y="660" type="move" name="top"/>
    </contour>
    <contour>
      <point x="708" y="660" type="move" name="topright"/>
    </contour>
  </outline>
</glyph>
<glyph name="Schwa" format="1">
  <advance width="722"/>
  <unicode hex="018F"/>
  <outline>
    <contour>
      <point x="349" y="670" type="curve" smooth="yes"/>
      <point x="227" y="670"/>
      <point x="117" y="607"/>
      <point x="63" y="504" type="curve"/>
      <point x="100" y="476" type="line"/>
      <point x="151" y="539"/>
      <point x="225" y="573"/>
      <point x="310" y="573" type="curve" smooth="yes"/>
      <point x="463" y="573"/>
      <point x="562" y="470"/>
      <point x="562" y="297" type="curve" smooth="yes"/>
      <point x="562" y="278" type="line" smooth="yes"/>
      <point x="562" y="134"/>
      <point x="486" y="46"/>
      <point x="368" y="46" type="curve" smooth="yes"/>
      <point x="245" y="46"/>
      <point x="174" y="120"/>
      <point x="174" y="240" type="curve" smooth="yes"/>
      <point x="174" y="272" type="line"/>
      <point x="153" y="259" type="line"/>
      <point x="589" y="259" type="line"/>
      <point x="589" y="317" type="line"/>
      <point x="58" y="317" type="line"/>
      <point x="58" y="292" type="line" smooth="yes"/>
      <point x="58" y="108"/>
      <point x="172" y="-9"/>
      <point x="357" y="-10" type="curve" smooth="yes"/>
      <point x="537" y="-11"/>
      <point x="664" y="134"/>
      <point x="664" y="345" type="curve" smooth="yes"/>
      <point x="664" y="538"/>
      <point x="536" y="670"/>
    </contour>
    <contour>
      <point x="361" y="0" type="move" name="bottom"/>
    </contour>
    <contour>
      <point x="361" y="660" type="move" name="top"/>
    </contour>
  </outline>
</glyph>
<glyph name="Ohorn" format="1">
  <advance width="766"/>
  <unicode hex="01A0"/>
  <note>
    Ohorn
  </note>
  <outline>
    <contour>
      <point x="738" y="725" type="curve" smooth="yes"/>
      <point x="738" y="777"/>
      <point x="698" y="793"/>
      <point x="648" y="784" type="curve"/>
      <point x="646" y="733" type="line" smooth="yes"/>
      <point x="644" y="674"/>
      <point x="617" y="653"/>
      <point x="565" y="653" type="curve" smooth="yes"/>
      <point x="514" y="653"/>
      <point x="465" y="670"/>
      <point x="398" y="670" type="curve" smooth="yes"/>
      <point x="200" y="670"/>
      <point x="58" y="525"/>
      <point x="58" y="328" type="curve" smooth="yes"/>
      <point x="58" y="128"/>
      <point x="194" y="-10"/>
      <point x="389" y="-10" type="curve" smooth="yes"/>
      <point x="567" y="-10"/>
      <point x="708" y="142"/>
      <point x="708" y="333" type="curve" smooth="yes"/>
      <point x="708" y="464"/>
      <point x="652" y="569"/>
      <point x="560" y="626" type="curve"/>
      <point x="546" y="608" type="line"/>
      <point x="673" y="587"/>
      <point x="738" y="667"/>
    </contour>
    <contour>
      <point x="401" y="44" type="curve" smooth="yes"/>
      <point x="263" y="44"/>
      <point x="164" y="170"/>
      <point x="164" y="346" type="curve" smooth="yes"/>
      <point x="164" y="514"/>
      <point x="246" y="618"/>
      <point x="380" y="618" type="curve" smooth="yes"/>
      <point x="514" y="618"/>
      <point x="606" y="491"/>
      <point x="606" y="308" type="curve" smooth="yes"/>
      <point x="606" y="148"/>
      <point x="525" y="44"/>
    </contour>
    <contour>
      <point x="383" y="0" type="move" name="bottom"/>
    </contour>
    <contour>
      <point x="383" y="330" type="move" name="center"/>
    </contour>
    <contour>
      <point x="383" y="660" type="move" name="top"/>
    </contour>
    <contour>
      <point x="20" y="660" type="move" name="topleft"/>
    </contour>
  </outline>
</glyph>
<glyph name="uhorn" format="1">
  <advance width="557"/>
  <unicode hex="01B0"/>
  <note>
    uhorn
  </note>
  <outline>
    <contour>
      <point x="395" y="-11" type="line"/>
      <point x="436" y="3"/>
      <point x="478" y="14"/>
      <point x="528" y="21" type="curve"/>
      <point x="528" y="53" type="line"/>
      <point x="510" y="56"/>
      <point x="470" y="65"/>
      <point x="462" y="69" type="curve"/>
      <point x="459" y="77"/>
      <point x="454" y="135"/>
      <point x="454" y="209" type="curve" smooth="yes"/>
      <point x="454" y="413" type="line"/>
      <point x="428" y="393" type="line"/>
      <point x="511" y="403"/>
      <point x="561" y="437"/>
      <point x="561" y="487" type="curve" smooth="yes"/>
      <point x="561" y="524"/>
      <point x="520" y="538"/>
      <point x="476" y="528" type="curve"/>
      <point x="475" y="495" type="line" smooth="yes"/>
      <point x="474" y="454"/>
      <point x="458" y="439"/>
      <point x="425" y="430" type="curve" smooth="yes"/>
      <point x="395" y="422"/>
      <point x="355" y="411"/>
      <point x="309" y="403" type="curve"/>
      <point x="309" y="370" type="line"/>
      <point x="336" y="366"/>
      <point x="355" y="360"/>
      <point x="372" y="353" type="curve"/>
      <point x="374" y="340"/>
      <point x="379" y="291"/>
      <point x="379" y="246" type="curve" smooth="yes"/>
      <point x="379" y="118" type="line"/>
      <point x="351" y="73"/>
      <point x="310" y="56"/>
      <point x="277" y="56" type="curve" smooth="yes"/>
      <point x="217" y="56"/>
      <point x="176" y="88"/>
      <point x="176" y="170" type="curve" smooth="yes"/>
      <point x="176" y="281" type="line" smooth="yes"/>
      <point x="176" y="342"/>
      <point x="178" y="387"/>
      <point x="181" y="421" type="curve"/>
      <point x="166" y="436" type="line"/>
      <point x="118" y="422"/>
      <point x="77" y="411"/>
      <point x="30" y="403" type="curve"/>
      <point x="30" y="370" type="line"/>
      <point x="53" y="366"/>
      <point x="78" y="360"/>
      <point x="93" y="353" type="curve"/>
      <point x="94" y="340"/>
      <point x="98" y="291"/>
      <point x="98" y="245" type="curve" smooth="yes"/>
      <point x="98" y="159" type="line" smooth="yes"/>
      <point x="98" y="47"/>
      <point x="166" y="-8"/>
      <point x="254" y="-8" type="curve" smooth="yes"/>
      <point x="299" y="-8"/>
      <point x="339" y="11"/>
      <point x="378" y="66" type="curve"/>
      <point x="381" y="65" type="line"/>
      <point x="380" y="2" type="line"/>
    </contour>
    <contour>
      <point x="279" y="0" type="move" name="bottom"/>
    </contour>
    <contour>
      <point x="431" y="0" type="move" name="ogonek"/>
    </contour>
    <contour>
      <point x="279" y="430" type="move" name="top"/>
    </contour>
  </outline>
</glyph>
<glyph name="jdotless" format="1">
  <advance width="266"/>
  <unicode hex="0237"/>
  <note>
    uni0237
  </note>
  <outline>
    <contour>
      <point x="14" y="-231" type="line"/>
      <point x="126" y="-178"/>
      <point x="175" y="-99"/>
      <point x="175" y="-13" type="curve"/>
      <point x="174" y="291" type="line"/>
      <point x="174" y="352"/>
      <point x="176" y="387"/>
      <point x="180" y="421" type="curve"/>
      <point x="165" y="436" type="line"/>
      <point x="117" y="422"/>
      <point x="73" y="411"/>
      <point x="25" y="403" type="curve"/>
      <point x="25" y="370" type="line"/>
      <point x="49" y="366"/>
      <point x="73" y="360"/>
      <point x="88" y="353" type="curve"/>
      <point x="91" y="340"/>
      <point x="97" y="301"/>
      <point x="97" y="246" type="curve"/>
      <point x="96" y="-17" type="line" smooth="yes"/>
      <point x="96" y="-108"/>
      <point x="65" y="-157"/>
      <point x="-4" y="-197" type="curve"/>
    </contour>
    <contour>
      <point x="136" y="430" type="move" name="top"/>
    </contour>
  </outline>
</glyph>
<glyph name="apostrophemod" format="1">
  <advance width="600"/>
  <unicode hex="02BC"/>
  <note>
    uni02BB
  </note>
  <outline>
    <contour>
      <point x="259" y="526" type="line"/>
      <point x="332" y="548"/>
      <point x="378" y="599"/>
      <point x="378" y="655" type="curve" smooth="yes"/>
      <point x="378" y="695"/>
      <point x="354" y="720"/>
      <point x="318" y="720" type="curve" smooth="yes"/>
      <point x="292" y="720"/>
      <point x="272" y="703"/>
      <point x="272" y="680" type="curve" smooth="yes"/>
      <point x="272" y="637"/>
      <point x="317" y="642"/>
      <point x="317" y="610" type="curve" smooth="yes"/>
      <point x="317" y="588"/>
      <point x="292" y="565"/>
      <point x="247" y="552" type="curve"/>
    </contour>
    <contour>
      <point x="300" y="430" type="move" name="_top"/>
    </contour>
    <contour>
      <point x="300" y="668" type="move" name="top"/>
    </contour>
  </outline>
</glyph>
<glyph name="ringhalfright" format="1">
  <advance width="600"/>
  <unicode hex="02BE"/>
  <outline>
    <contour>
      <point x="300" y="493" type="line"/>
      <point x="356" y="493"/>
      <point x="400" y="535"/>
      <point x="400" y="589" type="curve" smooth="yes"/>
      <point x="400" y="643"/>
      <point x="356" y="685"/>
      <point x="300" y="685" type="curve"/>
      <point x="300" y="653" type="line"/>
      <point x="333" y="653"/>
      <point x="359" y="627"/>
      <point x="359" y="590" type="curve" smooth="yes"/>
      <point x="359" y="554"/>
      <point x="333" y="527"/>
      <point x="300" y="527" type="curve"/>
    </contour>
    <contour>
      <point x="300" y="430" type="move" name="_top"/>
    </contour>
    <contour>
      <point x="300" y="687" type="move" name="top"/>
    </contour>
  </outline>
</glyph>
<glyph name="tildecomb" format="1">
  <advance width="600"/>
  <unicode hex="0303"/>
  <note>
    tildecomb
  </note>
  <outline>
    <contour>
      <point x="438" y="633" type="line"/>
      <point x="421" y="603"/>
      <point x="405" y="584"/>
      <point x="378" y="584" type="curve" smooth="yes"/>
      <point x="335" y="584"/>
      <point x="281" y="639"/>
      <point x="231" y="639" type="curve" smooth="yes"/>
      <point x="186" y="639"/>
      <point x="149" y="601"/>
      <point x="129" y="542" type="curve"/>
      <point x="162" y="524" type="line"/>
      <point x="179" y="554"/>
      <point x="194" y="573"/>
      <point x="223" y="573" type="curve" smooth="yes"/>
      <point x="265" y="573"/>
      <point x="319" y="518"/>
      <point x="369" y="518" type="curve" smooth="yes"/>
      <point x="414" y="518"/>
      <point x="451" y="556"/>
      <point x="471" y="615" type="curve"/>
    </contour>
    <contour>
      <point x="300" y="430" type="move" name="_top"/>
    </contour>
    <contour>
      <point x="300" y="687" type="move" name="top"/>
    </contour>
  </outline>
</glyph>
<glyph name="hookabovecomb" format="1">
  <advance width="600"/>
  <unicode hex="0309"/>
  <note>
    hookabovecomb
  </note>
  <outline>
    <contour>
      <point x="303" y="668" type="curve" smooth="yes"/>
      <point x="247" y="668"/>
      <point x="210" y="643"/>
      <point x="210" y="617" type="curve" smooth="yes"/>
      <point x="210" y="602"/>
      <point x="220" y="592"/>
      <point x="236" y="592" type="curve" smooth="yes"/>
      <point x="251" y="592"/>
      <point x="257" y="597"/>
      <point x="273" y="612" type="curve" smooth="yes"/>
      <point x="308" y="646" type="line"/>
      <point x="272" y="637" type="line"/>
      <point x="303" y="645"/>
      <point x="329" y="642"/>
      <point x="329" y="609" type="curve" smooth="yes"/>
      <point x="329" y="581"/>
      <point x="284" y="563"/>
      <point x="284" y="508" type="curve" smooth="yes"/>
      <point x="284" y="491" type="line"/>
      <point x="317" y="491" type="line"/>
      <point x="317" y="550"/>
      <point x="397" y="540"/>
      <point x="397" y="605" type="curve" smooth="yes"/>
      <point x="397" y="644"/>
      <point x="359" y="668"/>
    </contour>
    <contour>
      <point x="300" y="430" type="move" name="_top"/>
    </contour>
    <contour>
      <point x="300" y="687" type="move" name="top"/>
    </contour>
  </outline>
</glyph>
<glyph name="hungarumlautcomb" format="1">
  <advance width="600"/>
  <unicode hex="030B"/>
  <note>
    uni030B
  </note>
  <outline>
    <contour>
      <point x="255" y="482" type="line"/>
      <point x="359" y="662" type="line"/>
      <point x="288" y="677" type="line"/>
      <point x="221" y="495" type="line"/>
    </contour>
    <contour>
      <point x="379" y="482" type="line"/>
      <point x="483" y="662" type="line"/>
      <point x="412" y="677" type="line"/>
      <point x="345" y="495" type="line"/>
    </contour>
    <contour>
      <point x="300" y="430" type="move" name="_top"/>
    </contour>
    <contour>
      <point x="300" y="687" type="move" name="top"/>
    </contour>
  </outline>
</glyph>
<glyph name="caroncomb" format="1">
  <advance width="600"/>
  <unicode hex="030C"/>
  <note>
    uni030C
  </note>
  <outline>
    <contour>
      <point x="440" y="663" type="line"/>
      <point x="400" y="677" type="line"/>
      <point x="272" y="526" type="line"/>
      <point x="332" y="526" type="line"/>
      <point x="200" y="677" type="line"/>
      <point x="160" y="663" type="line"/>
      <point x="263" y="496" type="line"/>
      <point x="337" y="496" type="line"/>
    </contour>
    <contour>
      <point x="300" y="430" type="move" name="_top"/>
    </contour>
    <contour>
      <point x="300" y="687" type="move" name="top"/>
    </contour>
  </outline>
</glyph>
<glyph name="dblgravecomb" format="1">
  <advance width="600"/>
  <unicode hex="030F"/>
  <outline>
    <contour>
      <point x="345" y="482" type="line"/>
      <point x="379" y="495" type="line"/>
      <point x="312" y="677" type="line"/>
      <point x="241" y="662" type="line"/>
    </contour>
    <contour>
      <point x="221" y="482" type="line"/>
      <point x="255" y="495" type="line"/>
      <point x="188" y="677" type="line"/>
      <point x="117" y="662" type="line"/>
    </contour>
    <contour>
      <point x="300" y="430" type="move" name="_top"/>
    </contour>
    <contour>
      <point x="300" y="687" type="move" name="top"/>
    </contour>
  </outline>
</glyph>
<glyph name="commaturnedabovecomb" format="1">
  <advance width="600"/>
  <unicode hex="0312"/>
  <note>
    uni02BB
  </note>
  <outline>
    <contour>
      <point x="366" y="687" type="line"/>
      <point x="293" y="665"/>
      <point x="247" y="614"/>
      <point x="247" y="558" type="curve" smooth="yes"/>
      <point x="247" y="518"/>
      <point x="271" y="493"/>
      <point x="307" y="493" type="curve" smooth="yes"/>
      <point x="333" y="493"/>
      <point x="353" y="510"/>
      <point x="353" y="533" type="curve" smooth="yes"/>
      <point x="353" y="576"/>
      <point x="308" y="571"/>
      <point x="308" y="603" type="curve" smooth="yes"/>
      <point x="308" y="625"/>
      <point x="333" y="648"/>
      <point x="378" y="661" type="curve"/>
    </contour>
    <contour>
      <point x="300" y="430" type="move" name="_top"/>
    </contour>
    <contour>
      <point x="300" y="668" type="move" name="top"/>
    </contour>
  </outline>
</glyph>
<glyph name="dotbelowcomb" format="1">
  <advance width="600"/>
  <unicode hex="0323"/>
  <note>
    uni0323
  </note>
  <outline>
    <contour>
      <point x="301" y="-200" type="curve" smooth="yes"/>
      <point x="331" y="-200"/>
      <point x="354" y="-178"/>
      <point x="354" y="-148" type="curve" smooth="yes"/>
      <point x="354" y="-119"/>
      <point x="331" y="-96"/>
      <point x="301" y="-96" type="curve" smooth="yes"/>
      <point x="270" y="-96"/>
      <point x="246" y="-119"/>
      <point x="246" y="-148" type="curve" smooth="yes"/>
      <point x="246" y="-178"/>
      <point x="270" y="-200"/>
    </contour>
    <contour>
      <point x="300" y="0" type="move" name="_bottom"/>
    </contour>
    <contour>
      <point x="300" y="-220" type="move" name="bottom"/>
    </contour>
  </outline>
</glyph>
<glyph name="strokeshortcomb" format="1">
  <advance width="600"/>
  <unicode hex="0335"/>
  <outline>
    <contour>
      <point x="88" y="386" type="line"/>
      <point x="428" y="386" type="line"/>
      <point x="428" y="426" type="line"/>
      <point x="88" y="426" type="line"/>
    </contour>
    <contour>
      <point x="258" y="406" type="move" name="_stroke"/>
    </contour>
  </outline>
</glyph>
<glyph name="slashlongcomb" format="1">
  <advance width="600"/>
  <unicode hex="0338"/>
  <outline>
    <contour>
      <point x="148" y="-64" type="line"/>
      <point x="491" y="470" type="line"/>
      <point x="452" y="494" type="line"/>
      <point x="109" y="-40" type="line"/>
    </contour>
    <contour>
      <point x="300" y="215" type="move" name="_center"/>
    </contour>
  </outline>
</glyph>
<glyph name="Delta" format="1">
  <advance width="634"/>
  <unicode hex="0394"/>
  <note>
    uni2206
  </note>
  <outline>
    <contour>
      <point x="25" y="0" type="line"/>
      <point x="609" y="0" type="line"/>
      <point x="320" y="682" type="line"/>
    </contour>
    <contour>
      <point x="97" y="24" type="line"/>
      <point x="333" y="576" type="line"/>
      <point x="283" y="536" type="line"/>
      <point x="497" y="24" type="line"/>
      <point x="524" y="65" type="line"/>
      <point x="74" y="65" type="line"/>
    </contour>
  </outline>
</glyph>
<glyph name="Sigma" format="1">
  <advance width="562"/>
  <unicode hex="03A3"/>
  <note>
    summation
  </note>
  <outline>
    <contour>
      <point x="469" y="187" type="line"/>
      <point x="465" y="148"/>
      <point x="460" y="109"/>
      <point x="455" y="82" type="curve"/>
      <point x="436" y="79"/>
      <point x="414" y="78"/>
      <point x="384" y="78" type="curve" smooth="yes"/>
      <point x="91" y="78" type="line"/>
      <point x="92" y="17" type="line"/>
      <point x="330" y="339" type="line"/>
      <point x="127" y="643" type="line"/>
      <point x="123" y="609" type="line"/>
      <point x="381" y="609" type="line" smooth="yes"/>
      <point x="411" y="609"/>
      <point x="433" y="608"/>
      <point x="452" y="605" type="curve"/>
      <point x="457" y="578"/>
      <point x="462" y="539"/>
      <point x="466" y="492" type="curve"/>
      <point x="510" y="492" type="line"/>
      <point x="511" y="661" type="line"/>
      <point x="478" y="660"/>
      <point x="448" y="660"/>
      <point x="421" y="660" type="curve" smooth="yes"/>
      <point x="115" y="660" type="line" smooth="yes"/>
      <point x="87" y="660"/>
      <point x="58" y="661"/>
      <point x="30" y="662" type="curve"/>
      <point x="30" y="627" type="line"/>
      <point x="261" y="283" type="line"/>
      <point x="263" y="343" type="line"/>
      <point x="35" y="33" type="line"/>
      <point x="35" y="-2" type="line"/>
      <point x="63" y="-1"/>
      <point x="92" y="0"/>
      <point x="120" y="0" type="curve" smooth="yes"/>
      <point x="423" y="0" type="line" smooth="yes"/>
      <point x="450" y="0"/>
      <point x="480" y="0"/>
      <point x="513" y="-1" type="curve"/>
      <point x="512" y="187" type="line"/>
    </contour>
  </outline>
</glyph>
<glyph name="Omega" format="1">
  <advance width="752"/>
  <unicode hex="03A9"/>
  <outline>
    <contour>
      <point x="50" y="-5" type="line"/>
      <point x="75" y="-1"/>
      <point x="98" y="0"/>
      <point x="147" y="0" type="curve" smooth="yes"/>
      <point x="314" y="0" type="line"/>
      <point x="317" y="44" type="line"/>
      <point x="226" y="121"/>
      <point x="170" y="240"/>
      <point x="170" y="355" type="curve" smooth="yes"/>
      <point x="170" y="517"/>
      <point x="250" y="619"/>
      <point x="376" y="619" type="curve" smooth="yes"/>
      <point x="502" y="619"/>
      <point x="582" y="517"/>
      <point x="582" y="355" type="curve" smooth="yes"/>
      <point x="582" y="240"/>
      <point x="526" y="121"/>
      <point x="435" y="44" type="curve"/>
      <point x="438" y="0" type="line"/>
      <point x="605" y="0" type="line" smooth="yes"/>
      <point x="654" y="0"/>
      <point x="677" y="-1"/>
      <point x="702" y="-5" type="curve"/>
      <point x="747" y="157" type="line"/>
      <point x="699" y="167" type="line"/>
      <point x="672" y="108"/>
      <point x="654" y="73"/>
      <point x="642" y="57" type="curve"/>
      <point x="620" y="54"/>
      <point x="599" y="53"/>
      <point x="561" y="53" type="curve" smooth="yes"/>
      <point x="486" y="53" type="line"/>
      <point x="488" y="35" type="line"/>
      <point x="610" y="119"/>
      <point x="688" y="247"/>
      <point x="688" y="365" type="curve" smooth="yes"/>
      <point x="688" y="542"/>
      <point x="557" y="670"/>
      <point x="376" y="670" type="curve" smooth="yes"/>
      <point x="195" y="670"/>
      <point x="64" y="542"/>
      <point x="64" y="365" type="curve" smooth="yes"/>
      <point x="64" y="247"/>
      <point x="142" y="119"/>
      <point x="265" y="35" type="curve"/>
      <point x="267" y="53" type="line"/>
      <point x="191" y="53" type="line" smooth="yes"/>
      <point x="153" y="53"/>
      <point x="132" y="54"/>
      <point x="110" y="57" type="curve"/>
      <point x="98" y="73"/>
      <point x="80" y="108"/>
      <point x="53" y="167" type="curve"/>
      <point x="5" y="157" type="line"/>
    </contour>
  </outline>
</glyph>
<glyph name="mu" format="1">
  <advance width="557"/>
  <unicode hex="03BC"/>
  <outline>
    <contour>
      <point x="462" y="69" type="curve"/>
      <point x="459" y="77"/>
      <point x="454" y="135"/>
      <point x="454" y="209" type="curve" smooth="yes"/>
      <point x="454" y="281" type="line" smooth="yes"/>
      <point x="454" y="352"/>
      <point x="455" y="387"/>
      <point x="456" y="421" type="curve"/>
      <point x="441" y="436" type="line"/>
      <point x="398" y="422"/>
      <point x="360" y="411"/>
      <point x="309" y="403" type="curve"/>
      <point x="309" y="370" type="line"/>
      <point x="336" y="366"/>
      <point x="355" y="360"/>
      <point x="372" y="353" type="curve"/>
      <point x="374" y="340"/>
      <point x="379" y="291"/>
      <point x="379" y="246" type="curve" smooth="yes"/>
      <point x="379" y="118" type="line"/>
      <point x="351" y="73"/>
      <point x="310" y="56"/>
      <point x="277" y="56" type="curve" smooth="yes"/>
      <point x="217" y="56"/>
      <point x="176" y="88"/>
      <point x="176" y="170" type="curve" smooth="yes"/>
      <point x="176" y="281" type="line" smooth="yes"/>
      <point x="176" y="342"/>
      <point x="178" y="387"/>
      <point x="181" y="421" type="curve"/>
      <point x="166" y="436" type="line"/>
      <point x="118" y="422"/>
      <point x="77" y="411"/>
      <point x="30" y="403" type="curve"/>
      <point x="30" y="370" type="line"/>
      <point x="53" y="366"/>
      <point x="78" y="360"/>
      <point x="93" y="353" type="curve"/>
      <point x="94" y="340"/>
      <point x="98" y="291"/>
      <point x="98" y="225" type="curve"/>
      <point x="98" y="99"/>
      <point x="85" y="-38"/>
      <point x="85" y="-153" type="curve" smooth="yes"/>
      <point x="85" y="-202"/>
      <point x="105" y="-228"/>
      <point x="136" y="-228" type="curve" smooth="yes"/>
      <point x="167" y="-228"/>
      <point x="187" y="-203"/>
      <point x="187" y="-164" type="curve" smooth="yes"/>
      <point x="187" y="-108"/>
      <point x="168" y="-29"/>
      <point x="157" y="79" type="curve"/>
      <point x="143" y="74" type="line"/>
      <point x="170" y="6"/>
      <point x="210" y="-8"/>
      <point x="254" y="-8" type="curve" smooth="yes"/>
      <point x="299" y="-8"/>
      <point x="339" y="11"/>
      <point x="378" y="66" type="curve"/>
      <point x="381" y="65" type="line"/>
      <point x="380" y="2" type="line"/>
      <point x="395" y="-11" type="line"/>
      <point x="436" y="3"/>
      <point x="478" y="14"/>
      <point x="528" y="21" type="curve"/>
      <point x="528" y="53" type="line"/>
      <point x="510" y="56"/>
      <point x="470" y="65"/>
    </contour>
  </outline>
</glyph>
<glyph name="pi" format="1">
  <advance width="637"/>
  <unicode hex="03C0"/>
  <outline>
    <contour>
      <point x="491" y="-11" type="curve" smooth="yes"/>
      <point x="545" y="-11"/>
      <point x="582" y="19"/>
      <point x="609" y="69" type="curve"/>
      <point x="586" y="89" type="line"/>
      <point x="560" y="58"/>
      <point x="538" y="47"/>
      <point x="513" y="47" type="curve" smooth="yes"/>
      <point x="477" y="47"/>
      <point x="453" y="68"/>
      <point x="454" y="120" type="curve" smooth="yes"/>
      <point x="462" y="411" type="line"/>
      <point x="385" y="410" type="line"/>
      <point x="374" y="118" type="line" smooth="yes"/>
      <point x="371" y="33"/>
      <point x="425" y="-11"/>
    </contour>
    <contour>
      <point x="102" y="-10" type="curve" smooth="yes"/>
      <point x="182" y="-10"/>
      <point x="223" y="64"/>
      <point x="233" y="182" type="curve" smooth="yes"/>
      <point x="252" y="416" type="line"/>
      <point x="189" y="416" type="line"/>
      <point x="169" y="150" type="line" smooth="yes"/>
      <point x="163" y="76"/>
      <point x="145" y="22"/>
      <point x="101" y="22" type="curve"/>
      <point x="129" y="17" type="line"/>
      <point x="89" y="61" type="line" smooth="yes"/>
      <point x="74" y="77"/>
      <point x="65" y="83"/>
      <point x="48" y="83" type="curve" smooth="yes"/>
      <point x="31" y="83"/>
      <point x="16" y="71"/>
      <point x="16" y="52" type="curve" smooth="yes"/>
      <point x="16" y="17"/>
      <point x="51" y="-10"/>
    </contour>
    <contour>
      <point x="70" y="354" type="line"/>
      <point x="106" y="375"/>
      <point x="143" y="384"/>
      <point x="192" y="384" type="curve" smooth="yes"/>
      <point x="472" y="384" type="line" smooth="yes"/>
      <point x="527" y="384"/>
      <point x="543" y="384"/>
      <point x="563" y="383" type="curve"/>
      <point x="567" y="421"/>
      <point x="574" y="461"/>
      <point x="580" y="504" type="curve"/>
      <point x="533" y="504" type="line"/>
      <point x="525" y="475"/>
      <point x="517" y="451"/>
      <point x="509" y="434" type="curve"/>
      <point x="491" y="431"/>
      <point x="471" y="430"/>
      <point x="446" y="430" type="curve" smooth="yes"/>
      <point x="226" y="430" type="line" smooth="yes"/>
      <point x="150" y="430"/>
      <point x="90" y="420"/>
      <point x="53" y="401" type="curve"/>
    </contour>
  </outline>
</glyph>
<glyph name="emdash" format="1">
  <advance width="1000"/>
  <unicode hex="2014"/>
  <note>
    emdash
  </note>
  <outline>
    <contour>
      <point x="0" y="195" type="line"/>
      <point x="1000" y="195" type="line"/>
      <point x="1000" y="245" type="line"/>
      <point x="0" y="245" type="line"/>
    </contour>
  </outline>
</glyph>
<glyph name="quoteleft" format="1">
  <advance width="244"/>
  <unicode hex="2018"/>
  <note>
    quoteleft
  </note>
  <outline>
    <contour>
      <point x="196" y="698" type="line"/>
      <point x="114" y="666"/>
      <point x="55" y="581"/>
      <point x="55" y="501" type="curve" smooth="yes"/>
      <point x="55" y="439"/>
      <point x="88" y="410"/>
      <point x="123" y="410" type="curve" smooth="yes"/>
      <point x="158" y="410"/>
      <point x="182" y="435"/>
      <point x="182" y="464" type="curve" smooth="yes"/>
      <point x="182" y="518"/>
      <point x="128" y="515"/>
      <point x="128" y="566" type="curve" smooth="yes"/>
      <point x="128" y="611"/>
      <point x="158" y="645"/>
      <point x="211" y="669" type="curve"/>
    </contour>
  </outline>
</glyph>
<glyph name="quotesinglbase" format="1">
  <advance width="244"/>
  <unicode hex="201A"/>
  <note>
    quotesinglbase
  </note>
  <outline>
    <contour>
      <point x="48" y="-176" type="line"/>
      <point x="130" y="-144"/>
      <point x="189" y="-59"/>
      <point x="189" y="21" type="curve" smooth="yes"/>
      <point x="189" y="83"/>
      <point x="156" y="112"/>
      <point x="121" y="112" type="curve" smooth="yes"/>
      <point x="86" y="112"/>
      <point x="62" y="87"/>
      <point x="62" y="58" type="curve" smooth="yes"/>
      <point x="62" y="4"/>
      <point x="116" y="7"/>
      <point x="116" y="-44" type="curve" smooth="yes"/>
      <point x="116" y="-89"/>
      <point x="86" y="-123"/>
      <point x="33" y="-147" type="curve"/>
    </contour>
  </outline>
</glyph>
<glyph name="bullet" format="1">
  <advance width="420"/>
  <unicode hex="2022"/>
  <note>
    bullet
  </note>
  <outline>
    <contour>
      <point x="210" y="60" type="curve" smooth="yes"/>
      <point x="296" y="60"/>
      <point x="365" y="126"/>
      <point x="365" y="211" type="curve" smooth="yes"/>
      <point x="365" y="298"/>
      <point x="296" y="367"/>
      <point x="210" y="367" type="curve" smooth="yes"/>
      <point x="125" y="367"/>
      <point x="55" y="298"/>
      <point x="55" y="211" type="curve" smooth="yes"/>
      <point x="55" y="126"/>
      <point x="125" y="60"/>
    </contour>
  </outline>
</glyph>
<glyph name="perthousand" format="1">
  <advance width="1261"/>
  <unicode hex="2030"/>
  <note>
    perthousand
  </note>
  <outline>
    <contour>
      <point x="1034" y="-8" type="curve" smooth="yes"/>
      <point x="1131" y="-8"/>
      <point x="1213" y="67"/>
      <point x="1213" y="165" type="curve" smooth="yes"/>
      <point x="1213" y="267"/>
      <point x="1135" y="338"/>
      <point x="1034" y="338" type="curve" smooth="yes"/>
      <point x="938" y="338"/>
      <point x="855" y="262"/>
      <point x="855" y="165" type="curve" smooth="yes"/>
      <point x="855" y="63"/>
      <point x="931" y="-8"/>
    </contour>
    <contour>
      <point x="1034" y="50" type="curve" smooth="yes"/>
      <point x="973" y="50"/>
      <point x="928" y="98"/>
      <point x="928" y="166" type="curve" smooth="yes"/>
      <point x="928" y="234"/>
      <point x="973" y="282"/>
      <point x="1034" y="282" type="curve" smooth="yes"/>
      <point x="1095" y="282"/>
      <point x="1143" y="235"/>
      <point x="1143" y="166" type="curve" smooth="yes"/>
      <point x="1143" y="97"/>
      <point x="1095" y="50"/>
    </contour>
    <component base="percent"/>
  </outline>
</glyph>
<glyph name="lira" format="1">
  <advance width="558"/>
  <unicode hex="20A4"/>
  <note>
    lira
  </note>
  <outline>
    <contour>
      <point x="82" y="-8" type="line"/>
      <point x="118" y="2"/>
      <point x="157" y="12"/>
      <point x="213" y="12" type="curve" smooth="yes"/>
      <point x="289" y="12"/>
      <point x="356" y="-8"/>
      <point x="403" y="-8" type="curve" smooth="yes"/>
      <point x="472" y="-8"/>
      <point x="519" y="14"/>
      <point x="558" y="114" type="curve"/>
      <point x="520" y="132" type="line"/>
      <point x="500" y="82"/>
      <point x="462" y="65"/>
      <point x="429" y="65" type="curve" smooth="yes"/>
      <point x="397" y="65"/>
      <point x="346" y="80"/>
      <point x="314" y="80" type="curve" smooth="yes"/>
      <point x="257" y="80"/>
      <point x="230" y="72"/>
      <point x="154" y="44" type="curve"/>
      <point x="146" y="33" type="line"/>
      <point x="227" y="66"/>
      <point x="266" y="137"/>
      <point x="266" y="210" type="curve" smooth="yes"/>
      <point x="266" y="317"/>
      <point x="210" y="418"/>
      <point x="210" y="517" type="curve" smooth="yes"/>
      <point x="210" y="609"/>
      <point x="284" y="633"/>
      <point x="383" y="619" type="curve"/>
      <point x="329" y="641" type="line"/>
      <point x="394" y="577" type="line" smooth="yes"/>
      <point x="418" y="553"/>
      <point x="433" y="545"/>
      <point x="455" y="545" type="curve" smooth="yes"/>
      <point x="482" y="545"/>
      <point x="498" y="561"/>
      <point x="498" y="586" type="curve" smooth="yes"/>
      <point x="498" y="633"/>
      <point x="431" y="670"/>
      <point x="340" y="670" type="curve" smooth="yes"/>
      <point x="213" y="670"/>
      <point x="112" y="595"/>
      <point x="112" y="490" type="curve" smooth="yes"/>
      <point x="112" y="375"/>
      <point x="188" y="282"/>
      <point x="188" y="168" type="curve" smooth="yes"/>
      <point x="188" y="92"/>
      <point x="156" y="57"/>
      <point x="68" y="36" type="curve"/>
    </contour>
    <contour>
      <point x="50" y="380" type="line"/>
      <point x="425" y="380" type="line"/>
      <point x="425" y="426" type="line"/>
      <point x="50" y="426" type="line"/>
    </contour>
    <contour>
      <point x="50" y="244" type="line"/>
      <point x="425" y="244" type="line"/>
      <point x="425" y="290" type="line"/>
      <point x="50" y="290" type="line"/>
    </contour>
  </outline>
</glyph>
<glyph name="naira" format="1">
  <advance width="754"/>
  <unicode hex="20A6"/>
  <outline>
    <contour>
      <point x="565" y="150" type="line"/>
      <point x="580" y="150" type="line"/>
      <point x="209" y="661" type="line"/>
      <point x="190" y="660"/>
      <point x="162" y="658"/>
      <point x="137" y="658" type="curve" smooth="yes"/>
      <point x="112" y="658"/>
      <point x="92" y="658"/>
      <point x="57" y="659" type="curve"/>
      <point x="55" y="617" type="line"/>
      <point x="81" y="618"/>
      <point x="116" y="609"/>
      <point x="123" y="605" type="curve"/>
      <point x="128" y="588"/>
      <point x="131" y="572"/>
      <point x="131" y="442" type="curve" smooth="yes"/>
      <point x="131" y="237" type="line" smooth="yes"/>
      <point x="131" y="107"/>
      <point x="127" y="61"/>
      <point x="123" y="54" type="curve"/>
      <point x="116" y="50"/>
      <point x="79" y="40"/>
      <point x="50" y="39" type="curve"/>
      <point x="52" y="-3" type="line"/>
      <point x="90" y="0"/>
      <point x="125" y="2"/>
      <point x="156" y="2" type="curve" smooth="yes"/>
      <point x="187" y="2"/>
      <point x="232" y="0"/>
      <point x="270" y="-3" type="curve"/>
      <point x="272" y="39" type="line"/>
      <point x="243" y="40"/>
      <point x="206" y="50"/>
      <point x="199" y="54" type="curve"/>
      <point x="195" y="61"/>
      <point x="191" y="107"/>
      <point x="191" y="237" type="curve" smooth="yes"/>
      <point x="191" y="558" type="line"/>
      <point x="172" y="558" type="line"/>
      <point x="578" y="-4" type="line"/>
      <point x="624" y="-4" type="line"/>
      <point x="624" y="48"/>
      <point x="623" y="98"/>
      <point x="623" y="139" type="curve" smooth="yes"/>
      <point x="623" y="423" type="line" smooth="yes"/>
      <point x="623" y="553"/>
      <point x="627" y="599"/>
      <point x="631" y="606" type="curve"/>
      <point x="638" y="610"/>
      <point x="675" y="619"/>
      <point x="704" y="619" type="curve"/>
      <point x="702" y="661" type="line"/>
      <point x="664" y="659"/>
      <point x="629" y="658"/>
      <point x="597" y="658" type="curve" smooth="yes"/>
      <point x="567" y="658"/>
      <point x="524" y="659"/>
      <point x="486" y="661" type="curve"/>
      <point x="484" y="619" type="line"/>
      <point x="513" y="619"/>
      <point x="550" y="610"/>
      <point x="557" y="606" type="curve"/>
      <point x="561" y="599"/>
      <point x="565" y="553"/>
      <point x="565" y="423" type="curve" smooth="yes"/>
    </contour>
    <contour>
      <point x="32" y="317" type="line"/>
      <point x="722" y="317" type="line"/>
      <point x="722" y="363" type="line"/>
      <point x="32" y="363" type="line"/>
    </contour>
  </outline>
</glyph>
<glyph name="kip" format="1">
  <advance width="641"/>
  <unicode hex="20AD"/>
  <outline>
    <contour>
      <point x="407" y="-3" type="line"/>
      <point x="442" y="0"/>
      <point x="489" y="2"/>
      <point x="521" y="2" type="curve" smooth="yes"/>
      <point x="556" y="2"/>
      <point x="602" y="1"/>
      <point x="655" y="-2" type="curve"/>
      <point x="655" y="39" type="line"/>
      <point x="629" y="44"/>
      <point x="614" y="47"/>
      <point x="593" y="55" type="curve"/>
      <point x="575" y="70"/>
      <point x="547" y="99"/>
      <point x="515" y="136" type="curve" smooth="yes"/>
      <point x="338" y="340" type="line"/>
      <point x="306" y="340" type="line"/>
      <point x="573" y="607" type="line"/>
      <point x="593" y="612"/>
      <point x="620" y="617"/>
      <point x="637" y="619" type="curve"/>
      <point x="635" y="661" type="line"/>
      <point x="607" y="660"/>
      <point x="566" y="659"/>
      <point x="537" y="659" type="curve" smooth="yes"/>
      <point x="508" y="659"/>
      <point x="455" y="659"/>
      <point x="422" y="660" type="curve"/>
      <point x="421" y="618" type="line"/>
      <point x="443" y="616"/>
      <point x="469" y="611"/>
      <point x="491" y="606" type="curve"/>
      <point x="232" y="330" type="line"/>
      <point x="427" y="106" type="line" smooth="yes"/>
      <point x="447" y="84"/>
      <point x="463" y="64"/>
      <point x="472" y="51" type="curve"/>
      <point x="464" y="48"/>
      <point x="430" y="41"/>
      <point x="404" y="39" type="curve"/>
    </contour>
    <contour>
      <point x="49" y="-3" type="line"/>
      <point x="83" y="0"/>
      <point x="131" y="2"/>
      <point x="164" y="2" type="curve" smooth="yes"/>
      <point x="197" y="2"/>
      <point x="246" y="0"/>
      <point x="281" y="-3" type="curve"/>
      <point x="283" y="39" type="line"/>
      <point x="257" y="41"/>
      <point x="221" y="50"/>
      <point x="213" y="54" type="curve"/>
      <point x="210" y="61"/>
      <point x="207" y="87"/>
      <point x="207" y="217" type="curve" smooth="yes"/>
      <point x="207" y="442" type="line" smooth="yes"/>
      <point x="207" y="572"/>
      <point x="211" y="598"/>
      <point x="215" y="605" type="curve"/>
      <point x="222" y="609"/>
      <point x="257" y="618"/>
      <point x="283" y="618" type="curve"/>
      <point x="281" y="660" type="line"/>
      <point x="246" y="658"/>
      <point x="197" y="657"/>
      <point x="164" y="657" type="curve" smooth="yes"/>
      <point x="131" y="657"/>
      <point x="82" y="658"/>
      <point x="47" y="660" type="curve"/>
      <point x="45" y="618" type="line"/>
      <point x="71" y="618"/>
      <point x="106" y="609"/>
      <point x="113" y="605" type="curve"/>
      <point x="117" y="598"/>
      <point x="121" y="572"/>
      <point x="121" y="442" type="curve" smooth="yes"/>
      <point x="121" y="217" type="line" smooth="yes"/>
      <point x="121" y="87"/>
      <point x="117" y="61"/>
      <point x="113" y="54" type="curve"/>
      <point x="106" y="50"/>
      <point x="72" y="40"/>
      <point x="47" y="39" type="curve"/>
    </contour>
    <contour>
      <point x="22" y="317" type="line"/>
      <point x="553" y="317" type="line"/>
      <point x="553" y="363" type="line"/>
      <point x="22" y="363" type="line"/>
    </contour>
  </outline>
</glyph>
<glyph name="cedi" format="1">
  <advance width="675"/>
  <unicode hex="20B5"/>
  <outline>
    <contour>
      <point x="412" y="-10" type="curve" smooth="yes"/>
      <point x="487" y="-10"/>
      <point x="558" y="10"/>
      <point x="611" y="37" type="curve"/>
      <point x="623" y="81"/>
      <point x="634" y="130"/>
      <point x="642" y="176" type="curve"/>
      <point x="594" y="181" type="line"/>
      <point x="575" y="135"/>
      <point x="561" y="106"/>
      <point x="543" y="74" type="curve"/>
      <point x="507" y="54"/>
      <point x="470" y="44"/>
      <point x="420" y="44" type="curve" smooth="yes"/>
      <point x="280" y="44"/>
      <point x="167" y="147"/>
      <point x="167" y="341" type="curve" smooth="yes"/>
      <point x="167" y="488"/>
      <point x="239" y="618"/>
      <point x="415" y="618" type="curve" smooth="yes"/>
      <point x="458" y="618"/>
      <point x="514" y="607"/>
      <point x="542" y="586" type="curve"/>
      <point x="556" y="553"/>
      <point x="566" y="518"/>
      <point x="575" y="483" type="curve"/>
      <point x="622" y="487" type="line"/>
      <point x="614" y="636" type="line"/>
      <point x="560" y="658"/>
      <point x="484" y="670"/>
      <point x="424" y="670" type="curve" smooth="yes"/>
      <point x="190" y="670"/>
      <point x="60" y="505"/>
      <point x="60" y="326" type="curve" smooth="yes"/>
      <point x="60" y="101"/>
      <point x="221" y="-10"/>
    </contour>
    <contour>
      <point x="365" y="-130" type="line"/>
      <point x="413" y="-130" type="line"/>
      <point x="413" y="790" type="line"/>
      <point x="365" y="790" type="line"/>
    </contour>
  </outline>
</glyph>
<glyph name="rupeeIndian" format="1">
  <advance width="570"/>
  <unicode hex="20B9"/>
  <outline>
    <contour>
      <point x="455" y="-11" type="curve" smooth="yes"/>
      <point x="468" y="-11"/>
      <point x="486" y="-9"/>
      <point x="500" y="-7" type="curve"/>
      <point x="501" y="30" type="line"/>
      <point x="442" y="37"/>
      <point x="410" y="53"/>
      <point x="322" y="169" type="curve" smooth="yes"/>
      <point x="190" y="345" type="line"/>
      <point x="113" y="329" type="line"/>
      <point x="199" y="189" type="line" smooth="yes"/>
      <point x="293" y="34"/>
      <point x="352" y="-11"/>
    </contour>
    <contour>
      <point x="207" y="643" type="curve"/>
      <point x="190" y="614" type="line"/>
      <point x="273" y="614"/>
      <point x="323" y="573"/>
      <point x="323" y="487" type="curve" smooth="yes"/>
      <point x="323" y="405"/>
      <point x="267" y="354"/>
      <point x="170" y="354" type="curve" smooth="yes"/>
      <point x="75" y="354" type="line"/>
      <point x="75" y="308" type="line"/>
      <point x="176" y="308" type="line" smooth="yes"/>
      <point x="314" y="308"/>
      <point x="413" y="384"/>
      <point x="413" y="491" type="curve" smooth="yes"/>
      <point x="413" y="587"/>
      <point x="344" y="643"/>
    </contour>
    <contour>
      <point x="75" y="478" type="line"/>
      <point x="500" y="478" type="line"/>
      <point x="500" y="524" type="line"/>
      <point x="75" y="524" type="line"/>
    </contour>
    <contour>
      <point x="75" y="614" type="line"/>
      <point x="500" y="614" type="line"/>
      <point x="500" y="660" type="line"/>
      <point x="75" y="660" type="line"/>
    </contour>
  </outline>
</glyph>
<glyph name="liraTurkish" format="1">
  <advance width="570"/>
  <unicode hex="20BA"/>
  <outline>
    <contour>
      <point x="318" y="-10" type="curve" smooth="yes"/>
      <point x="444" y="-10"/>
      <point x="519" y="41"/>
      <point x="563" y="134" type="curve"/>
      <point x="521" y="156" type="line"/>
      <point x="489" y="98"/>
      <point x="434" y="57"/>
      <point x="350" y="57" type="curve" smooth="yes"/>
      <point x="303" y="57"/>
      <point x="249" y="70"/>
      <point x="209" y="99" type="curve"/>
      <point x="208" y="442" type="line"/>
      <point x="208" y="572"/>
      <point x="212" y="598"/>
      <point x="216" y="605" type="curve"/>
      <point x="223" y="609"/>
      <point x="258" y="619"/>
      <point x="284" y="619" type="curve"/>
      <point x="282" y="661" type="line"/>
      <point x="247" y="659"/>
      <point x="198" y="658"/>
      <point x="164" y="658" type="curve" smooth="yes"/>
      <point x="131" y="658"/>
      <point x="82" y="659"/>
      <point x="47" y="661" type="curve"/>
      <point x="45" y="619" type="line"/>
      <point x="71" y="619"/>
      <point x="106" y="609"/>
      <point x="113" y="605" type="curve"/>
      <point x="117" y="598"/>
      <point x="121" y="572"/>
      <point x="121" y="442" type="curve" smooth="yes"/>
      <point x="121" y="46" type="line"/>
      <point x="172" y="11"/>
      <point x="259" y="-10"/>
    </contour>
    <contour>
      <point x="22" y="211" type="line"/>
      <point x="458" y="382" type="line"/>
      <point x="458" y="428" type="line"/>
      <point x="22" y="257" type="line"/>
    </contour>
    <contour>
      <point x="22" y="347" type="line"/>
      <point x="458" y="518" type="line"/>
      <point x="458" y="564" type="line"/>
      <point x="22" y="393" type="line"/>
    </contour>
  </outline>
</glyph>
<glyph name="manat" format="1">
  <advance width="748"/>
  <unicode hex="20BC"/>
  <outline>
    <contour>
      <point x="703" y="-1" type="curve"/>
      <point x="705" y="41" type="line"/>
      <point x="679" y="41"/>
      <point x="644" y="51"/>
      <point x="637" y="55" type="curve"/>
      <point x="633" y="62"/>
      <point x="629" y="88"/>
      <point x="629" y="218" type="curve" smooth="yes"/>
      <point x="629" y="400" type="line" smooth="yes"/>
      <point x="629" y="578"/>
      <point x="523" y="670"/>
      <point x="375" y="670" type="curve" smooth="yes"/>
      <point x="239" y="670"/>
      <point x="117" y="591"/>
      <point x="117" y="380" type="curve" smooth="yes"/>
      <point x="117" y="238" type="line" smooth="yes"/>
      <point x="117" y="88"/>
      <point x="113" y="62"/>
      <point x="109" y="55" type="curve"/>
      <point x="102" y="51"/>
      <point x="54" y="41"/>
      <point x="41" y="41" type="curve"/>
      <point x="43" y="-1" type="line"/>
      <point x="78" y="1"/>
      <point x="120" y="2"/>
      <point x="153" y="2" type="curve" smooth="yes"/>
      <point x="189" y="2"/>
      <point x="220" y="1"/>
      <point x="255" y="-1" type="curve"/>
      <point x="257" y="41" type="line"/>
      <point x="231" y="41"/>
      <point x="196" y="51"/>
      <point x="189" y="55" type="curve"/>
      <point x="185" y="62"/>
      <point x="181" y="88"/>
      <point x="181" y="238" type="curve" smooth="yes"/>
      <point x="181" y="379" type="line" smooth="yes"/>
      <point x="181" y="549"/>
      <point x="267" y="603"/>
      <point x="363" y="603" type="curve" smooth="yes"/>
      <point x="469" y="603"/>
      <point x="540" y="542"/>
      <point x="541" y="388" type="curve" smooth="yes"/>
      <point x="542" y="218" type="line" smooth="yes"/>
      <point x="543" y="88"/>
      <point x="538" y="62"/>
      <point x="534" y="55" type="curve"/>
      <point x="527" y="51"/>
      <point x="492" y="41"/>
      <point x="466" y="41" type="curve"/>
      <point x="468" y="-1" type="line"/>
      <point x="503" y="1"/>
      <point x="552" y="2"/>
      <point x="586" y="2" type="curve" smooth="yes"/>
      <point x="619" y="2"/>
      <point x="668" y="1"/>
    </contour>
    <contour>
      <point x="337" y="200" type="line"/>
      <point x="385" y="200" type="line"/>
      <point x="385" y="790" type="line"/>
      <point x="337" y="790" type="line"/>
    </contour>
  </outline>
</glyph>
<glyph name="ruble" format="1">
  <advance width="542"/>
  <unicode hex="20BD"/>
  <outline>
    <contour>
      <point x="52" y="-3" type="line"/>
      <point x="84" y="0"/>
      <point x="140" y="2"/>
      <point x="175" y="2" type="curve" smooth="yes"/>
      <point x="210" y="2"/>
      <point x="265" y="0"/>
      <point x="300" y="-3" type="curve"/>
      <point x="302" y="41" type="line"/>
      <point x="274" y="44"/>
      <point x="223" y="53"/>
      <point x="214" y="55" type="curve"/>
      <point x="210" y="61"/>
      <point x="206" y="87"/>
      <point x="206" y="217" type="curve" smooth="yes"/>
      <point x="206" y="482" type="line" smooth="yes"/>
      <point x="206" y="526"/>
      <point x="208" y="600"/>
      <point x="209" y="610" type="curve"/>
      <point x="226" y="614"/>
      <point x="241" y="616"/>
      <point x="270" y="616" type="curve" smooth="yes"/>
      <point x="359" y="616"/>
      <point x="419" y="564"/>
      <point x="419" y="476" type="curve" smooth="yes"/>
      <point x="419" y="392"/>
      <point x="364" y="352"/>
      <point x="287" y="352" type="curve" smooth="yes"/>
      <point x="22" y="352" type="line"/>
      <point x="22" y="306" type="line"/>
      <point x="294" y="306" type="line" smooth="yes"/>
      <point x="413" y="306"/>
      <point x="510" y="376"/>
      <point x="510" y="488" type="curve" smooth="yes"/>
      <point x="510" y="598"/>
      <point x="424" y="661"/>
      <point x="278" y="661" type="curve" smooth="yes"/>
      <point x="236" y="661"/>
      <point x="203" y="659"/>
      <point x="175" y="659" type="curve" smooth="yes"/>
      <point x="125" y="659"/>
      <point x="82" y="660"/>
      <point x="47" y="661" type="curve"/>
      <point x="45" y="619" type="line"/>
      <point x="71" y="618"/>
      <point x="106" y="609"/>
      <point x="113" y="605" type="curve"/>
      <point x="117" y="598"/>
      <point x="121" y="572"/>
      <point x="121" y="442" type="curve" smooth="yes"/>
      <point x="121" y="217" type="line" smooth="yes"/>
      <point x="121" y="87"/>
      <point x="117" y="61"/>
      <point x="113" y="54" type="curve"/>
      <point x="106" y="50"/>
      <point x="73" y="40"/>
      <point x="50" y="39" type="curve"/>
    </contour>
    <contour>
      <point x="22" y="170" type="line"/>
      <point x="428" y="170" type="line"/>
      <point x="428" y="216" type="line"/>
      <point x="22" y="216" type="line"/>
    </contour>
  </outline>
</glyph>
<glyph name="literSign" format="1">
  <advance width="600"/>
  <unicode hex="2113"/>
  <outline>
    <contour>
      <point x="320" y="-15" type="curve" smooth="yes"/>
      <point x="376" y="-15"/>
      <point x="419" y="11"/>
      <point x="456" y="48" type="curve"/>
      <point x="423" y="105" type="line"/>
      <point x="393" y="79"/>
      <point x="370" y="64"/>
      <point x="343" y="64" type="curve" smooth="yes"/>
      <point x="306" y="64"/>
      <point x="286" y="89"/>
      <point x="286" y="140" type="curve" smooth="yes"/>
      <point x="286" y="294" type="line"/>
      <point x="293" y="305"/>
      <point x="305" y="319"/>
      <point x="314" y="330" type="curve" smooth="yes"/>
      <point x="384" y="417"/>
      <point x="434" y="497"/>
      <point x="434" y="598" type="curve" smooth="yes"/>
      <point x="434" y="659"/>
      <point x="397" y="710"/>
      <point x="325" y="710" type="curve" smooth="yes"/>
      <point x="243" y="710"/>
      <point x="192" y="648"/>
      <point x="192" y="540" type="curve" smooth="yes"/>
      <point x="192" y="300" type="line"/>
      <point x="99" y="199" type="line"/>
      <point x="141" y="158" type="line"/>
      <point x="192" y="215" type="line"/>
      <point x="192" y="122" type="line" smooth="yes"/>
      <point x="192" y="49"/>
      <point x="227" y="-15"/>
    </contour>
    <contour>
      <point x="286" y="389" type="curve"/>
      <point x="286" y="544" type="line" smooth="yes"/>
      <point x="286" y="610"/>
      <point x="304" y="632"/>
      <point x="331" y="632" type="curve" smooth="yes"/>
      <point x="356" y="632"/>
      <point x="367" y="607"/>
      <point x="367" y="582" type="curve" smooth="yes"/>
      <point x="367" y="529"/>
      <point x="338" y="465"/>
      <point x="301" y="410" type="curve" smooth="yes"/>
      <point x="296" y="403"/>
      <point x="292" y="396"/>
    </contour>
  </outline>
</glyph>
<glyph name="emptyset" format="1">
  <advance width="600"/>
  <unicode hex="2205"/>
  <outline>
    <contour>
      <point x="29" y="8" type="line"/>
      <point x="77" y="-24" type="line"/>
      <point x="155" y="78" type="line"/>
      <point x="199" y="55"/>
      <point x="249" y="41"/>
      <point x="301" y="41" type="curve" smooth="yes"/>
      <point x="463" y="41"/>
      <point x="596" y="168"/>
      <point x="596" y="323" type="curve" smooth="yes"/>
      <point x="596" y="405"/>
      <point x="560" y="478"/>
      <point x="504" y="528" type="curve"/>
      <point x="582" y="629" type="line"/>
      <point x="535" y="664" type="line"/>
      <point x="457" y="563" type="line"/>
      <point x="412" y="591"/>
      <point x="357" y="607"/>
      <point x="301" y="607" type="curve" smooth="yes"/>
      <point x="131" y="607"/>
      <point x="4" y="473"/>
      <point x="4" y="323" type="curve" smooth="yes"/>
      <point x="4" y="236"/>
      <point x="45" y="161"/>
      <point x="107" y="110" type="curve"/>
    </contour>
    <contour>
      <point x="142" y="155" type="line"/>
      <point x="96" y="197"/>
      <point x="69" y="257"/>
      <point x="69" y="323" type="curve" smooth="yes"/>
      <point x="69" y="451"/>
      <point x="170" y="549"/>
      <point x="301" y="549" type="curve" smooth="yes"/>
      <point x="346" y="549"/>
      <point x="388" y="537"/>
      <point x="422" y="517" type="curve"/>
    </contour>
    <contour>
      <point x="301" y="96" type="curve" smooth="yes"/>
      <point x="259" y="96"/>
      <point x="222" y="106"/>
      <point x="190" y="123" type="curve"/>
      <point x="468" y="481" type="line"/>
      <point x="508" y="440"/>
      <point x="532" y="384"/>
      <point x="532" y="323" type="curve" smooth="yes"/>
      <point x="532" y="190"/>
      <point x="426" y="96"/>
    </contour>
  </outline>
</glyph>
<glyph name="summation" format="1">
  <advance width="562"/>
  <unicode hex="2211"/>
  <note>
    summation
  </note>
  <outline>
    <contour>
      <point x="469" y="-33" type="line"/>
      <point x="465" y="-72"/>
      <point x="460" y="-111"/>
      <point x="455" y="-138" type="curve"/>
      <point x="436" y="-141"/>
      <point x="414" y="-142"/>
      <point x="384" y="-142" type="curve" smooth="yes"/>
      <point x="91" y="-142" type="line"/>
      <point x="94" y="-203" type="line"/>
      <point x="360" y="229" type="line"/>
      <point x="130" y="643" type="line"/>
      <point x="123" y="609" type="line"/>
      <point x="381" y="609" type="line" smooth="yes"/>
      <point x="411" y="609"/>
      <point x="433" y="608"/>
      <point x="452" y="605" type="curve"/>
      <point x="457" y="578"/>
      <point x="462" y="539"/>
      <point x="466" y="492" type="curve"/>
      <point x="510" y="492" type="line"/>
      <point x="511" y="661" type="line"/>
      <point x="478" y="660"/>
      <point x="448" y="660"/>
      <point x="421" y="660" type="curve" smooth="yes"/>
      <point x="115" y="660" type="line" smooth="yes"/>
      <point x="87" y="660"/>
      <point x="58" y="661"/>
      <point x="30" y="662" type="curve"/>
      <point x="30" y="627" type="line"/>
      <point x="288" y="173" type="line"/>
      <point x="291" y="233" type="line"/>
      <point x="35" y="-187" type="line"/>
      <point x="35" y="-222" type="line"/>
      <point x="63" y="-221"/>
      <point x="92" y="-220"/>
      <point x="120" y="-220" type="curve" smooth="yes"/>
      <point x="423" y="-220" type="line" smooth="yes"/>
      <point x="450" y="-220"/>
      <point x="480" y="-220"/>
      <point x="513" y="-221" type="curve"/>
      <point x="512" y="-33" type="line"/>
    </contour>
  </outline>
</glyph>
<glyph name="minus" format="1">
  <advance width="600"/>
  <unicode hex="2212"/>
  <outline>
    <contour>
      <point x="544" y="317" type="line"/>
      <point x="56" y="317" type="line"/>
      <point x="56" y="252" type="line"/>
      <point x="544" y="252" type="line"/>
    </contour>
  </outline>
</glyph>
<glyph name="approxequal" format="1">
  <advance width="600"/>
  <unicode hex="2248"/>
  <outline>
    <contour>
      <point x="512" y="431" type="line"/>
      <point x="492" y="393"/>
      <point x="465" y="372"/>
      <point x="429" y="372" type="curve" smooth="yes"/>
      <point x="369" y="372"/>
      <point x="273" y="455"/>
      <point x="186" y="455" type="curve" smooth="yes"/>
      <point x="128" y="455"/>
      <point x="81" y="418"/>
      <point x="56" y="354" type="curve"/>
      <point x="88" y="334" type="line"/>
      <point x="107" y="372"/>
      <point x="135" y="393"/>
      <point x="171" y="393" type="curve" smooth="yes"/>
      <point x="231" y="393"/>
      <point x="327" y="310"/>
      <point x="414" y="310" type="curve" smooth="yes"/>
      <point x="472" y="310"/>
      <point x="519" y="347"/>
      <point x="544" y="411" type="curve"/>
    </contour>
    <contour>
      <point x="512" y="231" type="line"/>
      <point x="492" y="193"/>
      <point x="465" y="172"/>
      <point x="429" y="172" type="curve" smooth="yes"/>
      <point x="369" y="172"/>
      <point x="273" y="255"/>
      <point x="186" y="255" type="curve" smooth="yes"/>
      <point x="128" y="255"/>
      <point x="81" y="218"/>
      <point x="56" y="154" type="curve"/>
      <point x="88" y="134" type="line"/>
      <point x="107" y="172"/>
      <point x="135" y="193"/>
      <point x="171" y="193" type="curve" smooth="yes"/>
      <point x="231" y="193"/>
      <point x="327" y="110"/>
      <point x="414" y="110" type="curve" smooth="yes"/>
      <point x="472" y="110"/>
      <point x="519" y="147"/>
      <point x="544" y="211" type="curve"/>
    </contour>
  </outline>
</glyph>
<glyph name="greaterequal" format="1">
  <advance width="600"/>
  <unicode hex="2265"/>
  <outline>
    <contour>
      <point x="544" y="294" type="line"/>
      <point x="544" y="360" type="line"/>
      <point x="56" y="537" type="line"/>
      <point x="56" y="467" type="line"/>
      <point x="511" y="306" type="line"/>
      <point x="511" y="348" type="line"/>
      <point x="56" y="187" type="line"/>
      <point x="56" y="117" type="line"/>
    </contour>
    <contour>
      <point x="544" y="65" type="line"/>
      <point x="56" y="65" type="line"/>
      <point x="56" y="0" type="line"/>
      <point x="544" y="0" type="line"/>
    </contour>
  </outline>
</glyph>
<glyph name="brevecomb_acutecomb.case" format="1">
  <advance width="600"/>
  <outline>
    <contour>
      <point x="312" y="829" type="line"/>
      <point x="421" y="951" type="line"/>
      <point x="341" y="974" type="line"/>
      <point x="270" y="843" type="line"/>
    </contour>
    <contour>
      <point x="427" y="851" type="line"/>
      <point x="416" y="807"/>
      <point x="370" y="779"/>
      <point x="302" y="779" type="curve" smooth="yes"/>
      <point x="236" y="779"/>
      <point x="190" y="807"/>
      <point x="177" y="851" type="curve"/>
      <point x="134" y="837" type="line"/>
      <point x="148" y="762"/>
      <point x="214" y="718"/>
      <point x="301" y="718" type="curve" smooth="yes"/>
      <point x="389" y="718"/>
      <point x="452" y="762"/>
      <point x="466" y="837" type="curve"/>
    </contour>
    <contour>
      <point x="300" y="660" type="move" name="_top"/>
    </contour>
  </outline>
</glyph>
<glyph name="brevecomb_gravecomb" format="1">
  <advance width="600"/>
  <outline>
    <contour>
      <point x="397" y="677" type="line"/>
      <point x="389" y="600"/>
      <point x="354" y="559"/>
      <point x="302" y="559" type="curve" smooth="yes"/>
      <point x="252" y="559"/>
      <point x="217" y="600"/>
      <point x="207" y="677" type="curve"/>
      <point x="164" y="663" type="line"/>
      <point x="167" y="556"/>
      <point x="221" y="494"/>
      <point x="301" y="494" type="curve" smooth="yes"/>
      <point x="381" y="494"/>
      <point x="433" y="556"/>
      <point x="436" y="663" type="curve"/>
    </contour>
    <contour>
      <point x="299" y="634" type="line"/>
      <point x="341" y="648" type="line"/>
      <point x="268" y="790" type="line"/>
      <point x="185" y="767" type="line"/>
    </contour>
    <contour>
      <point x="300" y="430" type="move" name="_top"/>
    </contour>
  </outline>
</glyph>
<glyph name="brevecomb_hookabovecomb.case" format="1">
  <advance width="600"/>
  <outline>
    <contour>
      <point x="303" y="974" type="curve" smooth="yes"/>
      <point x="247" y="974"/>
      <point x="210" y="949"/>
      <point x="210" y="923" type="curve" smooth="yes"/>
      <point x="210" y="908"/>
      <point x="220" y="898"/>
      <point x="236" y="898" type="curve" smooth="yes"/>
      <point x="251" y="898"/>
      <point x="257" y="903"/>
      <point x="273" y="918" type="curve" smooth="yes"/>
      <point x="308" y="952" type="line"/>
      <point x="272" y="943" type="line"/>
      <point x="303" y="951"/>
      <point x="329" y="948"/>
      <point x="329" y="915" type="curve" smooth="yes"/>
      <point x="329" y="887"/>
      <point x="284" y="875"/>
      <point x="284" y="828" type="curve" smooth="yes"/>
      <point x="284" y="813" type="line"/>
      <point x="317" y="813" type="line"/>
      <point x="317" y="864"/>
      <point x="397" y="855"/>
      <point x="397" y="912" type="curve" smooth="yes"/>
      <point x="397" y="951"/>
      <point x="359" y="974"/>
    </contour>
    <contour>
      <point x="301" y="718" type="curve" smooth="yes"/>
      <point x="389" y="718"/>
      <point x="452" y="762"/>
      <point x="466" y="837" type="curve"/>
      <point x="427" y="851" type="line"/>
      <point x="416" y="807"/>
      <point x="370" y="779"/>
      <point x="302" y="779" type="curve" smooth="yes"/>
      <point x="236" y="779"/>
      <point x="190" y="807"/>
      <point x="177" y="851" type="curve"/>
      <point x="134" y="837" type="line"/>
      <point x="148" y="762"/>
      <point x="214" y="718"/>
    </contour>
    <contour>
      <point x="300" y="660" type="move" name="_top"/>
    </contour>
  </outline>
</glyph>
<glyph name="brevecomb_tildecomb.case" format="1">
  <advance width="600"/>
  <outline>
    <contour>
      <point x="300" y="718" type="curve" smooth="yes"/>
      <point x="388" y="718"/>
      <point x="451" y="762"/>
      <point x="465" y="837" type="curve"/>
      <point x="426" y="851" type="line"/>
      <point x="415" y="807"/>
      <point x="369" y="779"/>
      <point x="301" y="779" type="curve" smooth="yes"/>
      <point x="235" y="779"/>
      <point x="189" y="807"/>
      <point x="176" y="851" type="curve"/>
      <point x="133" y="837" type="line"/>
      <point x="147" y="762"/>
      <point x="213" y="718"/>
    </contour>
    <contour>
      <point x="368" y="867" type="curve" smooth="yes"/>
      <point x="413" y="867"/>
      <point x="450" y="902"/>
      <point x="470" y="958" type="curve"/>
      <point x="437" y="976" type="line"/>
      <point x="420" y="949"/>
      <point x="404" y="933"/>
      <point x="377" y="933" type="curve" smooth="yes"/>
      <point x="334" y="933"/>
      <point x="280" y="976"/>
      <point x="230" y="976" type="curve" smooth="yes"/>
      <point x="185" y="976"/>
      <point x="148" y="941"/>
      <point x="128" y="885" type="curve"/>
      <point x="161" y="867" type="line"/>
      <point x="178" y="894"/>
      <point x="193" y="910"/>
      <point x="222" y="910" type="curve" smooth="yes"/>
      <point x="264" y="910"/>
      <point x="318" y="867"/>
    </contour>
    <contour>
      <point x="300" y="660" type="move" name="_top"/>
    </contour>
  </outline>
</glyph>
<glyph name="caroncomb.alt.t" format="1">
  <advance width="600"/>
  <outline>
    <contour>
      <point x="289" y="495" type="line"/>
      <point x="344" y="535"/>
      <point x="378" y="587"/>
      <point x="378" y="628" type="curve" smooth="yes"/>
      <point x="378" y="668"/>
      <point x="354" y="693"/>
      <point x="318" y="693" type="curve" smooth="yes"/>
      <point x="292" y="693"/>
      <point x="272" y="676"/>
      <point x="272" y="653" type="curve" smooth="yes"/>
      <point x="272" y="610"/>
      <point x="315" y="615"/>
      <point x="315" y="583" type="curve" smooth="yes"/>
      <point x="315" y="567"/>
      <point x="304" y="543"/>
      <point x="272" y="515" type="curve"/>
    </contour>
    <contour>
      <point x="272" y="688" type="move" name="_topright"/>
    </contour>
  </outline>
</glyph>
<glyph name="caroncomb_dotaccentcomb" format="1">
  <advance width="600"/>
  <outline>
    <contour>
      <point x="440" y="663" type="line"/>
      <point x="400" y="677" type="line"/>
      <point x="272" y="526" type="line"/>
      <point x="332" y="526" type="line"/>
      <point x="200" y="677" type="line"/>
      <point x="160" y="663" type="line"/>
      <point x="263" y="496" type="line"/>
      <point x="337" y="496" type="line"/>
    </contour>
    <contour>
      <point x="301" y="685" type="curve" smooth="yes"/>
      <point x="330" y="685"/>
      <point x="351" y="706"/>
      <point x="351" y="735" type="curve" smooth="yes"/>
      <point x="351" y="763"/>
      <point x="330" y="785"/>
      <point x="301" y="785" type="curve" smooth="yes"/>
      <point x="271" y="785"/>
      <point x="249" y="763"/>
      <point x="249" y="735" type="curve" smooth="yes"/>
      <point x="249" y="706"/>
      <point x="271" y="685"/>
    </contour>
    <contour>
      <point x="300" y="430" type="move" name="_top"/>
    </contour>
  </outline>
</glyph>
<glyph name="circumflexcomb.case" format="1">
  <advance width="600"/>
  <note>
    uni0302.cap
  </note>
  <outline>
    <contour>
      <point x="470" y="736" type="line"/>
      <point x="337" y="843" type="line"/>
      <point x="263" y="843" type="line"/>
      <point x="130" y="736" type="line"/>
      <point x="165" y="712" type="line"/>
      <point x="330" y="803" type="line"/>
      <point x="270" y="803" type="line"/>
      <point x="435" y="712" type="line"/>
    </contour>
    <contour>
      <point x="300" y="660" type="move" name="_top"/>
    </contour>
    <contour>
      <point x="300" y="867" type="move" name="top"/>
    </contour>
  </outline>
</glyph>
<glyph name="circumflexcomb_hookabovecomb" format="1">
  <advance width="600"/>
  <outline>
    <contour>
      <point x="440" y="496" type="line"/>
      <point x="337" y="663" type="line"/>
      <point x="263" y="663" type="line"/>
      <point x="160" y="496" type="line"/>
      <point x="200" y="482" type="line"/>
      <point x="330" y="633" type="line"/>
      <point x="270" y="633" type="line"/>
      <point x="400" y="482" type="line"/>
    </contour>
    <contour>
      <point x="420" y="790" type="curve" smooth="yes"/>
      <point x="364" y="790"/>
      <point x="327" y="765"/>
      <point x="327" y="739" type="curve" smooth="yes"/>
      <point x="327" y="724"/>
      <point x="337" y="714"/>
      <point x="353" y="714" type="curve" smooth="yes"/>
      <point x="368" y="714"/>
      <point x="374" y="719"/>
      <point x="390" y="734" type="curve" smooth="yes"/>
      <point x="425" y="768" type="line"/>
      <point x="389" y="759" type="line"/>
      <point x="420" y="767"/>
      <point x="446" y="764"/>
      <point x="446" y="731" type="curve" smooth="yes"/>
      <point x="446" y="703"/>
      <point x="401" y="685"/>
      <point x="401" y="630" type="curve" smooth="yes"/>
      <point x="401" y="613" type="line"/>
      <point x="434" y="613" type="line"/>
      <point x="434" y="672"/>
      <point x="514" y="662"/>
      <point x="514" y="727" type="curve" smooth="yes"/>
      <point x="514" y="766"/>
      <point x="476" y="790"/>
    </contour>
    <contour>
      <point x="300" y="430" type="move" name="_top"/>
    </contour>
  </outline>
</glyph>
<glyph name="commaaccentcomb.alt" format="1">
  <advance width="600"/>
  <note>
    uni0326
  </note>
  <outline>
    <contour>
      <point x="234" y="-286" type="line"/>
      <point x="307" y="-264"/>
      <point x="353" y="-213"/>
      <point x="353" y="-157" type="curve" smooth="yes"/>
      <point x="353" y="-117"/>
      <point x="329" y="-92"/>
      <point x="293" y="-92" type="curve" smooth="yes"/>
      <point x="267" y="-92"/>
      <point x="247" y="-109"/>
      <point x="247" y="-132" type="curve" smooth="yes"/>
      <point x="247" y="-175"/>
      <point x="292" y="-170"/>
      <point x="292" y="-202" type="curve" smooth="yes"/>
      <point x="292" y="-224"/>
      <point x="267" y="-247"/>
      <point x="222" y="-260" type="curve"/>
    </contour>
    <contour>
      <point x="300" y="0" type="move" name="_bottom"/>
    </contour>
    <contour>
      <point x="300" y="-220" type="move" name="bottom"/>
    </contour>
  </outline>
</glyph>
<glyph name="commaturnedabovecomb.case" format="1">
  <advance width="600"/>
  <outline>
    <contour>
      <point x="366" y="912" type="line"/>
      <point x="293" y="890"/>
      <point x="247" y="839"/>
      <point x="247" y="783" type="curve" smooth="yes"/>
      <point x="247" y="743"/>
      <point x="271" y="718"/>
      <point x="307" y="718" type="curve" smooth="yes"/>
      <point x="333" y="718"/>
      <point x="353" y="735"/>
      <point x="353" y="758" type="curve" smooth="yes"/>
      <point x="353" y="801"/>
      <point x="308" y="796"/>
      <point x="308" y="828" type="curve" smooth="yes"/>
      <point x="308" y="850"/>
      <point x="333" y="873"/>
      <point x="378" y="886" type="curve"/>
    </contour>
    <contour>
      <point x="300" y="660" type="move" name="_top"/>
    </contour>
    <contour>
      <point x="300" y="858" type="move" name="top"/>
    </contour>
  </outline>
</glyph>
<glyph name="dblgravecomb.case" format="1">
  <advance width="600"/>
  <outline>
    <contour>
      <point x="345" y="712" type="line"/>
      <point x="379" y="725" type="line"/>
      <point x="334" y="847" type="line"/>
      <point x="263" y="832" type="line"/>
    </contour>
    <contour>
      <point x="221" y="712" type="line"/>
      <point x="255" y="725" type="line"/>
      <point x="210" y="847" type="line"/>
      <point x="139" y="832" type="line"/>
    </contour>
    <contour>
      <point x="300" y="660" type="move" name="_top"/>
    </contour>
    <contour>
      <point x="300" y="877" type="move" name="top"/>
    </contour>
  </outline>
</glyph>
<glyph name="dieresiscomb_acutecomb.case" format="1">
  <advance width="600"/>
  <outline>
    <contour>
      <point x="320" y="830" type="line"/>
      <point x="429" y="953" type="line"/>
      <point x="348" y="976" type="line"/>
      <point x="280" y="844" type="line"/>
    </contour>
    <contour>
      <point x="201" y="733" type="curve" smooth="yes"/>
      <point x="230" y="733"/>
      <point x="251" y="754"/>
      <point x="251" y="783" type="curve" smooth="yes"/>
      <point x="251" y="811"/>
      <point x="230" y="833"/>
      <point x="201" y="833" type="curve" smooth="yes"/>
      <point x="171" y="833"/>
      <point x="149" y="811"/>
      <point x="149" y="783" type="curve" smooth="yes"/>
      <point x="149" y="754"/>
      <point x="171" y="733"/>
    </contour>
    <contour>
      <point x="401" y="733" type="curve" smooth="yes"/>
      <point x="430" y="733"/>
      <point x="451" y="754"/>
      <point x="451" y="783" type="curve" smooth="yes"/>
      <point x="451" y="811"/>
      <point x="430" y="833"/>
      <point x="401" y="833" type="curve" smooth="yes"/>
      <point x="371" y="833"/>
      <point x="349" y="811"/>
      <point x="349" y="783" type="curve" smooth="yes"/>
      <point x="349" y="754"/>
      <point x="371" y="733"/>
    </contour>
    <contour>
      <point x="300" y="660" type="move" name="_top"/>
    </contour>
  </outline>
</glyph>
<glyph name="dieresiscomb_acutecomb" format="1">
  <advance width="600"/>
  <outline>
    <contour>
      <point x="221" y="528" type="curve" smooth="yes"/>
      <point x="250" y="528"/>
      <point x="271" y="549"/>
      <point x="271" y="578" type="curve" smooth="yes"/>
      <point x="271" y="606"/>
      <point x="250" y="628"/>
      <point x="221" y="628" type="curve" smooth="yes"/>
      <point x="191" y="628"/>
      <point x="169" y="606"/>
      <point x="169" y="578" type="curve" smooth="yes"/>
      <point x="169" y="549"/>
      <point x="191" y="528"/>
    </contour>
    <contour>
      <point x="381" y="528" type="curve" smooth="yes"/>
      <point x="410" y="528"/>
      <point x="431" y="549"/>
      <point x="431" y="578" type="curve" smooth="yes"/>
      <point x="431" y="606"/>
      <point x="410" y="628"/>
      <point x="381" y="628" type="curve" smooth="yes"/>
      <point x="351" y="628"/>
      <point x="329" y="606"/>
      <point x="329" y="578" type="curve" smooth="yes"/>
      <point x="329" y="549"/>
      <point x="351" y="528"/>
    </contour>
    <contour>
      <point x="320" y="644" type="line"/>
      <point x="429" y="767" type="line"/>
      <point x="348" y="790" type="line"/>
      <point x="280" y="658" type="line"/>
    </contour>
    <contour>
      <point x="300" y="430" type="move" name="_top"/>
    </contour>
  </outline>
</glyph>
<glyph name="dotaccentcomb_macroncomb.case" format="1">
  <advance width="600"/>
  <outline>
    <contour>
      <point x="136" y="898" type="line"/>
      <point x="464" y="898" type="line"/>
      <point x="464" y="953" type="line"/>
      <point x="136" y="953" type="line"/>
    </contour>
    <contour>
      <point x="301" y="733" type="curve" smooth="yes"/>
      <point x="330" y="733"/>
      <point x="351" y="754"/>
      <point x="351" y="783" type="curve" smooth="yes"/>
      <point x="351" y="811"/>
      <point x="330" y="833"/>
      <point x="301" y="833" type="curve" smooth="yes"/>
      <point x="271" y="833"/>
      <point x="249" y="811"/>
      <point x="249" y="783" type="curve" smooth="yes"/>
      <point x="249" y="754"/>
      <point x="271" y="733"/>
    </contour>
    <contour>
      <point x="300" y="660" type="move" name="_top"/>
    </contour>
  </outline>
</glyph>
<glyph name="dotaccentcomb_macroncomb" format="1">
  <advance width="600"/>
  <outline>
    <contour>
      <point x="301" y="528" type="curve" smooth="yes"/>
      <point x="330" y="528"/>
      <point x="351" y="549"/>
      <point x="351" y="578" type="curve" smooth="yes"/>
      <point x="351" y="606"/>
      <point x="330" y="628"/>
      <point x="301" y="628" type="curve" smooth="yes"/>
      <point x="271" y="628"/>
      <point x="249" y="606"/>
      <point x="249" y="578" type="curve" smooth="yes"/>
      <point x="249" y="549"/>
      <point x="271" y="528"/>
    </contour>
    <contour>
      <point x="156" y="744" type="line"/>
      <point x="156" y="689" type="line"/>
      <point x="444" y="689" type="line"/>
      <point x="444" y="744" type="line"/>
    </contour>
    <contour>
      <point x="300" y="430" type="move" name="_top"/>
    </contour>
  </outline>
</glyph>
<glyph name="eight.tf" format="1">
  <advance width="600"/>
  <note>
    eight
  </note>
  <outline>
    <contour>
      <point x="294" y="-10" type="curve" smooth="yes"/>
      <point x="437" y="-10"/>
      <point x="533" y="69"/>
      <point x="533" y="176" type="curve" smooth="yes"/>
      <point x="533" y="255"/>
      <point x="488" y="304"/>
      <point x="351" y="360" type="curve" smooth="yes"/>
      <point x="216" y="417"/>
      <point x="184" y="453"/>
      <point x="184" y="518" type="curve" smooth="yes"/>
      <point x="184" y="584"/>
      <point x="234" y="623"/>
      <point x="299" y="623" type="curve" smooth="yes"/>
      <point x="378" y="623"/>
      <point x="425" y="570"/>
      <point x="425" y="488" type="curve" smooth="yes"/>
      <point x="425" y="437"/>
      <point x="403" y="393"/>
      <point x="355" y="345" type="curve"/>
      <point x="381" y="330" type="line"/>
      <point x="460" y="366"/>
      <point x="511" y="425"/>
      <point x="511" y="503" type="curve" smooth="yes"/>
      <point x="511" y="599"/>
      <point x="427" y="670"/>
      <point x="309" y="670" type="curve" smooth="yes"/>
      <point x="187" y="670"/>
      <point x="95" y="596"/>
      <point x="95" y="495" type="curve" smooth="yes"/>
      <point x="95" y="412"/>
      <point x="141" y="358"/>
      <point x="280" y="301" type="curve" smooth="yes"/>
      <point x="410" y="247"/>
      <point x="444" y="210"/>
      <point x="444" y="149" type="curve" smooth="yes"/>
      <point x="444" y="82"/>
      <point x="392" y="41"/>
      <point x="311" y="41" type="curve" smooth="yes"/>
      <point x="212" y="41"/>
      <point x="158" y="101"/>
      <point x="158" y="170" type="curve" smooth="yes"/>
      <point x="158" y="228"/>
      <point x="192" y="280"/>
      <point x="275" y="320" type="curve"/>
      <point x="239" y="339" type="line"/>
      <point x="132" y="312"/>
      <point x="68" y="251"/>
      <point x="68" y="167" type="curve" smooth="yes"/>
      <point x="68" y="64"/>
      <point x="157" y="-10"/>
    </contour>
  </outline>
</glyph>
<glyph name="five.osf" format="1">
  <advance width="443"/>
  <note>
    five.onum
  </note>
  <outline>
    <contour>
      <point x="155" y="-228" type="curve" smooth="yes"/>
      <point x="285" y="-228"/>
      <point x="400" y="-136"/>
      <point x="400" y="-32" type="curve" smooth="yes"/>
      <point x="400" y="68"/>
      <point x="330" y="131"/>
      <point x="196" y="163" type="curve" smooth="yes"/>
      <point x="162" y="171"/>
      <point x="127" y="177"/>
      <point x="92" y="183" type="curve"/>
      <point x="119" y="135" type="line"/>
      <point x="165" y="348" type="line"/>
      <point x="370" y="348" type="line"/>
      <point x="370" y="430" type="line"/>
      <point x="121" y="430" type="line"/>
      <point x="62" y="108" type="line"/>
      <point x="98" y="102"/>
      <point x="133" y="94"/>
      <point x="170" y="86" type="curve" smooth="yes"/>
      <point x="270" y="64"/>
      <point x="311" y="23"/>
      <point x="311" y="-53" type="curve" smooth="yes"/>
      <point x="311" y="-137"/>
      <point x="230" y="-196"/>
      <point x="124" y="-179" type="curve"/>
      <point x="180" y="-196" type="line"/>
      <point x="115" y="-142" type="line" smooth="yes"/>
      <point x="91" y="-122"/>
      <point x="75" y="-115"/>
      <point x="55" y="-115" type="curve" smooth="yes"/>
      <point x="33" y="-115"/>
      <point x="15" y="-131"/>
      <point x="15" y="-154" type="curve" smooth="yes"/>
      <point x="15" y="-197"/>
      <point x="76" y="-228"/>
    </contour>
  </outline>
</glyph>
<glyph name="five.tf" format="1">
  <advance width="600"/>
  <note>
    five
  </note>
  <outline>
    <contour>
      <point x="242" y="-10" type="curve" smooth="yes"/>
      <point x="393" y="-10"/>
      <point x="508" y="84"/>
      <point x="508" y="191" type="curve" smooth="yes"/>
      <point x="508" y="294"/>
      <point x="438" y="360"/>
      <point x="285" y="391" type="curve" smooth="yes"/>
      <point x="249" y="398"/>
      <point x="211" y="405"/>
      <point x="164" y="411" type="curve"/>
      <point x="188" y="363" type="line"/>
      <point x="234" y="578" type="line"/>
      <point x="469" y="578" type="line"/>
      <point x="469" y="660" type="line"/>
      <point x="190" y="660" type="line"/>
      <point x="131" y="336" type="line"/>
      <point x="180" y="330"/>
      <point x="218" y="322"/>
      <point x="257" y="314" type="curve" smooth="yes"/>
      <point x="375" y="291"/>
      <point x="419" y="249"/>
      <point x="419" y="170" type="curve" smooth="yes"/>
      <point x="419" y="83"/>
      <point x="333" y="22"/>
      <point x="209" y="39" type="curve"/>
      <point x="253" y="24" type="line"/>
      <point x="183" y="82" type="line" smooth="yes"/>
      <point x="155" y="105"/>
      <point x="141" y="111"/>
      <point x="119" y="111" type="curve" smooth="yes"/>
      <point x="95" y="111"/>
      <point x="76" y="94"/>
      <point x="76" y="70" type="curve" smooth="yes"/>
      <point x="76" y="23"/>
      <point x="141" y="-10"/>
    </contour>
  </outline>
</glyph>
<glyph name="four.osf" format="1">
  <advance width="545"/>
  <note>
    four.onum
  </note>
  <outline>
    <contour>
      <point x="411" y="-210" type="line"/>
      <point x="411" y="273" type="line"/>
      <point x="411" y="327"/>
      <point x="412" y="380"/>
      <point x="414" y="434" type="curve"/>
      <point x="375" y="434" type="line"/>
      <point x="43" y="47" type="line"/>
      <point x="53" y="12" type="line"/>
      <point x="507" y="12" type="line"/>
      <point x="511" y="74" type="line"/>
      <point x="190" y="74" type="line" smooth="yes"/>
      <point x="165" y="74"/>
      <point x="139" y="76"/>
      <point x="114" y="77" type="curve"/>
      <point x="120" y="54" type="line"/>
      <point x="354" y="338" type="line"/>
      <point x="330" y="339" type="line"/>
      <point x="330" y="-210" type="line"/>
    </contour>
  </outline>
</glyph>
<glyph name="four.tosf" format="1">
  <advance width="600"/>
  <note>
    four.onum
  </note>
  <outline>
    <contour>
      <point x="438" y="-210" type="line"/>
      <point x="438" y="273" type="line"/>
      <point x="438" y="327"/>
      <point x="439" y="380"/>
      <point x="441" y="434" type="curve"/>
      <point x="402" y="434" type="line"/>
      <point x="70" y="47" type="line"/>
      <point x="80" y="12" type="line"/>
      <point x="534" y="12" type="line"/>
      <point x="538" y="74" type="line"/>
      <point x="217" y="74" type="line" smooth="yes"/>
      <point x="192" y="74"/>
      <point x="166" y="76"/>
      <point x="141" y="77" type="curve"/>
      <point x="147" y="54" type="line"/>
      <point x="381" y="338" type="line"/>
      <point x="357" y="339" type="line"/>
      <point x="357" y="-210" type="line"/>
    </contour>
  </outline>
</glyph>
<glyph name="macroncomb_dieresiscomb.case" format="1">
  <advance width="600"/>
  <outline>
    <contour>
      <point x="136" y="756" type="line"/>
      <point x="464" y="756" type="line"/>
      <point x="464" y="811" type="line"/>
      <point x="136" y="811" type="line"/>
    </contour>
    <contour>
      <point x="201" y="976" type="curve" smooth="yes"/>
      <point x="171" y="976"/>
      <point x="149" y="955"/>
      <point x="149" y="926" type="curve" smooth="yes"/>
      <point x="149" y="898"/>
      <point x="171" y="876"/>
      <point x="201" y="876" type="curve" smooth="yes"/>
      <point x="230" y="876"/>
      <point x="251" y="898"/>
      <point x="251" y="926" type="curve" smooth="yes"/>
      <point x="251" y="955"/>
      <point x="230" y="976"/>
    </contour>
    <contour>
      <point x="401" y="976" type="curve" smooth="yes"/>
      <point x="371" y="976"/>
      <point x="349" y="955"/>
      <point x="349" y="926" type="curve" smooth="yes"/>
      <point x="349" y="898"/>
      <point x="371" y="876"/>
      <point x="401" y="876" type="curve" smooth="yes"/>
      <point x="430" y="876"/>
      <point x="451" y="898"/>
      <point x="451" y="926" type="curve" smooth="yes"/>
      <point x="451" y="955"/>
      <point x="430" y="976"/>
    </contour>
    <contour>
      <point x="300" y="660" type="move" name="_top"/>
    </contour>
  </outline>
</glyph>
<glyph name="nine.osf" format="1">
  <advance width="515"/>
  <note>
    nine.onum
  </note>
  <outline>
    <contour>
      <point x="388" y="156" type="curve"/>
      <point x="383" y="199" type="line"/>
      <point x="353" y="143"/>
      <point x="308" y="111"/>
      <point x="254" y="111" type="curve" smooth="yes"/>
      <point x="185" y="111"/>
      <point x="135" y="168"/>
      <point x="135" y="250" type="curve" smooth="yes"/>
      <point x="135" y="334"/>
      <point x="180" y="391"/>
      <point x="245" y="391" type="curve" smooth="yes"/>
      <point x="322" y="391"/>
      <point x="371" y="313"/>
      <point x="371" y="187" type="curve" smooth="yes"/>
      <point x="371" y="1"/>
      <point x="271" y="-129"/>
      <point x="77" y="-192" type="curve"/>
      <point x="92" y="-237" type="line"/>
      <point x="316" y="-183"/>
      <point x="461" y="-14"/>
      <point x="461" y="190" type="curve" smooth="yes"/>
      <point x="461" y="340"/>
      <point x="375" y="438"/>
      <point x="252" y="438" type="curve" smooth="yes"/>
      <point x="140" y="438"/>
      <point x="48" y="343"/>
      <point x="48" y="227" type="curve" smooth="yes"/>
      <point x="48" y="122"/>
      <point x="122" y="45"/>
      <point x="218" y="45" type="curve" smooth="yes"/>
      <point x="286" y="45"/>
      <point x="351" y="87"/>
    </contour>
  </outline>
</glyph>
<glyph name="nine.tosf" format="1">
  <advance width="600"/>
  <note>
    nine.onum
  </note>
  <outline>
    <contour>
      <point x="442" y="154" type="curve"/>
      <point x="437" y="199" type="line"/>
      <point x="405" y="143"/>
      <point x="358" y="111"/>
      <point x="300" y="111" type="curve" smooth="yes"/>
      <point x="217" y="111"/>
      <point x="164" y="168"/>
      <point x="164" y="250" type="curve" smooth="yes"/>
      <point x="164" y="332"/>
      <point x="212" y="391"/>
      <point x="286" y="391" type="curve" smooth="yes"/>
      <point x="373" y="391"/>
      <point x="424" y="311"/>
      <point x="424" y="187" type="curve" smooth="yes"/>
      <point x="424" y="1"/>
      <point x="324" y="-129"/>
      <point x="116" y="-192" type="curve"/>
      <point x="131" y="-237" type="line"/>
      <point x="369" y="-183"/>
      <point x="514" y="-14"/>
      <point x="514" y="190" type="curve" smooth="yes"/>
      <point x="514" y="338"/>
      <point x="433" y="438"/>
      <point x="293" y="438" type="curve" smooth="yes"/>
      <point x="169" y="438"/>
      <point x="77" y="343"/>
      <point x="77" y="227" type="curve" smooth="yes"/>
      <point x="77" y="122"/>
      <point x="151" y="45"/>
      <point x="262" y="45" type="curve" smooth="yes"/>
      <point x="336" y="45"/>
      <point x="403" y="86"/>
    </contour>
  </outline>
</glyph>
<glyph name="one.tf" format="1">
  <advance width="600"/>
  <note>
    one
  </note>
  <outline>
    <contour>
      <point x="354" y="217" type="curve" smooth="yes"/>
      <point x="354" y="467" type="line" smooth="yes"/>
      <point x="354" y="554"/>
      <point x="356" y="623"/>
      <point x="358" y="670" type="curve"/>
      <point x="145" y="590" type="line"/>
      <point x="150" y="546" type="line"/>
      <point x="186" y="553"/>
      <point x="240" y="562"/>
      <point x="264" y="565" type="curve"/>
      <point x="266" y="546"/>
      <point x="269" y="514"/>
      <point x="269" y="449" type="curve" smooth="yes"/>
      <point x="269" y="217" type="line" smooth="yes"/>
      <point x="269" y="87"/>
      <point x="265" y="61"/>
      <point x="261" y="54" type="curve"/>
      <point x="250" y="50"/>
      <point x="196" y="44"/>
      <point x="154" y="41" type="curve"/>
      <point x="157" y="-3" type="line"/>
      <point x="212" y="0"/>
      <point x="279" y="2"/>
      <point x="312" y="2" type="curve" smooth="yes"/>
      <point x="344" y="2"/>
      <point x="411" y="0"/>
      <point x="466" y="-3" type="curve"/>
      <point x="469" y="41" type="line"/>
      <point x="427" y="44"/>
      <point x="373" y="50"/>
      <point x="362" y="54" type="curve"/>
      <point x="358" y="61"/>
      <point x="354" y="87"/>
    </contour>
  </outline>
</glyph>
<glyph name="ringcomb.case" format="1">
  <advance width="600"/>
  <note>
    uni030A.cap
  </note>
  <outline>
    <contour>
      <point x="301" y="717" type="curve" smooth="yes"/>
      <point x="357" y="717"/>
      <point x="400" y="759"/>
      <point x="400" y="813" type="curve" smooth="yes"/>
      <point x="400" y="868"/>
      <point x="358" y="909"/>
      <point x="301" y="909" type="curve" smooth="yes"/>
      <point x="244" y="909"/>
      <point x="200" y="867"/>
      <point x="200" y="813" type="curve" smooth="yes"/>
      <point x="200" y="759"/>
      <point x="244" y="717"/>
    </contour>
    <contour>
      <point x="302" y="751" type="curve" smooth="yes"/>
      <point x="267" y="751"/>
      <point x="241" y="778"/>
      <point x="241" y="814" type="curve" smooth="yes"/>
      <point x="241" y="851"/>
      <point x="267" y="877"/>
      <point x="302" y="877" type="curve" smooth="yes"/>
      <point x="337" y="877"/>
      <point x="361" y="852"/>
      <point x="361" y="814" type="curve" smooth="yes"/>
      <point x="361" y="776"/>
      <point x="337" y="751"/>
    </contour>
    <contour>
      <point x="300" y="660" type="move" name="_top"/>
    </contour>
    <contour>
      <point x="300" y="877" type="move" name="top"/>
    </contour>
  </outline>
</glyph>
<glyph name="ringcomb_acutecomb" format="1">
  <advance width="600"/>
  <outline>
    <contour>
      <point x="301" y="493" type="curve" smooth="yes"/>
      <point x="357" y="493"/>
      <point x="400" y="535"/>
      <point x="400" y="589" type="curve" smooth="yes"/>
      <point x="400" y="644"/>
      <point x="358" y="685"/>
      <point x="301" y="685" type="curve" smooth="yes"/>
      <point x="244" y="685"/>
      <point x="200" y="643"/>
      <point x="200" y="589" type="curve" smooth="yes"/>
      <point x="200" y="535"/>
      <point x="244" y="493"/>
    </contour>
    <contour>
      <point x="302" y="527" type="curve" smooth="yes"/>
      <point x="267" y="527"/>
      <point x="241" y="554"/>
      <point x="241" y="590" type="curve" smooth="yes"/>
      <point x="241" y="627"/>
      <point x="267" y="653"/>
      <point x="302" y="653" type="curve" smooth="yes"/>
      <point x="337" y="653"/>
      <point x="361" y="628"/>
      <point x="361" y="590" type="curve" smooth="yes"/>
      <point x="361" y="552"/>
      <point x="337" y="527"/>
    </contour>
    <contour>
      <point x="370" y="634" type="line"/>
      <point x="483" y="767" type="line"/>
      <point x="402" y="790" type="line"/>
      <point x="330" y="648" type="line"/>
    </contour>
    <contour>
      <point x="300" y="430" type="move" name="_top"/>
    </contour>
  </outline>
</glyph>
<glyph name="six.osf" format="1">
  <advance width="515"/>
  <note>
    six.onum
  </note>
  <outline>
    <contour>
      <point x="127" y="272" type="curve"/>
      <point x="132" y="229" type="line"/>
      <point x="162" y="285"/>
      <point x="207" y="317"/>
      <point x="261" y="317" type="curve" smooth="yes"/>
      <point x="330" y="317"/>
      <point x="380" y="260"/>
      <point x="380" y="178" type="curve" smooth="yes"/>
      <point x="380" y="94"/>
      <point x="335" y="37"/>
      <point x="270" y="37" type="curve" smooth="yes"/>
      <point x="193" y="37"/>
      <point x="144" y="115"/>
      <point x="144" y="241" type="curve" smooth="yes"/>
      <point x="144" y="435"/>
      <point x="244" y="572"/>
      <point x="438" y="635" type="curve"/>
      <point x="423" y="680" type="line"/>
      <point x="199" y="626"/>
      <point x="54" y="450"/>
      <point x="54" y="238" type="curve" smooth="yes"/>
      <point x="54" y="88"/>
      <point x="140" y="-10"/>
      <point x="263" y="-10" type="curve" smooth="yes"/>
      <point x="375" y="-10"/>
      <point x="467" y="85"/>
      <point x="467" y="201" type="curve" smooth="yes"/>
      <point x="467" y="306"/>
      <point x="393" y="383"/>
      <point x="297" y="383" type="curve" smooth="yes"/>
      <point x="229" y="383"/>
      <point x="164" y="341"/>
    </contour>
  </outline>
</glyph>
<glyph name="six.tf" format="1">
  <advance width="600"/>
  <note>
    six
  </note>
  <outline>
    <contour>
      <point x="157" y="274" type="curve"/>
      <point x="162" y="229" type="line"/>
      <point x="194" y="285"/>
      <point x="241" y="316"/>
      <point x="299" y="316" type="curve" smooth="yes"/>
      <point x="382" y="316"/>
      <point x="435" y="260"/>
      <point x="435" y="178" type="curve" smooth="yes"/>
      <point x="435" y="96"/>
      <point x="387" y="39"/>
      <point x="313" y="39" type="curve" smooth="yes"/>
      <point x="226" y="39"/>
      <point x="175" y="117"/>
      <point x="175" y="241" type="curve" smooth="yes"/>
      <point x="175" y="435"/>
      <point x="280" y="570"/>
      <point x="487" y="633" type="curve"/>
      <point x="468" y="680" type="line"/>
      <point x="230" y="626"/>
      <point x="76" y="450"/>
      <point x="76" y="236" type="curve" smooth="yes"/>
      <point x="76" y="88"/>
      <point x="166" y="-10"/>
      <point x="306" y="-10" type="curve" smooth="yes"/>
      <point x="432" y="-10"/>
      <point x="531" y="85"/>
      <point x="531" y="201" type="curve" smooth="yes"/>
      <point x="531" y="306"/>
      <point x="449" y="384"/>
      <point x="337" y="384" type="curve" smooth="yes"/>
      <point x="263" y="384"/>
      <point x="196" y="342"/>
    </contour>
  </outline>
</glyph>
<glyph name="six.tosf" format="1">
  <advance width="600"/>
  <note>
    six.onum
  </note>
  <outline>
    <contour>
      <point x="158" y="274" type="curve"/>
      <point x="163" y="229" type="line"/>
      <point x="195" y="285"/>
      <point x="242" y="317"/>
      <point x="300" y="317" type="curve" smooth="yes"/>
      <point x="383" y="317"/>
      <point x="436" y="260"/>
      <point x="436" y="178" type="curve" smooth="yes"/>
      <point x="436" y="96"/>
      <point x="388" y="37"/>
      <point x="314" y="37" type="curve" smooth="yes"/>
      <point x="227" y="37"/>
      <point x="176" y="117"/>
      <point x="176" y="241" type="curve" smooth="yes"/>
      <point x="176" y="435"/>
      <point x="276" y="571"/>
      <point x="484" y="635" type="curve"/>
      <point x="469" y="680" type="line"/>
      <point x="231" y="626"/>
      <point x="86" y="452"/>
      <point x="86" y="238" type="curve" smooth="yes"/>
      <point x="86" y="90"/>
      <point x="167" y="-10"/>
      <point x="307" y="-10" type="curve" smooth="yes"/>
      <point x="431" y="-10"/>
      <point x="523" y="85"/>
      <point x="523" y="201" type="curve" smooth="yes"/>
      <point x="523" y="306"/>
      <point x="449" y="383"/>
      <point x="338" y="383" type="curve" smooth="yes"/>
      <point x="264" y="383"/>
      <point x="197" y="342"/>
    </contour>
  </outline>
</glyph>
<glyph name="slashshortcomb.case" format="1">
  <advance width="600"/>
  <outline>
    <contour>
      <point x="175" y="197" type="line"/>
      <point x="496" y="420" type="line"/>
      <point x="466" y="463" type="line"/>
      <point x="145" y="240" type="line"/>
    </contour>
    <contour>
      <point x="321" y="330" type="move" name="_center"/>
    </contour>
  </outline>
</glyph>
<glyph name="strokeshortcomb.case" format="1">
  <advance width="600"/>
  <outline>
    <contour>
      <point x="88" y="381" type="line"/>
      <point x="428" y="381" type="line"/>
      <point x="428" y="431" type="line"/>
      <point x="88" y="431" type="line"/>
    </contour>
    <contour>
      <point x="258" y="406" type="move" name="_stroke"/>
    </contour>
  </outline>
</glyph>
<glyph name="strokeshortcomb.t" format="1">
  <advance width="600"/>
  <outline>
    <contour>
      <point x="158" y="386" type="line"/>
      <point x="428" y="386" type="line"/>
      <point x="428" y="426" type="line"/>
      <point x="158" y="426" type="line"/>
    </contour>
    <contour>
      <point x="258" y="406" type="move" name="_stroke"/>
    </contour>
  </outline>
</glyph>
